<?xml version="1.0" encoding="UTF-8"?>
<svg width="84px" height="73px" viewBox="0 0 84 73" version="1.1" xmlns="http://www.w3.org/2000/svg" xmlns:xlink="http://www.w3.org/1999/xlink">
    <!-- Generator: Sketch 50.2 (55047) - http://www.bohemiancoding.com/sketch -->
    <title>icon-tribunal</title>
    <desc>Created with Sketch.</desc>
    <defs></defs>
    <g id="Page-1" stroke="none" stroke-width="1" fill="none" fill-rule="evenodd">
        <g id="icon-tribunal">
            <g id="Group-2">
                <path d="M50.4794341,13.1555556 C47.193036,13.1555556 44.4966864,16.3895798 44.4966864,20.3313131 C44.4966864,22.2583628 45.136444,24.0278149 46.1793342,25.3207071 L37.2052126,42.2510101 L25.6368219,36.0282828 C25.7332264,35.5938086 25.8004127,35.1488309 25.8004127,34.6828283 C25.8004127,31.7326053 23.7730838,29.3010101 21.3133519,29.3010101 C18.8536199,29.3010101 16.8262911,31.7326053 16.8262911,34.6828283 C16.8262911,36.8096331 17.8896497,38.6596331 19.397003,39.5320259 L28.0435692,63.7502077 L28.0435692,70.5616162 C28.0435692,71.5006537 28.7563538,72.3555556 29.5392561,72.3555556 L71.4184904,72.3555556 C72.2014077,72.3555556 72.9141773,71.5006358 72.9141773,70.5616162 L72.9141773,63.7502077 L81.5607435,39.5320259 C83.0680968,38.6595793 84.1314554,36.8095434 84.1314554,34.6828283 C84.1314554,31.7326053 82.1041265,29.3010101 79.6443946,29.3010101 C77.1846626,29.3010101 75.1573338,31.7326053 75.1573338,34.6828283 C75.1573338,35.1488309 75.22452,35.5937907 75.3209245,36.0282828 L63.7525339,42.2510101 L54.7784123,25.3207071 C55.82128,24.0278149 56.4610601,22.2583628 56.4610601,20.3313131 C56.4610601,16.3895798 53.7647105,13.1555556 50.4783124,13.1555556 L50.4794341,13.1555556 Z M50.4794341,16.7434343 C52.1504156,16.7434343 53.470808,18.327124 53.470808,20.3313131 C53.470808,22.3355022 52.1504156,23.9191919 50.4794341,23.9191919 C48.8084527,23.9191919 47.4880602,22.3355022 47.4880602,20.3313131 C47.4880602,18.327124 48.8084527,16.7434343 50.4794341,16.7434343 Z M21.3131649,32.8887095 C22.1574054,32.8887095 22.8088519,33.6700508 22.8088519,34.6826489 C22.8088519,35.6952469 22.1574129,36.4765883 21.3131649,36.4765883 C20.468917,36.4765883 19.817478,35.6952469 19.817478,34.6826489 C19.817478,33.6700508 20.468917,32.8887095 21.3131649,32.8887095 Z M79.6449555,32.8887095 C80.489196,32.8887095 81.1406424,33.6700508 81.1406424,34.6826489 C81.1406424,35.6952469 80.4892034,36.4765883 79.6449555,36.4765883 C78.8007075,36.4765883 78.1492685,35.6952469 78.1492685,34.6826489 C78.1492685,33.6700508 78.8007075,32.8887095 79.6449555,32.8887095 Z M50.4790602,44.5493156 C47.6044995,44.5493156 45.2441559,47.3803313 45.2441559,50.8281034 C45.2441559,54.2758756 47.6044995,57.1068913 50.4790602,57.1068913 C53.3536209,57.1068913 55.7139645,54.2758756 55.7139645,50.8281034 C55.7139645,47.3803313 53.3536209,44.5493156 50.4790602,44.5493156 Z M50.4790602,48.1371943 C51.7352129,48.1371943 52.7225906,49.3214634 52.7225906,50.8281034 C52.7225906,52.3347434 51.7352129,53.5190125 50.4790602,53.5190125 C49.2229075,53.5190125 48.2355298,52.3347434 48.2355298,50.8281034 C48.2355298,49.3214634 49.2229075,48.1371943 50.4790602,48.1371943 Z M31.03513,65.1796186 L69.9229904,65.1796186 L69.9229904,68.7674974 L31.03513,68.7674974 L31.03513,65.1796186 Z" id="Fill-1-Copy" fill="#40a9ff"></path>
                <path d="M39.2620002,0 C35.4278691,0 32.2821278,3.59336027 32.2821278,7.97306397 C32.2821278,10.1142303 33.0285118,12.0802882 34.2452169,13.516835 L23.7754084,32.3282828 L10.2789527,25.4141414 C10.3914246,24.9313923 10.4698086,24.4369727 10.4698086,23.9191919 C10.4698086,20.6411663 8.10459156,17.9393939 5.23490428,17.9393939 C2.365217,17.9393939 0,20.6411663 0,23.9191919 C0,26.2823084 1.24058507,28.337864 2.99916391,29.3071892 L13.0868245,56.2162801 L13.0868245,63.7845118 C13.0868245,64.8278869 13.9184065,65.7777778 14.8317925,65.7777778 L63.6908992,65.7777778 C64.6043027,65.7777778 65.4358672,64.8278669 65.4358672,63.7845118 L65.4358672,56.2162801 L75.5235278,29.3071892 C77.2821066,28.3378042 78.5226917,26.2822088 78.5226917,23.9191919 C78.5226917,20.6411663 76.1574747,17.9393939 73.2877874,17.9393939 C70.4181001,17.9393939 68.0528831,20.6411663 68.0528831,23.9191919 C68.0528831,24.4369727 68.1312671,24.9313724 68.243739,25.4141414 L54.7472833,32.3282828 L44.2774748,13.516835 C45.4941538,12.0802882 46.2405639,10.1142303 46.2405639,7.97306397 C46.2405639,3.59336027 43.0948226,0 39.2606915,0 L39.2620002,0 Z M39.2620002,3.98653199 C41.2114786,3.98653199 42.7519364,5.74618721 42.7519364,7.97306397 C42.7519364,10.1999407 41.2114786,11.959596 39.2620002,11.959596 C37.3125219,11.959596 35.772064,10.1999407 35.772064,7.97306397 C35.772064,5.74618721 37.3125219,3.98653199 39.2620002,3.98653199 Z M37.2443809,15.6032862 C37.8817043,15.8251965 38.563315,15.9458788 39.2620002,15.9458788 C39.9606854,15.9458788 40.64227,15.8251965 41.2796196,15.6032862 L52.6219122,35.9405791 C53.0683797,36.734776 54.0465041,37.0734519 54.8031223,36.6880539 L70.2356201,28.7460848 C70.6582339,29.0964611 71.1217149,29.3923415 71.6261852,29.5869939 L62.5191967,53.8171354 L16.0053272,53.8171354 L6.89833874,29.5869939 C7.40273922,29.3923415 7.86627254,29.0964611 8.28890381,28.7460848 L23.7214016,36.6880539 C24.4780111,37.0734718 25.4561617,36.7386629 25.9026117,35.9405791 L37.2443809,15.6032862 Z M5.23468616,21.9257266 C6.2196334,21.9257266 6.97965425,22.7938836 6.97965425,23.9189926 C6.97965425,25.0441015 6.21964212,25.9122586 5.23468616,25.9122586 C4.24973019,25.9122586 3.48971807,25.0441015 3.48971807,23.9189926 C3.48971807,22.7938836 4.24973019,21.9257266 5.23468616,21.9257266 Z M73.2884418,21.9257266 C74.273389,21.9257266 75.0334099,22.7938836 75.0334099,23.9189926 C75.0334099,25.0441015 74.2733978,25.9122586 73.2884418,25.9122586 C72.3034858,25.9122586 71.5434737,25.0441015 71.5434737,23.9189926 C71.5434737,22.7938836 72.3034858,21.9257266 73.2884418,21.9257266 Z M39.261564,34.8819556 C35.9079098,34.8819556 33.1541756,38.0275286 33.1541756,41.8583865 C33.1541756,45.6892444 35.9079098,48.8348175 39.261564,48.8348175 C42.6152182,48.8348175 45.3689523,45.6892444 45.3689523,41.8583865 C45.3689523,38.0275286 42.6152182,34.8819556 39.261564,34.8819556 Z M39.261564,38.8684875 C40.7270754,38.8684875 41.8790161,40.1843421 41.8790161,41.8583865 C41.8790161,43.532431 40.7270754,44.8482855 39.261564,44.8482855 C37.7960525,44.8482855 36.6441118,43.532431 36.6441118,41.8583865 C36.6441118,40.1843421 37.7960525,38.8684875 39.261564,38.8684875 Z M16.5769788,57.8045145 L61.9461492,57.8045145 L61.9461492,61.7910465 L16.5769788,61.7910465 L16.5769788,57.8045145 Z" id="Fill-1" fill="#000000"></path>
            </g>
        </g>
    </g>
</svg>
