<?xml version="1.0" encoding="UTF-8"?>
<svg width="32px" height="32px" viewBox="0 0 32 32" version="1.1" xmlns="http://www.w3.org/2000/svg" xmlns:xlink="http://www.w3.org/1999/xlink">
    <!-- Generator: Sketch 53.2 (72643) - https://sketchapp.com -->
    <title>Group 17</title>
    <desc>Created with Sketch.</desc>
    <g id="v2-Content" stroke="none" stroke-width="1" fill="none" fill-rule="evenodd">
        <g id="Content-published-after-vote" transform="translate(-919.000000, -1653.000000)" fill="#5d5d5d">
            <g id="Group-32" transform="translate(698.000000, 1653.000000)">
                <g id="Group-17" transform="translate(221.000000, 0.000000)">
                    <path d="M16.0173733,32 C7.18071516,32 0,24.8264789 0,15.9999979 C0,7.17351678 7.18071516,0 16.0173733,0 C24.8527078,0 32,7.17351678 32,15.9999979 C32,24.8264789 24.8192845,32 16.0173733,32 Z M16.0173733,1.98322259 C8.27309462,1.98322259 1.98554279,8.26447434 1.98554279,15.9996673 C1.98554279,23.7348635 8.27309462,30.0161162 16.0160496,30.0161162 C23.7590047,30.0161162 30.0465568,23.7348635 30.0465568,15.9996673 C30.0478474,8.26447103 23.7265741,1.98322259 16.0170424,1.98322259 L16.0173733,1.98322259 Z" id="Fill-1"></path>
                    <g id="Group-46" transform="translate(8.000000, 15.000000)">
                        <path d="M9.69767442,1.50045701 C9.69767442,2.3289742 9.02571117,3 8.19813142,3 C7.36961423,3 6.69767442,2.32895076 6.69767442,1.50045701 C6.69767442,0.671939816 7.36963767,0 8.19813142,0 C9.02571117,0 9.69767442,0.671963252 9.69767442,1.50045701" id="Fill-2"></path>
                        <path d="M16.3953488,1.50045701 C16.3953488,2.3289742 15.7233856,3 14.8948918,3 C14.0673121,3 13.3953488,2.32895076 13.3953488,1.50045701 C13.3953488,0.671939816 14.0673121,0 14.8948918,0 C15.723409,0 16.3953488,0.671963252 16.3953488,1.50045701" id="Fill-3"></path>
                        <path d="M3,1.50045701 C3,2.3289742 2.32803675,3 1.50045701,3 C0.671939816,3 -2.77555756e-14,2.32895076 -2.77555756e-14,1.50045701 C-2.77555756e-14,0.671939816 0.671963252,0 1.50045701,0 C2.32803675,0 3,0.671963252 3,1.50045701" id="Fill-4"></path>
                    </g>
                </g>
            </g>
        </g>
    </g>
</svg>
