<?xml version="1.0" encoding="UTF-8"?>
<svg width="18px" height="16px" viewBox="0 0 18 16" version="1.1" xmlns="http://www.w3.org/2000/svg" xmlns:xlink="http://www.w3.org/1999/xlink">
    <!-- Generator: Sketch 50.2 (55047) - http://www.bohemiancoding.com/sketch -->
    <title>icon-reddit</title>
    <desc>Created with Sketch.</desc>
    <defs></defs>
    <g id="footer" stroke="none" stroke-width="1" fill="none" fill-rule="evenodd">
        <g id="Group-11" transform="translate(-104.000000, -45.000000)" fill="#40a9ff">
            <g id="Group-10" transform="translate(0.000000, 45.000000)">
                <g id="icon-reddit" transform="translate(104.000000, 0.000000)">
                    <g transform="translate(0.666667, 0.000000)" id="reddit">
                        <g fill-rule="nonzero">
                            <path d="M17,8 C17,8.36564224 16.906715,8.69818755 16.7201451,8.99763593 C16.5335751,9.29708432 16.2821801,9.52561072 15.9659598,9.68321513 C16.0418527,9.97320725 16.0797991,10.2758077 16.0797991,10.5910165 C16.0797991,11.5681639 15.7430246,12.4728132 15.0694754,13.3049645 C14.3959263,14.1371158 13.4773065,14.7943262 12.3136161,15.2765957 C11.1499256,15.7588652 9.88504464,16 8.51897321,16 C7.15290179,16 5.88960193,15.7588652 4.72907366,15.2765957 C3.56854539,14.7943262 2.6515067,14.1371158 1.97795759,13.3049645 C1.30440848,12.4728132 0.967633929,11.5681639 0.967633929,10.5910165 C0.967633929,10.2947203 1.00241815,9.99842396 1.07198661,9.70212766 C0.749441964,9.54452325 0.490141369,9.31284476 0.294084821,9.0070922 C0.0980282738,8.70133964 0,8.36564224 0,8 C0,7.48305753 0.183407738,7.04018913 0.550223214,6.6713948 C0.91703869,6.30260047 1.36290923,6.11820331 1.88783482,6.11820331 C2.42540923,6.11820331 2.88392857,6.31678487 3.26339286,6.71394799 C4.6421131,5.75571316 6.27064732,5.24507486 8.14899554,5.1820331 L9.24944196,0.255319149 C9.26841518,0.173364854 9.31584821,0.107171001 9.39174107,0.0567375887 C9.46763393,0.00630417652 9.54985119,-0.00945626478 9.63839286,0.00945626478 L13.1389509,0.775413712 C13.2527902,0.54215918 13.4235491,0.354609929 13.6512277,0.212765957 C13.8789062,0.0709219858 14.1287202,0 14.4006696,0 C14.7927827,0 15.1279762,0.137115839 15.40625,0.411347518 C15.6845238,0.685579196 15.8236607,1.01812451 15.8236607,1.40898345 C15.8236607,1.7998424 15.6845238,2.13396375 15.40625,2.41134752 C15.1279762,2.68873128 14.7927827,2.82742317 14.4006696,2.82742317 C14.0085565,2.82742317 13.6749442,2.69030733 13.3998326,2.41607565 C13.124721,2.14184397 12.9871652,1.80929866 12.9871652,1.41843972 L9.81863839,0.718676123 L8.83203125,5.1820331 C10.7293527,5.23877069 12.3705357,5.74310481 13.7555804,6.69503546 C14.1223958,6.31048069 14.5745908,6.11820331 15.1121652,6.11820331 C15.6370908,6.11820331 16.0829613,6.30260047 16.4497768,6.6713948 C16.8165923,7.04018913 17,7.48305753 17,8 Z M3.96540179,9.88179669 C3.96540179,10.2726556 4.10295759,10.606777 4.3780692,10.8841608 C4.6531808,11.1615445 4.98679315,11.3002364 5.37890625,11.3002364 C5.77101935,11.3002364 6.1062128,11.1615445 6.38448661,10.8841608 C6.66276042,10.606777 6.80189732,10.2726556 6.80189732,9.88179669 C6.80189732,9.49093775 6.66276042,9.15839243 6.38448661,8.88416076 C6.1062128,8.60992908 5.77101935,8.47281324 5.37890625,8.47281324 C4.99311756,8.47281324 4.66108631,8.61150512 4.3828125,8.88888889 C4.10453869,9.16627266 3.96540179,9.49724192 3.96540179,9.88179669 Z M11.6495536,13.2387707 C11.719122,13.1694247 11.7539062,13.0874704 11.7539062,12.9929078 C11.7539062,12.8983452 11.719122,12.8163909 11.6495536,12.7470449 C11.5863095,12.6840032 11.5072545,12.6524823 11.4123884,12.6524823 C11.3175223,12.6524823 11.2353051,12.6840032 11.1657366,12.7470449 C10.906436,13.0118203 10.5238095,13.2072498 10.0178571,13.3333333 C9.51190476,13.4594169 9.00595238,13.5224586 8.5,13.5224586 C7.99404762,13.5224586 7.48809524,13.4594169 6.98214286,13.3333333 C6.47619048,13.2072498 6.09356399,13.0118203 5.83426339,12.7470449 C5.76469494,12.6840032 5.68247768,12.6524823 5.58761161,12.6524823 C5.49274554,12.6524823 5.41369048,12.6840032 5.35044643,12.7470449 C5.28087798,12.8100867 5.24609375,12.8904649 5.24609375,12.9881797 C5.24609375,13.0858944 5.28087798,13.1694247 5.35044643,13.2387707 C5.62239583,13.5098503 5.99711682,13.7241923 6.47460938,13.8817967 C6.95210193,14.0394011 7.33947173,14.1323877 7.63671875,14.1607565 C7.93396577,14.1891253 8.22172619,14.2033097 8.5,14.2033097 C8.77827381,14.2033097 9.06603423,14.1891253 9.36328125,14.1607565 C9.66052827,14.1323877 10.0478981,14.0394011 10.5253906,13.8817967 C11.0028832,13.7241923 11.3776042,13.5098503 11.6495536,13.2387707 Z M11.6210938,11.3002364 C12.0132068,11.3002364 12.3468192,11.1615445 12.6219308,10.8841608 C12.8970424,10.606777 13.0345982,10.2726556 13.0345982,9.88179669 C13.0345982,9.49724192 12.8954613,9.16627266 12.6171875,8.88888889 C12.3389137,8.61150512 12.0068824,8.47281324 11.6210938,8.47281324 C11.2289807,8.47281324 10.8937872,8.60992908 10.6155134,8.88416076 C10.3372396,9.15839243 10.1981027,9.49093775 10.1981027,9.88179669 C10.1981027,10.2726556 10.3372396,10.606777 10.6155134,10.8841608 C10.8937872,11.1615445 11.2289807,11.3002364 11.6210938,11.3002364 Z" id="Shape"></path>
                        </g>
                    </g>
                </g>
            </g>
        </g>
    </g>
</svg>
