<?xml version="1.0" encoding="utf-8"?>
<!-- Generator: Adobe Illustrator 23.0.2, SVG Export Plug-In . SVG Version: 6.00 Build 0)  -->
<svg version="1.1" id="Layer_1" xmlns="http://www.w3.org/2000/svg" xmlns:xlink="http://www.w3.org/1999/xlink" x="0px" y="0px"
	 viewBox="0 0 100 100" style="enable-background:new 0 0 100 100;" xml:space="preserve">
<style type="text/css">
	.st0{opacity:0.2;}
	.st1{clip-path:url(#SVGID_2_);}
	.st2{opacity:0.2;clip-path:url(#SVGID_4_);fill:#192A2E;}
	.st3{fill-rule:evenodd;clip-rule:evenodd;fill:#FFB53A;}
	.st4{clip-path:url(#SVGID_6_);}
	.st5{clip-path:url(#SVGID_8_);fill:#FFFFFF;}
</style>
<g class="st0">
	<defs>
		<path id="SVGID_1_" class="st0" d="M38,78.1h44.2v3.5H38V78.1z M60.1,61.6c1.4,0,2.5,1.1,2.5,2.6c0,1.5-1.1,2.6-2.5,2.6
			s-2.5-1.1-2.5-2.6C57.5,62.8,58.6,61.6,60.1,61.6z M60.1,58.1c-3.3,0-5.9,2.7-5.9,6.1c0,3.3,2.7,6.1,5.9,6.1s5.9-2.7,5.9-6.1
			C66,60.9,63.3,58.1,60.1,58.1z M93.2,46.8c1,0,1.7,0.8,1.7,1.7c0,1-0.7,1.7-1.7,1.7c-1,0-1.7-0.8-1.7-1.7
			C91.5,47.6,92.2,46.8,93.2,46.8z M26.9,46.8c1,0,1.7,0.8,1.7,1.7c0,1-0.7,1.7-1.7,1.7c-1,0-1.7-0.8-1.7-1.7
			C25.2,47.6,26,46.8,26.9,46.8z M60.1,31.2c1.9,0,3.4,1.5,3.4,3.5c0,1.9-1.5,3.5-3.4,3.5c-1.9,0-3.4-1.5-3.4-3.5
			C56.7,32.7,58.2,31.2,60.1,31.2z M60.1,27.7c-3.7,0-6.8,3.1-6.8,6.9c0,1.9,0.7,3.6,1.9,4.8L45,55.9l-13.1-6C32,49.5,32,49,32,48.6
			c0-2.9-2.3-5.2-5.1-5.2c-2.8,0-5.1,2.4-5.1,5.2c0,2.1,1.2,3.9,2.9,4.7l9.8,23.5v6.6c0,0.9,0.8,1.7,1.7,1.7h47.6
			c0.9,0,1.7-0.8,1.7-1.7v-6.6l9.8-23.5c1.7-0.8,2.9-2.6,2.9-4.7c0-2.9-2.3-5.2-5.1-5.2c-2.8,0-5.1,2.4-5.1,5.2
			c0,0.5,0.1,0.9,0.2,1.3l-13.1,6L64.9,39.5c1.2-1.3,1.9-3,1.9-4.8C66.8,30.9,63.8,27.7,60.1,27.7L60.1,27.7z"/>
	</defs>
	<use xlink:href="#SVGID_1_"  style="overflow:visible;opacity:0.2;fill-rule:evenodd;clip-rule:evenodd;fill:#192A2E;"/>
	<clipPath id="SVGID_2_">
		<use xlink:href="#SVGID_1_"  style="overflow:visible;opacity:0.2;"/>
	</clipPath>
	<g class="st1">
		<defs>
			<rect id="SVGID_3_" x="2.7" y="15" width="95.5" height="71.7"/>
		</defs>
		<use xlink:href="#SVGID_3_"  style="overflow:visible;opacity:0.2;fill:#192A2E;"/>
		<clipPath id="SVGID_4_">
			<use xlink:href="#SVGID_3_"  style="overflow:visible;opacity:0.2;"/>
		</clipPath>
		<rect x="9.9" y="15.8" class="st2" width="100.3" height="81.2"/>
	</g>
</g>
<g>
	<path class="st3" d="M85.4,43l-4.2-2l-17.4,7.1l-13-19.4l-7.4,0.7c0,0-11.7,19.1-12.9,18.9S11.2,41,11.2,41l-3,2.2l10.8,26l0.5,7.2
		l55.6,0.3C75.1,69.2,85.4,43,85.4,43z"/>
	<circle class="st3" cx="86" cy="38.2" r="2.2"/>
	<circle class="st3" cx="8.8" cy="38.3" r="2.7"/>
	<circle class="st3" cx="46.8" cy="22.7" r="4.8"/>
</g>
<g>
	<defs>
		<path id="SVGID_5_" d="M21.6,71h51.5v3.9H21.6V71z M47.3,52.6c1.7,0,3,1.3,3,2.9c0,1.6-1.3,2.9-3,2.9c-1.7,0-3-1.3-3-2.9
			C44.3,53.9,45.6,52.6,47.3,52.6z M47.3,48.8c-3.8,0-6.9,3-6.9,6.8s3.1,6.8,6.9,6.8c3.8,0,6.9-3,6.9-6.8S51.1,48.8,47.3,48.8z
			 M86,36.2c1.1,0,2,0.8,2,1.9c0,1.1-0.9,1.9-2,1.9c-1.1,0-2-0.8-2-1.9C84,37.1,84.8,36.2,86,36.2z M8.7,36.2c1.1,0,2,0.8,2,1.9
			c0,1.1-0.9,1.9-2,1.9s-2-0.8-2-1.9C6.7,37.1,7.6,36.2,8.7,36.2z M45,30.1c0.7,0.2,1.5,0.3,2.3,0.3c0.8,0,1.6-0.1,2.3-0.3
			l12.9,19.7c0.5,0.8,1.6,1.1,2.5,0.7l17.5-7.7c0.5,0.3,1,0.6,1.6,0.8L73.7,67.1H20.9L10.6,43.7c0.6-0.2,1.1-0.5,1.6-0.8l17.5,7.7
			c0.9,0.4,2,0,2.5-0.7L45,30.1z M47.3,18.9c2.2,0,4,1.7,4,3.9c0,2.2-1.7,3.9-4,3.9c-2.2,0-4-1.7-4-3.9
			C43.4,20.6,45.1,18.9,47.3,18.9z M47.3,15c-4.4,0-7.9,3.5-7.9,7.7c0,2.1,0.8,4,2.2,5.4L29.7,46.3l-15.3-6.7
			c0.1-0.5,0.2-0.9,0.2-1.4c0-3.2-2.7-5.8-5.9-5.8c-3.3,0-5.9,2.6-5.9,5.8c0,2.3,1.4,4.3,3.4,5.2l11.5,26.1v7.3c0,1,0.9,1.9,2,1.9
			h55.5c1,0,2-0.9,2-1.9v-7.3l11.5-26.1c2-0.9,3.4-2.9,3.4-5.2c0-3.2-2.7-5.8-5.9-5.8c-3.3,0-5.9,2.6-5.9,5.8c0,0.5,0.1,1,0.2,1.4
			l-15.3,6.7L53,28.1c1.4-1.4,2.2-3.3,2.2-5.4C55.2,18.5,51.7,15,47.3,15L47.3,15z"/>
	</defs>
	<use xlink:href="#SVGID_5_"  style="overflow:visible;fill-rule:evenodd;clip-rule:evenodd;fill:#C5D84C;"/>
	<clipPath id="SVGID_6_">
		<use xlink:href="#SVGID_5_"  style="overflow:visible;"/>
	</clipPath>
	<g class="st4">
		<defs>
			<rect id="SVGID_7_" x="2.7" y="15" width="95.5" height="71.7"/>
		</defs>
		<use xlink:href="#SVGID_7_"  style="overflow:visible;fill:#FFFFFF;"/>
		<clipPath id="SVGID_8_">
			<use xlink:href="#SVGID_7_"  style="overflow:visible;"/>
		</clipPath>
		<rect x="-9.2" y="3.1" class="st5" width="113.1" height="87.6"/>
	</g>
</g>
</svg>
