<?xml version="1.0" encoding="UTF-8"?>
<svg width="50px" height="34px" viewBox="0 0 50 34" version="1.1" xmlns="http://www.w3.org/2000/svg" xmlns:xlink="http://www.w3.org/1999/xlink">
    <!-- Generator: Sketch 53 (72520) - https://sketchapp.com -->
    <title>license-back</title>
    <desc>Created with Sketch.</desc>
    <g id="V2-KYC" stroke="none" stroke-width="1" fill="none" fill-rule="evenodd">
        <g id="KYC-step3-3" transform="translate(-679.000000, -505.000000)" fill="#B2CAEB">
            <g id="Group-3" transform="translate(579.000000, 472.500000)">
                <g id="Group-12">
                    <g id="license-back" transform="translate(100.000000, 33.000000)">
                        <path d="M44.790999,33.332 L5.20699905,33.332 C2.33785005,33.332 0,30.99605 0,28.125 L0,5.209 C0,2.33595 2.33790005,0 5.20899905,0 L44.792999,0 C47.662149,0 49.999999,2.33595 49.999999,5.207 L49.999999,28.123 C49.999999,30.99605 47.662099,33.332 44.790999,33.332 Z M5.20899905,2.082 C3.48634855,2.082 2.08399855,3.48435 2.08399855,5.207 L2.08399855,28.123 C2.08399855,29.8476 3.48634855,31.24995 5.20899905,31.24995 L44.792999,31.24995 C46.515649,31.24995 47.917999,29.8476 47.917999,28.12495 L47.917999,5.20895 C47.916044,3.48435 46.513699,2.082 44.791049,2.082 L5.20899905,2.082 Z" id="Fill-1"></path>
                        <path d="M48.959,14.916 L1.0429995,14.916 C0.46684925,14.916 4.9233435e-05,14.449205 4.9233435e-05,13.875 L4.9233435e-05,7.625 C4.9233435e-05,7.0508 0.46684425,6.584 1.041049,6.584 L48.95705,6.584 C49.5332,6.584 50,7.050795 50,7.625 L50,13.875 C50,14.4492 49.533205,14.916 48.959,14.916 Z M2.0839995,12.83395 L47.918,12.83395 L47.916045,8.666 L2.0839995,8.666 L2.0839995,12.83395 Z" id="Fill-2"></path>
                        <path d="M15.625,23.25 L7.291,23.25 C6.7168,23.25 6.25,22.783205 6.25,22.209 C6.25,21.63285 6.716795,21.16605 7.291,21.16605 L15.625,21.16605 C16.1992,21.16605 16.666,21.632845 16.666,22.209 C16.666,22.7832 16.199205,23.25 15.625,23.25 Z" id="Fill-3"></path>
                        <path d="M21.875,27.416 L7.291,27.416 C6.7168,27.416 6.25,26.949205 6.25,26.375 C6.25,25.800795 6.716795,25.334 7.291,25.334 L21.875,25.334 C22.4492,25.334 22.916,25.800795 22.916,26.375 C22.916,26.949205 22.449205,27.416 21.875,27.416 Z" id="Fill-4"></path>
                    </g>
                </g>
            </g>
        </g>
    </g>
</svg>