<?xml version="1.0" encoding="utf-8"?>
<!-- Generator: Adobe Illustrator 23.0.2, SVG Export Plug-In . SVG Version: 6.00 Build 0)  -->
<svg version="1.1" id="Layer_1" xmlns="http://www.w3.org/2000/svg" xmlns:xlink="http://www.w3.org/1999/xlink" x="0px" y="0px"
	 viewBox="0 0 70 50" style="enable-background:new 0 0 70 50;" xml:space="preserve">
<style type="text/css">
	.st0{opacity:0.2;}
	.st1{clip-path:url(#SVGID_2_);}
	.st2{clip-path:url(#SVGID_4_);enable-background:new    ;}
	.st3{clip-path:url(#SVGID_6_);}
	.st4{clip-path:url(#SVGID_8_);fill:#192A2E;}
	.st5{clip-path:url(#SVGID_10_);}
	.st6{clip-path:url(#SVGID_12_);enable-background:new    ;}
	.st7{clip-path:url(#SVGID_14_);}
	.st8{clip-path:url(#SVGID_16_);fill:#192A2E;}
	.st9{clip-path:url(#SVGID_18_);}
	.st10{clip-path:url(#SVGID_20_);fill:#40a9ff;}
	.st11{clip-path:url(#SVGID_22_);}
	.st12{clip-path:url(#SVGID_24_);fill:#FFFFFF;}
	.st13{clip-path:url(#SVGID_26_);}
	.st14{clip-path:url(#SVGID_28_);fill:#FFFFFF;}
	.st15{clip-path:url(#SVGID_30_);}
	.st16{clip-path:url(#SVGID_32_);fill:#00B38E;}
	.st17{clip-path:url(#SVGID_34_);}
	.st18{clip-path:url(#SVGID_36_);fill:#FFFFFF;}
	.st19{clip-path:url(#SVGID_38_);}
	.st20{clip-path:url(#SVGID_40_);fill:#FFFFFF;}
</style>
<g class="st0">
	<g>
		<defs>
			<circle id="SVGID_1_" cx="26.1" cy="31" r="18.4"/>
		</defs>
		<use xlink:href="#SVGID_1_"  style="overflow:visible;fill-rule:evenodd;clip-rule:evenodd;fill:#192A2E;"/>
		<clipPath id="SVGID_2_">
			<use xlink:href="#SVGID_1_"  style="overflow:visible;"/>
		</clipPath>
		<g class="st1">
			<defs>
				<rect id="SVGID_3_" x="-243" y="-199.4" width="331.7" height="331.7"/>
			</defs>
			<use xlink:href="#SVGID_3_"  style="overflow:visible;fill:#192A2E;"/>
			<clipPath id="SVGID_4_">
				<use xlink:href="#SVGID_3_"  style="overflow:visible;"/>
			</clipPath>
			<g class="st2">
				<g>
					<defs>
						<rect id="SVGID_5_" x="6.2" y="11" width="39.9" height="39.9"/>
					</defs>
					<use xlink:href="#SVGID_5_"  style="overflow:visible;fill:#192A2E;"/>
					<clipPath id="SVGID_6_">
						<use xlink:href="#SVGID_5_"  style="overflow:visible;"/>
					</clipPath>
					<g class="st3">
						<defs>
							<rect id="SVGID_7_" x="7.7" y="12.6" width="36.9" height="36.9"/>
						</defs>
						<use xlink:href="#SVGID_7_"  style="overflow:visible;fill:#192A2E;"/>
						<clipPath id="SVGID_8_">
							<use xlink:href="#SVGID_7_"  style="overflow:visible;"/>
						</clipPath>
						<rect x="6.2" y="11" class="st4" width="39.9" height="39.9"/>
					</g>
				</g>
			</g>
		</g>
	</g>
	<g>
		<defs>
			<circle id="SVGID_9_" cx="50.6" cy="31" r="18.4"/>
		</defs>
		<use xlink:href="#SVGID_9_"  style="overflow:visible;fill-rule:evenodd;clip-rule:evenodd;fill:#192A2E;"/>
		<clipPath id="SVGID_10_">
			<use xlink:href="#SVGID_9_"  style="overflow:visible;"/>
		</clipPath>
		<g class="st5">
			<defs>
				<rect id="SVGID_11_" x="-218.5" y="-199.4" width="331.7" height="331.7"/>
			</defs>
			<use xlink:href="#SVGID_11_"  style="overflow:visible;fill:#192A2E;"/>
			<clipPath id="SVGID_12_">
				<use xlink:href="#SVGID_11_"  style="overflow:visible;"/>
			</clipPath>
			<g class="st6">
				<g>
					<defs>
						<rect id="SVGID_13_" x="30.6" y="11" width="39.9" height="39.9"/>
					</defs>
					<use xlink:href="#SVGID_13_"  style="overflow:visible;fill:#192A2E;"/>
					<clipPath id="SVGID_14_">
						<use xlink:href="#SVGID_13_"  style="overflow:visible;"/>
					</clipPath>
					<g class="st7">
						<defs>
							<rect id="SVGID_15_" x="32.1" y="12.6" width="36.9" height="36.9"/>
						</defs>
						<use xlink:href="#SVGID_15_"  style="overflow:visible;fill:#192A2E;"/>
						<clipPath id="SVGID_16_">
							<use xlink:href="#SVGID_15_"  style="overflow:visible;"/>
						</clipPath>
						<rect x="30.6" y="11" class="st8" width="39.9" height="39.9"/>
					</g>
				</g>
			</g>
		</g>
	</g>
</g>
<g>
	<g>
		<defs>
			<circle id="SVGID_17_" cx="20.6" cy="21.2" r="16.8"/>
		</defs>
		<clipPath id="SVGID_18_">
			<use xlink:href="#SVGID_17_"  style="overflow:visible;"/>
		</clipPath>
		<g class="st9">
			<defs>
				<rect id="SVGID_19_" x="-557.2" y="-483.7" width="726.6" height="726.6"/>
			</defs>
			<clipPath id="SVGID_20_">
				<use xlink:href="#SVGID_19_"  style="overflow:visible;"/>
			</clipPath>
			<rect x="0.4" y="1" class="st10" width="40.4" height="40.4"/>
		</g>
	</g>
	<g>
		<defs>
			<path id="SVGID_21_" d="M20.6,38c9.3,0,16.8-7.5,16.8-16.8S29.9,4.3,20.6,4.3S3.8,11.9,3.8,21.2S11.3,38,20.6,38z M20.4,40.3
				C9.7,40.3,1,31.7,1,21S9.7,1.6,20.4,1.6S39.8,10.2,39.8,21S31.1,40.3,20.4,40.3z"/>
		</defs>
		<clipPath id="SVGID_22_">
			<use xlink:href="#SVGID_21_"  style="overflow:visible;"/>
		</clipPath>
		<g class="st11">
			<defs>
				<rect id="SVGID_23_" x="-557.2" y="-483.7" width="726.6" height="726.6"/>
			</defs>
			<clipPath id="SVGID_24_">
				<use xlink:href="#SVGID_23_"  style="overflow:visible;"/>
			</clipPath>
			<rect x="-2.4" y="-1.8" class="st12" width="45.5" height="45.5"/>
		</g>
	</g>
	<g>
		<defs>
			<path id="SVGID_25_" d="M22.5,9.9c-2.3,0-4.4,1.1-5.7,2.8h0c-0.6,0.9-1.1,1.9-1.3,3c-3.3,0.6-5.8,3.5-5.8,7v2.8
				c0,0.4,0.1,0.8,0.2,1.2c0.5,1.7,2.2,3,4.1,3c2.3,0,4.3-1.9,4.3-4.3v-2.8c0-0.8-0.6-1.4-1.4-1.4c-0.8,0-1.4,0.6-1.4,1.4v2.8
				c0,0.8-0.6,1.4-1.4,1.4c-0.4,0-0.7-0.2-1-0.4c-0.3-0.3-0.4-0.6-0.4-1v-2.8c0-1.8,1.2-3.4,2.8-4c0.4-0.2,0.9-0.2,1.4-0.2
				c0.5,0,1,0.1,1.4,0.2c1.7,0.6,2.8,2.2,2.8,4v2.8c0,0.4,0.1,0.8,0.2,1.2c0.5,1.7,2.2,3,4.1,3c2.3,0,4.3-1.9,4.3-4.3V17
				C29.6,13.1,26.4,9.9,22.5,9.9z M26.4,25.5c0,0.8-0.6,1.4-1.4,1.4c-0.4,0-0.7-0.2-1-0.4c-0.3-0.3-0.4-0.6-0.4-1v-2.9
				c0-3.4-2.3-6.2-5.5-7c0.3-1,1-1.9,1.9-2.4c0.6-0.4,1.4-0.6,2.2-0.6c2.3,0,4.2,1.9,4.2,4.3V25.5z"/>
		</defs>
		<clipPath id="SVGID_26_">
			<use xlink:href="#SVGID_25_"  style="overflow:visible;"/>
		</clipPath>
		<g class="st13">
			<defs>
				<rect id="SVGID_27_" x="-557.2" y="-483.7" width="726.6" height="726.6"/>
			</defs>
			<clipPath id="SVGID_28_">
				<use xlink:href="#SVGID_27_"  style="overflow:visible;"/>
			</clipPath>
			<rect x="6.4" y="6.5" class="st14" width="26.6" height="26.6"/>
		</g>
	</g>
	<g>
		<defs>

				<ellipse id="SVGID_29_" transform="matrix(0.9871 -0.1602 0.1602 0.9871 -2.8229 7.3435)" cx="44.1" cy="21.2" rx="16.8" ry="16.8"/>
		</defs>
		<clipPath id="SVGID_30_">
			<use xlink:href="#SVGID_29_"  style="overflow:visible;"/>
		</clipPath>
		<g class="st15">
			<defs>
				<rect id="SVGID_31_" x="-557.2" y="-483.7" width="726.6" height="726.6"/>
			</defs>
			<clipPath id="SVGID_32_">
				<use xlink:href="#SVGID_31_"  style="overflow:visible;"/>
			</clipPath>
			<rect x="23.9" y="1" class="st16" width="40.4" height="40.4"/>
		</g>
	</g>
	<g>
		<defs>
			<path id="SVGID_33_" d="M44.1,38C53.4,38,61,30.5,61,21.2S53.4,4.3,44.1,4.3s-16.8,7.5-16.8,16.8S34.8,38,44.1,38z M43.9,40.3
				c-10.7,0-19.4-8.7-19.4-19.4S33.2,1.6,43.9,1.6S63.3,10.2,63.3,21S54.6,40.3,43.9,40.3z"/>
		</defs>
		<clipPath id="SVGID_34_">
			<use xlink:href="#SVGID_33_"  style="overflow:visible;"/>
		</clipPath>
		<g class="st17">
			<defs>
				<rect id="SVGID_35_" x="-557.2" y="-483.7" width="726.6" height="726.6"/>
			</defs>
			<clipPath id="SVGID_36_">
				<use xlink:href="#SVGID_35_"  style="overflow:visible;"/>
			</clipPath>
			<rect x="21.2" y="-1.8" class="st18" width="45.5" height="45.5"/>
		</g>
	</g>
	<g>
		<defs>
			<path id="SVGID_37_" d="M43.1,31.7h2.1c0.2,0,0.4-0.2,0.4-0.4v-2.1c2.2-0.4,4-2.1,4.3-4.4c0.3-3-2-5.4-4.9-5.4h-1.6
				c-1.2,0-2.2-1-2.1-2.3c0.1-1.1,1.1-1.8,2.2-1.8h1.8c0.7,0,1.3,0.5,1.4,1.1c0,0.2,0.2,0.3,0.4,0.3h2.1c0.2,0,0.4-0.2,0.4-0.4
				c-0.2-2.1-1.9-3.7-4-3.9v-2.1c0-0.2-0.2-0.4-0.4-0.4h-2.1c-0.2,0-0.4,0.2-0.4,0.4v2.1c-2.6,0.4-4.5,2.7-4.3,5.4
				c0.3,2.6,2.6,4.4,5.2,4.4h1.3c1.2,0,2.2,1,2.1,2.3c-0.1,1.1-1.1,1.8-2.2,1.8h-1.9c-0.7,0-1.3-0.5-1.4-1.1c0-0.2-0.2-0.3-0.4-0.3
				H39c-0.2,0-0.4,0.2-0.4,0.4c0.2,2.1,1.9,3.7,4,3.9v2.1C42.7,31.5,42.8,31.7,43.1,31.7L43.1,31.7z"/>
		</defs>
		<clipPath id="SVGID_38_">
			<use xlink:href="#SVGID_37_"  style="overflow:visible;"/>
		</clipPath>
		<g class="st19">
			<defs>
				<rect id="SVGID_39_" x="-557.2" y="-483.7" width="726.6" height="726.6"/>
			</defs>
			<clipPath id="SVGID_40_">
				<use xlink:href="#SVGID_39_"  style="overflow:visible;"/>
			</clipPath>
			<rect x="35" y="6.5" class="st20" width="18.2" height="28.5"/>
		</g>
	</g>
</g>
</svg>
