<?xml version="1.0" encoding="UTF-8"?>
<svg width="37px" height="37px" viewBox="0 0 37 37" version="1.1" xmlns="http://www.w3.org/2000/svg" xmlns:xlink="http://www.w3.org/1999/xlink">
    <!-- Generator: Sketch 50.2 (55047) - http://www.bohemiancoding.com/sketch -->
    <title>icon-failure</title>
    <desc>Created with Sketch.</desc>
    <defs></defs>
    <g id="Page-1" stroke="none" stroke-width="1" fill="none" fill-rule="evenodd">
        <g id="icon-failure">
            <g id="Group-8">
                <polygon id="Fill-2" fill="#FF4F4F" points="11.6481495 37 21.5830233 27.0632658 31.5197574 37 36.9993798 31.5203776 27.0626457 21.5836434 36.9993798 11.6487697 31.5197574 6.16914728 21.5830233 16.1015404 11.6481495 6.16666667 6.16852713 11.6462891 16.1034009 21.5830233 6.16666667 31.517897"></polygon>
                <path d="M6.57791173,37.0007442 L18.5,25.0764233 L30.4243209,37.0007442 L37,30.4250651 L25.0756791,18.5007442 L37,6.57865593 L30.4243209,0.00297680107 L18.5,11.9220883 L6.57791173,0 L0.0022326008,6.57567913 L11.9243209,18.5 L0,30.4220883 L6.57791173,37.0007442 Z M3.29003496,6.57858151 L6.57791173,3.29070474 L18.5,15.2098162 L30.4243209,3.28772794 L33.7121976,6.57560471 L21.7878768,18.4999256 L33.7121976,30.4242464 L30.4243209,33.7121232 L18.5,21.7878024 L6.57791173,33.7121232 L3.29003496,30.4242464 L15.2121232,18.4999256 L3.29003496,6.57858151 Z" id="Fill-2" fill="#000000"></path>
            </g>
        </g>
    </g>
</svg>