<?xml version="1.0" encoding="UTF-8"?>
<svg width="26px" height="27px" viewBox="0 0 26 27" version="1.1" xmlns="http://www.w3.org/2000/svg" xmlns:xlink="http://www.w3.org/1999/xlink">
    <!-- Generator: Sketch 52.5 (67469) - http://www.bohemiancoding.com/sketch -->
    <title>Icons/emoticon-frown</title>
    <desc>Created with Sketch.</desc>
    <g id="v2-Member-Page" stroke="none" stroke-width="1" fill="none" fill-rule="evenodd">
        <g id="Profile-Member-v2-rep-unverified-low" transform="translate(-1202.000000, -652.000000)">
            <g id="Group-55" transform="translate(502.000000, 490.000000)">
                <g id="Group-38">
                    <g id="Group-20">
                        <g id="Icons/emoticon-frown" transform="translate(700.000000, 162.000000)">
                            <g id="Group-40">
                                <circle id="Oval" fill="#FF6E6E" fill-rule="nonzero" cx="14" cy="15" r="12"></circle>
                                <path d="M12.3448454,24.6896899 C5.54123711,24.6896899 5.34683409e-13,19.1484536 5.34683409e-13,12.3448454 C5.34683409e-13,5.54123711 5.54123711,1.24344979e-14 12.3448454,1.24344979e-14 C19.1484536,1.24344979e-14 24.6896907,5.54123711 24.6896907,12.3448454 C24.6896907,19.1484536 19.1484536,24.6896899 12.3448454,24.6896899 Z M12.3448454,1.0296366 C6.10798969,1.0296366 1.02989639,6.10772938 1.02989639,12.3445876 C1.02989639,18.5814433 6.10695876,23.6585036 12.3438144,23.6585036 C18.5806701,23.6585036 23.657732,18.5814407 23.657732,12.3445876 C23.6587371,6.10773196 18.581701,1.0296366 12.3445876,1.0296366 L12.3448454,1.0296366 Z" id="Fill-1" fill="#192A2E"></path>
                                <path d="M11.9024704,18.144893 C9.68556314,18.144893 7.59860438,17.320357 6.15478995,15.8766456 C5.94840335,15.670259 5.94840335,15.3611817 6.15478995,15.1547899 C6.36117655,14.9484034 6.67025387,14.9484034 6.87664562,15.1547899 C8.11396521,16.3921095 9.94314046,17.1139652 11.9024188,17.1139652 C13.8615941,17.1139652 15.6658209,16.3921095 16.928192,15.1547899 C17.1345786,14.9484034 17.4436559,14.9484034 17.6500477,15.1547899 C17.8564343,15.3611765 17.8564343,15.6702539 17.6500477,15.8766456 C16.2063363,17.320357 14.1183466,18.144893 11.9023673,18.144893 L11.9024704,18.144893 Z" id="Fill-2" fill="#192A2E" transform="translate(11.902419, 16.572447) rotate(180.000000) translate(-11.902419, -16.572447) "></path>
                                <path d="M18.2656665,12.8699835 C17.5522096,12.1565265 16.8607131,11.8323065 16.1903126,11.8753629 C15.2396131,11.9614844 14.612269,12.8049665 14.612269,12.8049665 C14.4822438,12.9991613 14.2019361,13.0430737 14.0068854,12.9130399 C13.8126905,12.7830147 13.7687782,12.502707 13.898812,12.3076563 C13.9418728,12.2645955 14.7414382,11.1188495 16.103292,11.0107762 C17.0328956,10.9246547 17.9624992,11.3569567 18.8701855,12.2426393 C19.0432715,12.4157253 19.0432715,12.6749327 18.8701855,12.8480229 C18.7840641,12.9569414 18.6759907,13 18.567926,13 C18.4598527,13.0000086 18.3517794,12.9569479 18.2656665,12.8699835 Z" id="Fill-3" fill="#192A2E" transform="translate(16.412311, 12.000004) rotate(180.000000) translate(-16.412311, -12.000004) "></path>
                                <path d="M9.55460243,12.9780177 C9.42316106,12.9780177 9.2925762,12.912297 9.20465146,12.8030466 C9.18246051,12.7808557 8.57134858,11.9290432 7.60942041,11.8633181 C6.93171816,11.8197884 6.23269022,12.147544 5.5114626,12.8687717 C5.33649148,13.0437428 5.07446089,13.0437428 4.8994854,12.8687717 C4.72451429,12.6938005 4.72451429,12.43177 4.8994854,12.2567945 C5.81701419,11.3392657 6.75674267,10.9235896 7.69651485,11.0115144 C9.07324504,11.1207648 9.9038105,12.2789942 9.92500508,12.3225195 C10.0564465,12.5188294 10.0120646,12.7817209 9.81575465,12.9344967 C9.72954951,12.9558355 9.64163569,12.9780265 9.55458058,12.9780265 L9.55460243,12.9780177 Z" id="Fill-4" fill="#192A2E" transform="translate(7.384129, 12.000000) rotate(180.000000) translate(-7.384129, -12.000000) "></path>
                            </g>
                        </g>
                    </g>
                </g>
            </g>
        </g>
    </g>
</svg>