<?xml version="1.0" encoding="UTF-8"?>
<svg width="50px" height="35px" viewBox="0 0 50 35" version="1.1" xmlns="http://www.w3.org/2000/svg" xmlns:xlink="http://www.w3.org/1999/xlink">
    <!-- Generator: Sketch 53 (72520) - https://sketchapp.com -->
    <title>Fill 1</title>
    <desc>Created with Sketch.</desc>
    <g id="V2-KYC" stroke="none" stroke-width="1" fill="none" fill-rule="evenodd">
        <g id="KYC-step3-3" transform="translate(-404.000000, -505.000000)" fill="#B2CAEB">
            <g id="Group-9" transform="translate(304.000000, 472.500000)">
                <path d="M104.027246,33.00001 L145.976735,33.00001 C147.078245,33.00001 148.084059,33.4550736 148.824282,34.1777176 L148.861391,34.2343555 C149.564466,34.9550296 150,35.943294 150,37.025255 L150,62.8408253 C150,63.9423356 149.544936,64.9481494 148.822292,65.6883728 C148.082069,66.4285961 147.076255,66.8836297 145.974745,66.8836297 L104.025255,66.8836297 C102.923745,66.8836297 101.917931,66.4285661 101.177708,65.6883728 C100.457033,64.9676987 100,63.9618849 100,62.8408253 L100,37.025255 C100,35.9237447 100.455064,34.9179309 101.177708,34.1777076 C101.917931,33.4570335 102.923744,33 104.025255,33 L104.027246,33.00001 Z M129.045845,60.8270078 C128.590781,60.8270078 128.229474,60.4656909 128.229474,60.0106372 C128.229474,59.573153 128.590791,59.2137659 129.045845,59.2137659 L135.082627,59.2137659 C135.537691,59.2137659 135.898998,59.5750829 135.898998,60.0106372 C135.898998,60.4657009 135.537681,60.8270078 135.082627,60.8270078 L129.045845,60.8270078 Z M129.045845,54.1067499 C128.590781,54.1067499 128.229474,53.7454329 128.229474,53.2903793 C128.229474,52.852895 128.590791,52.493508 129.045845,52.493508 L141.137409,52.493508 C141.574893,52.493508 141.93428,52.854825 141.93428,53.2903793 C141.93428,53.7454429 141.572963,54.1067499 141.137409,54.1067499 L129.045845,54.1067499 Z M129.045845,47.3864919 C128.590781,47.3864919 128.229474,47.0251749 128.229474,46.5701213 C128.229474,46.132637 128.590791,45.77325 129.045845,45.77325 L141.137409,45.77325 C141.574893,45.77325 141.93428,46.134567 141.93428,46.5701213 C141.93428,47.0251849 141.572963,47.3864919 141.137409,47.3864919 L129.045845,47.3864919 Z M129.045845,40.6662339 C128.590781,40.6662339 128.229474,40.3049169 128.229474,39.8498633 C128.229474,39.4123791 128.590791,39.052992 129.045845,39.052992 L141.137409,39.052992 C141.574893,39.052992 141.93428,39.414309 141.93428,39.8498633 C141.93428,40.3049269 141.572963,40.6662339 141.137409,40.6662339 L129.045845,40.6662339 Z M122.136093,59.212566 C121.946645,57.5427261 121.186928,56.0232308 120.048269,54.8846218 C118.737766,53.574119 116.915581,52.7577484 114.923453,52.7577484 C112.929375,52.7577484 111.107191,53.574119 109.798638,54.8846218 C108.660029,56.0232308 107.900256,57.5427261 107.710813,59.212566 L122.136093,59.212566 Z M107.671614,54.9217205 C107.956759,54.5037656 108.298542,54.1053499 108.657929,53.7440129 C109.569996,52.8514451 110.652007,52.130771 111.884363,51.6757374 C111.751557,51.5800359 111.618747,51.4667599 111.505471,51.3339547 L111.448833,51.2968461 C110.612913,50.4238275 110.081683,49.2285705 110.081683,47.9180677 C110.081683,46.5900156 110.632463,45.3752093 111.505481,44.5021908 C112.3785,43.6291722 113.593306,43.078392 114.921358,43.078392 C116.24941,43.078392 117.464217,43.6291722 118.337235,44.5021908 C119.210254,45.3752093 119.761034,46.5900156 119.761034,47.9180677 C119.761034,49.2461199 119.210254,50.4609262 118.337235,51.3339447 C118.223959,51.4667499 118.091149,51.5800309 117.958344,51.6757274 C119.192699,52.130791 120.29226,52.853435 121.184778,53.7440029 C121.546095,54.1053199 121.887852,54.5037256 122.171092,54.9217205 L122.171092,40.6662239 L107.669614,40.6662239 L107.669614,54.9217205 L107.671614,54.9217205 Z M117.200771,45.6390548 C116.630492,45.051176 115.816071,44.689889 114.923503,44.689889 C114.030935,44.689889 113.234114,45.051206 112.646235,45.6390548 C112.058356,46.2269336 111.697069,47.023755 111.697069,47.9163228 C111.697069,48.7893414 112.038852,49.5861627 112.609137,50.1564921 L112.646245,50.1936008 C113.234124,50.7814796 114.030945,51.1427666 114.923513,51.1427666 C115.816081,51.1427666 116.632452,50.7814496 117.200781,50.1936008 C117.78866,49.6233213 118.149947,48.8089007 118.149947,47.9163328 C118.149947,47.0237649 117.78863,46.2269436 117.200781,45.6390648 L117.200771,45.6390548 Z M106.855644,39.0512921 L122.990063,39.0512921 C123.427547,39.0512921 123.786934,39.4126091 123.786934,39.8481634 L123.786934,60.0074374 C123.786934,60.462501 123.425617,60.823808 122.990063,60.823808 L106.855644,60.823808 C106.41816,60.823808 106.058772,60.462491 106.058772,60.0074374 L106.058772,39.8481634 C106.058772,39.4106791 106.420089,39.0512921 106.855644,39.0512921 Z M145.977235,34.610052 L104.027747,34.610052 C103.363721,34.610052 102.775842,34.8756674 102.318809,35.3131267 C101.881324,35.7681903 101.615734,36.3579891 101.615734,37.0220651 L101.615734,62.8376354 C101.615734,63.5016615 101.881349,64.1090896 102.318809,64.5465739 C102.756268,64.9840581 103.363671,65.2672479 104.027747,65.2672479 L145.977235,65.2672479 C146.641261,65.2672479 147.248689,64.9821032 147.686173,64.5465739 C148.123658,64.1090896 148.389248,63.5017115 148.389248,62.8376354 L148.389248,37.0220651 C148.389248,36.3775384 148.143162,35.7877096 147.725222,35.3522253 L147.688118,35.3151166 C147.250634,34.8776324 146.643256,34.6120419 145.97918,34.6120419 L145.977235,34.610052 Z" id="Fill-1"></path>
            </g>
        </g>
    </g>
</svg>