<?xml version="1.0" encoding="UTF-8"?>
<svg width="58px" height="60px" viewBox="0 0 58 60" version="1.1" xmlns="http://www.w3.org/2000/svg" xmlns:xlink="http://www.w3.org/1999/xlink">
    <!-- Generator: Sketch 50.2 (55047) - http://www.bohemiancoding.com/sketch -->
    <title>icon-edit</title>
    <desc>Created with Sketch.</desc>
    <defs></defs>
    <g id="Page-1" stroke="none" stroke-width="1" fill="none" fill-rule="evenodd">
        <g id="icon-edit">
            <g id="Group-43">
                <g id="Group-41">
                    <rect id="Rectangle-16" fill="#C5D83F" x="8.28038585" y="10.8957055" width="49.6823151" height="49.0306748" rx="18.5"></rect>
                    <g id="Group-40-Copy-3" fill="#000000">
                        <path d="M48.9842096,45.9108428 C48.9842096,48.4113391 46.9248776,50.5180919 44.3939087,50.5180919 L7.65245659,50.5180919 C5.11872752,50.5180919 3.06215569,48.4086152 3.06215569,45.9108428 L3.05946457,9.65129678 C3.05946457,7.15080046 5.11879653,5.19297837 7.64976547,5.19297837 L29.0814741,5.19297837 L29.0841653,2.17377837 L7.65245659,2.17377837 C3.4313919,2.17377837 0,5.48825199 0,9.65368021 L0,45.9105023 C0,50.0762029 3.43401402,53.5368152 7.65245659,53.5368152 L44.3911486,53.5368152 C48.6122132,53.5368152 52.0436051,50.0734109 52.0436051,45.9105023 L52.0436051,24.8348029 L48.9815875,24.8348029 L48.9815875,45.9105023 L48.9842096,45.9108428 Z" id="Fill-1"></path>
                        <path d="M52.4343704,1.71377531 C50.1216586,-0.571258436 46.0893177,-0.571258436 43.7737768,1.71377531 L23.2370398,21.9811495 C23.0402702,22.1753383 22.9001109,22.4174 22.8354204,22.6807219 L20.6736877,31.2277219 C20.5443066,31.7411208 20.6979492,32.286444 21.0753071,32.6641845 C21.3664178,32.951477 21.7572521,33.1057602 22.1561734,33.1057602 C22.2801653,33.1057602 22.4041572,33.0924606 22.5281422,33.0605362 L31.1887357,30.9245013 C31.4582761,30.8580034 31.7035618,30.7196756 31.8976058,30.5281495 L52.4343428,10.2607753 C53.5906986,9.11958635 54.2295304,7.60338083 54.2295304,5.98870537 C54.2295304,4.37137408 53.5934036,2.85510046 52.4343428,1.7139796 L52.4343704,1.71377531 Z M30.0352366,28.0936403 L24.2615995,29.5167557 L25.7036287,23.8188465 L42.6929104,7.05239862 L47.0217581,11.3244686 L30.0352366,28.0936403 Z M50.2697395,8.12181212 L49.1888731,9.18850169 L44.8600254,4.91643175 L45.9408918,3.84974218 C47.0972477,2.70855322 49.1161437,2.70855322 50.2697395,3.84974218 C50.846565,4.41900193 51.1673333,5.1771115 51.1673333,5.98577715 C51.1673333,6.79444279 50.8465788,7.54992377 50.2697395,8.12181212 Z" id="Fill-2"></path>
                    </g>
                </g>
            </g>
        </g>
    </g>
</svg>
