<?xml version="1.0" encoding="UTF-8"?>
<svg width="82px" height="73px" viewBox="0 0 82 73" version="1.1" xmlns="http://www.w3.org/2000/svg" xmlns:xlink="http://www.w3.org/1999/xlink">
    <!-- Generator: Sketch 50.2 (55047) - http://www.bohemiancoding.com/sketch -->
    <title>icon-review</title>
    <desc>Created with Sketch.</desc>
    <defs></defs>
    <g id="Page-1" stroke="none" stroke-width="1" fill="none" fill-rule="evenodd">
        <g id="icon-thumbs-up" transform="translate(1.666667, 2.000000)">
            <g id="Group-39">
                <g id="Group" transform="translate(5.333333, 10.524444)" fill="#CCDCF3">
                    <path d="M74.6666667,28.8606699 C74.6666667,25.8663444 72.0984264,23.5174715 68.8346443,23.5174715 L51.334097,23.5134593 C50.4021943,23.5134593 47.1339656,22.2307633 49.702206,18.5950898 C51.334097,15.8172834 51.334097,5.33919639 51.334097,5.33919639 C51.334097,2.34887289 48.7658567,0 45.5020746,0 C42.2338124,0 39.6656841,2.3489755 39.6656841,5.3431984 C39.6656841,20.9479647 23.3333333,25.6539197 23.3333333,25.6539197 L23.3333333,53.4442979 C30.8017269,55.7972754 32.6654652,59.8577778 42.0020772,59.8577778 L59.5026244,59.8577778 C62.7708867,59.8577778 65.3346468,57.5048003 65.3346468,54.5145794 C65.3346468,53.2318834 64.8665058,52.1616019 64.1664503,51.3078394 C67.4347125,51.3078394 69.9984727,48.9548619 69.9984727,45.964641 C69.9984727,44.681945 69.5303316,43.399249 68.5984289,42.3289675 C70.9303418,41.4751743 72.3303856,39.5511611 72.3303856,37.410598 C72.3303856,36.127902 71.8622446,34.8452061 70.9303418,33.7749245 C73.0347756,33.1335765 74.6666667,31.2095326 74.6666667,28.8605571 L74.6666667,28.8606699 Z" id="Fill-1"></path>
                    <path d="M11.662747,23.0222222 L0,23.0222222 L0,59.8577778 L11.6672266,59.8577778 C15.6350692,59.8577778 18.6666667,56.8229889 18.6666667,53.3576303 L18.6622878,29.5223697 C18.6622878,25.8375661 15.6306903,23.0222222 11.6628478,23.0222222 L11.662747,23.0222222 Z" id="Fill-2"></path>
                </g>
                <g id="Group-8" stroke="#192A2E" stroke-width="3.11111111">
                    <path d="M74.6666667,30.446421 C74.6666667,27.2875721 72.1762518,24.8096403 69.0113722,24.8096403 L52.0411446,24.8054076 C51.1374813,24.8054076 47.9682899,23.4522338 50.4587048,19.616798 C52.0411446,16.6863649 52.0411446,5.63255882 52.0411446,5.63255882 C52.0411446,2.47793184 49.5507297,0 46.3858501,0 C43.2166262,0 40.7263199,2.47804009 40.7263199,5.63678073 C40.7263199,22.0989517 24.8888889,27.0634757 24.8888889,27.0634757 L24.8888889,56.3807977 C32.1309675,58.8630597 33.9382289,63.1466667 42.9919132,63.1466667 L59.9621409,63.1466667 C63.1313648,63.1466667 65.6174353,60.6644047 65.6174353,57.5098859 C65.6174353,56.1567122 65.1634804,55.0276239 64.4846387,54.1269515 C67.6538626,54.1269515 70.1399331,51.6446895 70.1399331,48.4901707 C70.1399331,47.136997 69.6859782,45.7838232 68.7823149,44.654735 C71.0435638,43.75403 72.401182,41.7243018 72.401182,39.4661254 C72.401182,38.1129516 71.9472271,36.7597778 71.0435638,35.6306896 C73.0842269,34.9541027 74.6666667,32.924342 74.6666667,30.4463019 L74.6666667,30.446421 Z" id="Fill-1"></path>
                    <path d="M11.662747,24.055873 L0,24.055873 L0,63.1466667 L11.6672266,63.1466667 C15.6350692,63.1466667 18.6666667,59.9260744 18.6666667,56.248551 L18.6622878,30.9539887 C18.6622878,27.0435849 15.6306903,24.055873 11.6628478,24.055873 L11.662747,24.055873 Z" id="Fill-2"></path>
                </g>
            </g>
        </g>
    </g>
</svg>