<?xml version="1.0" encoding="UTF-8"?>
<svg width="50px" height="48px" viewBox="0 0 50 48" version="1.1" xmlns="http://www.w3.org/2000/svg" xmlns:xlink="http://www.w3.org/1999/xlink">
    <!-- Generator: Sketch 50.2 (55047) - http://www.bohemiancoding.com/sketch -->
    <title>Group 26</title>
    <desc>Created with Sketch.</desc>
    <defs></defs>
    <g id="v2-HQ" stroke="none" stroke-width="1" fill="none" fill-rule="evenodd">
        <g id="HQ-&gt;-Moderation-Center" transform="translate(-260.000000, -97.000000)">
            <g id="Group-26" transform="translate(260.000000, 97.000000)">
                <path d="M48.0611989,21.9700038 C47.4853153,21.9700038 47.0643885,21.7084007 46.8145938,21.4884729 C46.57638,21.2778024 46.2132867,21.2963228 45.9935692,21.527831 L37.8597001,30.1651626 C37.7324996,30.2994342 37.674678,30.4846384 37.7070584,30.6698426 L39.6891339,42.5875112 C39.7168901,42.7472491 39.8047712,42.8884666 39.9389167,42.9787573 C40.0730563,43.0690422 40.2372671,43.1037716 40.394533,43.0690422 C41.6665379,42.7935531 42.73043,43.7843749 42.73043,45.0113454 C42.73043,46.1063912 41.8607964,46.9976827 40.7946544,46.9976827 C39.7261442,46.9976827 38.8588789,46.1063912 38.8588789,45.0113454 C38.8588789,44.8654993 38.8796961,44.7150186 38.9213246,44.534443 C38.9837703,44.2728399 38.8635089,43.9996681 38.6276042,43.8723306 L27.7690251,38.0221889 C27.6811381,37.9758849 27.584003,37.9527359 27.4891769,37.9527359 C27.3943509,37.9527359 27.2972157,37.9758849 27.2093287,38.0221889 L16.6053402,43.6894377 C16.3509333,43.8237093 16.2329809,44.1223533 16.3208679,44.3955251 C16.3925618,44.6200874 16.4295662,44.823812 16.4295662,45.0136626 C16.4295662,46.1087085 15.5623009,47 14.4937906,47 C13.4252804,47 12.558015,46.1087085 12.558015,45.0136626 C12.558015,43.9209282 13.4206622,43.031948 14.5238678,43.031948 L14.535431,43.031948 C14.5724354,43.0365766 14.6071248,43.0412052 14.6441292,43.0435225 C14.9517278,43.0805633 15.2269519,42.856001 15.2778227,42.5527343 L17.3038298,30.6303245 C17.3339011,30.4474376 17.2783945,30.2622334 17.151188,30.1256445 L9.0658688,21.4788304 C8.84152724,21.2403822 8.46917982,21.2288018 8.23093052,21.4487295 C7.87013439,21.7844144 7.4099059,21.9696186 6.93577558,21.9696186 C5.86726535,21.9696186 5,21.0783271 5,19.9832812 C5,18.8882354 5.86726535,17.9969439 6.93577558,17.9969439 C7.82388182,17.9969439 8.59173848,18.6173928 8.80683781,19.506373 C8.87853167,19.805017 9.16762801,19.9994785 9.4729175,19.9531804 L20.9513947,18.1867767 C21.1433559,18.1566818 21.3098758,18.0339847 21.3931328,17.860355 L26.8975561,6.5305987 C27.0363257,6.24352921 26.9229974,5.89628169 26.6385251,5.74580698 C25.9839908,5.40318215 25.5769421,4.7271542 25.5769421,3.98633736 C25.5769421,2.89129155 26.4442075,2 27.5127177,2 C28.5812279,2 29.4484933,2.89129155 29.4484933,3.98633736 C29.4484933,4.70866341 29.0553227,5.37539856 28.4239147,5.72494557 C28.1486965,5.87773757 28.0423073,6.21805104 28.1787618,6.5004919 L33.6577261,17.8859577 C33.7409831,18.0619046 33.9075089,18.1846017 34.0994642,18.2146966 L45.5063008,20.0135184 C45.8092753,20.0575052 46.109917,19.8607264 46.1769987,19.5528252 C46.3712689,18.6522882 47.1645728,17.9994212 48.0642244,17.9994212 C49.1327346,17.9994212 50,18.8907127 50,19.9857585 C49.9976909,21.0808043 49.1303664,21.9697846 48.0619153,21.9697846 L48.0611989,21.9700038 Z" id="Fill-1" fill="#A6E7D9"></path>
                <path d="M44.8383927,16.2087418 C43.5587648,16.2087418 42.4103516,17.0134072 41.9252113,18.18413 L31.1868485,16.4902966 L25.9933399,5.70556935 C26.7339498,5.10029853 27.1769118,4.19005001 27.1769118,3.21409736 C27.1769118,1.4428484 25.7589895,0 24.0153405,0 C22.2716915,0 20.8537692,1.44044606 20.8537692,3.21409736 C20.8537692,4.21587522 21.3131225,5.14251974 22.0818592,5.74310599 L16.8719113,16.4647717 L6.04895193,18.1280953 C5.55210016,16.9761709 4.43183777,16.2090421 3.16156948,16.2090421 C1.41792047,16.2090421 0,17.6494881 0,19.4231394 C0,21.1943884 1.41792047,22.6372368 3.16156948,22.6372368 C3.74748163,22.6372368 4.31700244,22.4683219 4.81384222,22.153951 L12.4305321,30.3039064 L10.5134302,41.5859191 C8.91269534,41.7431045 7.65652648,43.1178945 7.65652648,44.7859026 C7.65652648,46.5571516 9.07444876,48 10.8180978,48 C12.5617468,48 13.9796691,46.5595539 13.9796691,44.7859026 C13.9796691,44.6216783 13.9656056,44.4527635 13.9351389,44.2838486 L23.9871296,38.916109 L34.3247088,44.4855855 C34.3129912,44.5888143 34.3083054,44.6873464 34.3083054,44.7858786 C34.3083054,46.5571276 35.7262277,47.999976 37.4698767,47.999976 C39.2135257,47.999976 40.631448,46.5595299 40.631448,44.7858786 C40.631448,43.0122273 39.2135257,41.5717813 37.4698767,41.5717813 L37.4394099,41.5717813 L35.5738459,30.3462237 L43.2541332,22.193866 C43.7369276,22.4824297 44.2829713,22.6372668 44.8384287,22.6372668 C46.5820777,22.6372668 48,21.1968207 48,19.4231694 C48,17.6495181 46.5820777,16.2090721 44.8384287,16.2090721 L44.8383927,16.2087418 Z M44.8383927,21.4333616 C44.2548205,21.4333616 43.8282738,21.1682569 43.5751441,20.9453853 C43.33375,20.7318949 42.965809,20.7506632 42.743158,20.9852702 L34.5006936,29.7382142 C34.3717948,29.874283 34.3132012,30.0619662 34.3460139,30.2496494 L36.3545521,42.3268383 C36.382679,42.4887143 36.4717333,42.631822 36.6076698,42.7233213 C36.7436003,42.8148146 36.9100035,42.850009 37.069369,42.8148146 C38.3583565,42.5356381 39.4364526,43.5397222 39.4364526,44.7831159 C39.4364526,45.8928191 38.5552085,46.7960408 37.4748325,46.7960408 C36.3920566,46.7960408 35.5132124,45.8928191 35.5132124,44.7831159 C35.5132124,44.6353176 35.5343075,44.4828228 35.5764918,44.2998302 C35.6397712,44.0347254 35.5179042,43.7578972 35.2788499,43.6288552 L24.2752979,37.7004083 C24.1862375,37.6534845 24.0878055,37.6300256 23.9917134,37.6300256 C23.8956213,37.6300256 23.7971894,37.6534845 23.708129,37.7004083 L12.9625665,43.4435143 C12.704763,43.5795831 12.5852358,43.8822245 12.6742962,44.1590528 C12.7469472,44.3866209 12.7844457,44.5930724 12.7844457,44.7854642 C12.7844457,45.8951674 11.9056015,46.7983891 10.8228256,46.7983891 C9.74004966,46.7983891 8.86120544,45.8951674 8.86120544,44.7854642 C8.86120544,43.6781033 9.73536985,42.7772239 10.8533043,42.7772239 L10.8650219,42.7772239 C10.9025203,42.7819145 10.9376729,42.7866051 10.9751714,42.7889534 C11.2868767,42.82649 11.5657753,42.5989219 11.6173252,42.2915959 L13.6703816,30.2096023 C13.7008544,30.0242674 13.6446067,29.8365842 13.5157019,29.6981671 L5.32243551,20.9356138 C5.09509877,20.6939739 4.71778013,20.6822385 4.47634996,20.90511 C4.11073684,21.2452881 3.64436383,21.4329713 3.16390339,21.4329713 C2.08112747,21.4329713 1.20228325,20.5297496 1.20228325,19.4200464 C1.20228325,18.3103432 2.08112747,17.4071215 3.16390339,17.4071215 C4.06386675,17.4071215 4.84197507,18.0358753 5.0599462,18.9367546 C5.13259724,19.2393961 5.42555331,19.4364604 5.73491872,19.3895426 L17.3666452,17.5994953 C17.5611692,17.5689975 17.7299124,17.4446582 17.8142809,17.2687044 L23.3921938,5.78729713 C23.5328161,5.49638516 23.4179748,5.14448966 23.1297045,4.99200082 C22.4664315,4.6447899 22.0539483,3.95971318 22.0539483,3.20898037 C22.0539483,2.09927716 22.9327925,1.1960555 24.0155685,1.1960555 C25.0983444,1.1960555 25.9771886,2.09927716 25.9771886,3.20898037 C25.9771886,3.94097488 25.5787688,4.61663441 24.9389309,4.97086018 C24.6600382,5.12569732 24.5522286,5.47056596 24.690505,5.75678734 L30.2426189,17.2946497 C30.3269875,17.4729518 30.4957366,17.5972912 30.6902547,17.6277889 L42.2493841,19.4506883 C42.5564036,19.4952638 42.8610592,19.2958512 42.9290365,18.9838286 C43.1259004,18.0712378 43.9297957,17.409632 44.8414586,17.409632 C45.9242345,17.409632 46.8030787,18.3128536 46.8030787,19.4225568 C46.8007388,20.5322601 45.9218346,21.4331394 44.8391187,21.4331394 L44.8383927,21.4333616 Z" id="Fill-1" fill="#000000"></path>
            </g>
        </g>
    </g>
</svg>