<?xml version="1.0" encoding="UTF-8"?>
<svg width="47px" height="47px" viewBox="0 0 47 47" version="1.1" xmlns="http://www.w3.org/2000/svg" xmlns:xlink="http://www.w3.org/1999/xlink">
    <!-- Generator: Sketch 53.2 (72643) - https://sketchapp.com -->
    <title>Group 72</title>
    <desc>Created with Sketch.</desc>
    <g id="v2-Stream" stroke="none" stroke-width="1" fill="none" fill-rule="evenodd">
        <g id="Group-72">
            <g id="Group-3">
                <g id="Group-71" transform="translate(0.484658, 0.000000)">
                    <path d="M32.760703,2.20268248e-13 L13.570891,2.20268248e-13 L-7.10542736e-14,13.5708914 L-7.10542736e-14,32.762644 L13.570891,46.3315939 L32.7626435,46.3315939 L46.3315944,32.7607035 L46.3315944,13.5708914 L32.760703,2.20268248e-13 Z M45.4219522,32.4550637 L32.4555483,45.4214685 L14.1186169,45.4214685 L1.15221346,32.4550637 L1.15221346,14.1181322 L14.1186169,1.15172832 L32.4555483,1.15172832 L45.4219522,14.1181322 L45.4219522,32.4550637 Z" id="Fill-1" fill="#EA3E31"></path>
                    <polygon id="Fill-2" fill="#FF4F4F" points="32.0538503 2.12249848 14.5203149 2.12249848 2.12249848 14.5203153 2.12249848 32.0538508 14.5203149 44.4516672 32.0538503 44.4516672 44.4516672 32.0538508 44.4516672 14.5203153"></polygon>
                </g>
            </g>
            <path d="M34.9146111,20.7058824 L12.1442136,20.7058824 C10.641381,20.7058824 9.41176471,21.9354984 9.41176471,23.4383301 C9.41176471,24.9411617 10.641381,26.1707778 12.1442136,26.1707778 L34.9146111,26.1707778 C36.4174428,26.1707778 37.6470588,24.9411617 37.6470588,23.4383301 C37.6470588,21.9354984 36.4174428,20.7058824 34.9146111,20.7058824 Z" id="Fill-1" fill="#FFFFFF"></path>
        </g>
    </g>
</svg>