<?xml version="1.0" encoding="utf-8"?>
<!-- Generator: Adobe Illustrator 23.0.2, SVG Export Plug-In . SVG Version: 6.00 Build 0)  -->
<svg version="1.1" id="Layer_1" xmlns="http://www.w3.org/2000/svg" xmlns:xlink="http://www.w3.org/1999/xlink" x="0px" y="0px"
	 viewBox="0 0 58 60" style="enable-background:new 0 0 58 60;" xml:space="preserve">
<style type="text/css">
	.st0{fill-rule:evenodd;clip-rule:evenodd;fill:#40a9ff;}
	.st1{fill-rule:evenodd;clip-rule:evenodd;}
</style>
<path id="Rectangle-16_2_" class="st0" d="M26.8,10.9h12.7c10.2,0,18.5,8.3,18.5,18.5v12c0,10.2-8.3,18.5-18.5,18.5H26.8
	c-10.2,0-18.5-8.3-18.5-18.5v-12C8.3,19.2,16.6,10.9,26.8,10.9z"/>
<path id="Fill-1_2_" class="st1" d="M49,46c0,2.5-2.1,4.6-4.6,4.6H9.2c-3.4,0-6.1-2.7-6.1-6.1V11.2c0-3.3,2.7-6,6-6h18.5
	c0.8,0,1.5-0.7,1.5-1.5l0,0c0-0.8-0.7-1.5-1.5-1.5H7.7C3.4,2.3,0,5.6,0,9.8v36.3c0,4.2,3.4,7.6,7.7,7.6h36.7c4.2,0,7.7-3.5,7.7-7.6
	V26.4c0-0.8-0.7-1.5-1.5-1.5h-0.1c-0.8,0-1.5,0.7-1.5,1.5L49,46L49,46z"/>
<g>
	<path d="M25.4,44.7c-9.3,0-16.9-7.6-16.9-16.9s7.6-16.9,16.9-16.9c9.3,0,16.9,7.6,16.9,16.9S34.7,44.7,25.4,44.7z M25.4,13.7
		c-7.8,0-14.1,6.3-14.1,14.1c0,7.8,6.3,14.1,14.1,14.1c7.8,0,14.1-6.3,14.1-14.1C39.5,20,33.2,13.7,25.4,13.7z"/>
</g>
<g>
	<path class="st1" d="M17.5,26c-1,0-1.7,0.7-1.7,1.7s0.7,1.7,1.7,1.7h16.2c1,0,1.7-0.7,1.7-1.7c0-0.9-0.7-1.6-1.7-1.7"/>
</g>
</svg>
