<?xml version="1.0" encoding="UTF-8"?>
<svg width="48px" height="47px" viewBox="0 0 48 47" version="1.1" xmlns="http://www.w3.org/2000/svg" xmlns:xlink="http://www.w3.org/1999/xlink">
    <!-- Generator: Sketch 53.2 (72643) - https://sketchapp.com -->
    <title>icon-high-quality</title>
    <desc>Created with Sketch.</desc>
    <g id="v2-Stream" stroke="none" stroke-width="1" fill="none" fill-rule="evenodd">
        <g id="icon-high-quality">
            <g id="Group-37">
                <path d="M23.8095652,0.250933333 C10.9391304,0.250933333 0.491304348,10.6578667 0.491304348,23.5018667 C0.491304348,36.3363333 10.9365217,46.7458667 23.8095652,46.7458667 C36.6930435,46.7458667 47.1382609,36.3389333 47.1382609,23.5018667 C47.1382609,10.6613333 36.6930435,0.250933333 23.8095652,0.250933333 Z M23.8095652,44.9926 C11.9208696,44.9926 2.24695652,35.3509333 2.24695652,23.5018667 C2.24695652,11.6458667 11.9208696,2.0042 23.8095652,2.0042 C35.7017391,2.0042 45.3791304,11.6493333 45.3791304,23.5018667 C45.3825217,35.3509333 35.7052174,44.9926 23.8095652,44.9926 Z" id="Fill-35" fill="#A6E7D9"></path>
                <path d="M23.8095652,2.87433333 C12.4034783,2.87433333 3.12347826,12.1303333 3.12347826,23.5018667 C3.12347826,34.8734 12.4034783,44.1224667 23.8095652,44.1224667 C35.2226087,44.1224667 44.506087,34.8734 44.506087,23.5018667 C44.506087,12.1268667 35.2226087,2.87433333 23.8095652,2.87433333 Z" id="Fill-36" fill="#40a9ff"></path>
            </g>
            <path d="M17.5073806,33.8099014 C16.8830767,34.1382755 16.1513711,33.6076251 16.271239,32.9108922 L17.5111205,25.6814197 L12.2580299,20.5619419 C11.7523472,20.0687254 12.0320294,19.2096722 12.7312683,19.107289 L19.9895091,18.0534425 L23.2358513,11.4757317 C23.5480065,10.8414228 24.452015,10.8414228 24.764151,11.4757317 L28.0104932,18.0534425 L35.268734,19.107289 C35.9679633,19.2096754 36.2476551,20.0687254 35.7419724,20.5619419 L30.4888818,25.6814197 L31.7287633,32.9108922 C31.8486312,33.6076283 31.1169256,34.1382755 30.4926217,33.8099014 L23.9999372,30.3960637 L17.5073806,33.8099014 Z" id="Fill-1" fill="#FFFFFF"></path>
        </g>
    </g>
</svg>
