<?xml version="1.0" encoding="utf-8"?>
<!-- Generator: Adobe Illustrator 23.0.2, SVG Export Plug-In . SVG Version: 6.00 Build 0)  -->
<svg version="1.1" id="Layer_1" xmlns="http://www.w3.org/2000/svg" xmlns:xlink="http://www.w3.org/1999/xlink" x="0px" y="0px"
	 viewBox="0 0 100 100" style="enable-background:new 0 0 100 100;" xml:space="preserve">
<style type="text/css">
	.st0{opacity:0.2;fill-rule:evenodd;clip-rule:evenodd;fill:#192A2E;}
	.st1{fill-rule:evenodd;clip-rule:evenodd;fill:#FFB53A;}
	.st2{fill-rule:evenodd;clip-rule:evenodd;fill:#FFFFFF;}
	.st3{fill:#FFFFFF;}
</style>
<g>
	<path class="st0" d="M76.9,79.9c-6.4,5.2-14.8,8.4-24,8.4c-20.8,0-38-16.8-38-38c0-20.8,17.2-38,38-38c21.2,0,38,17.2,38,38
		c0,9.2-3.2,17.6-8.4,24l15.2,15.2c1.6,1.6,1.6,4,0,5.6c-1.6,1.6-4,1.6-5.6,0L76.9,79.9z"/>
	<circle class="st1" cx="37.8" cy="43.6" r="35.5"/>
	<path class="st2" d="M68.3,42.5c0,16.8-13.6,30-30,30s-30-13.2-30-30c0-16.4,13.6-30,30-30C55.1,12.5,68.3,26.1,68.3,42.5z
		 M62.3,72.1c-6.4,5.2-14.8,8.4-24,8.4c-20.8,0-38-16.8-38-38c0-20.8,17.2-38,38-38c21.2,0,38,17.2,38,38c0,9.2-3.2,17.6-8.4,24
		l15.2,15.2c1.6,1.6,1.6,4,0,5.6c-1.6,1.6-4,1.6-5.6,0L62.3,72.1z"/>
</g>
<g>
	<path class="st3" d="M51.8,34.6H33.5c-0.6,0-1.2-0.5-1.2-1.2c0-0.6,0.5-1.2,1.2-1.2h18.3c0.6,0,1.2,0.5,1.2,1.2
		C53,34,52.5,34.6,51.8,34.6z"/>
</g>
<g>
	<path class="st3" d="M26.1,36.2L26.1,36.2c-1.7,0-3.1-1.4-3.1-3.1v0c0-1.7,1.4-3.1,3.1-3.1h0c1.7,0,3.1,1.4,3.1,3.1v0
		C29.2,34.8,27.8,36.2,26.1,36.2z"/>
</g>
<g>
	<path class="st3" d="M51.8,44H33.5c-0.6,0-1.2-0.5-1.2-1.2c0-0.6,0.5-1.2,1.2-1.2h18.3c0.6,0,1.2,0.5,1.2,1.2
		C53,43.4,52.5,44,51.8,44z"/>
</g>
<g>
	<path class="st3" d="M26.1,45.6L26.1,45.6c-1.7,0-3.1-1.4-3.1-3.1v0c0-1.7,1.4-3.1,3.1-3.1h0c1.7,0,3.1,1.4,3.1,3.1v0
		C29.2,44.2,27.8,45.6,26.1,45.6z"/>
</g>
<g>
	<path class="st3" d="M51.8,53.4H33.5c-0.6,0-1.2-0.5-1.2-1.2c0-0.6,0.5-1.2,1.2-1.2h18.3c0.6,0,1.2,0.5,1.2,1.2
		C53,52.8,52.5,53.4,51.8,53.4z"/>
</g>
<g>
	<path class="st3" d="M26.1,55L26.1,55c-1.7,0-3.1-1.4-3.1-3.1v0c0-1.7,1.4-3.1,3.1-3.1h0c1.7,0,3.1,1.4,3.1,3.1v0
		C29.2,53.6,27.8,55,26.1,55z"/>
</g>
</svg>
