<?xml version="1.0" encoding="UTF-8"?>
<svg width="32px" height="32px" viewBox="0 0 32 32" version="1.1" xmlns="http://www.w3.org/2000/svg" xmlns:xlink="http://www.w3.org/1999/xlink">
    <!-- Generator: Sketch 53.2 (72643) - https://sketchapp.com -->
    <title>Fill 1</title>
    <desc>Created with Sketch.</desc>
    <g id="v2-Content" stroke="none" stroke-width="1" fill="none" fill-rule="evenodd">
        <g id="Content-published-after-vote" transform="translate(-698.000000, -1653.000000)" fill="#5d5d5d">
            <g id="Group-32" transform="translate(698.000000, 1653.000000)">
                <path d="M16,0 C7.17046154,0 0,7.17046154 0,16 C0,24.8295385 7.17046154,32 16,32 C24.8295385,32 32,24.8295385 32,16 C32,7.17046154 24.8295385,0 16,0 Z M16,1.23076923 C24.1636923,1.23076923 30.7692308,7.83630769 30.7692308,16 C30.7692308,24.1636923 24.1636923,30.7692308 16,30.7692308 C7.83630769,30.7692308 1.23076923,24.1636923 1.23076923,16 C1.23076923,7.83630769 7.83630769,1.23076923 16,1.23076923 Z M16,7.38461538 C15.6610585,7.38461538 15.3846154,7.66105846 15.3846154,8 L15.3846154,9.23076923 L15.3846154,9.26923077 C14.4759385,9.36538462 13.6418462,9.66827077 13,10.1923077 C12.2139692,10.8317538 11.7307692,11.8124923 11.7307692,12.9230769 C11.7307692,14.1346462 12.3702154,14.988 13.1731077,15.4807385 C13.976,15.9734769 14.9110769,16.2163077 15.7692923,16.5576615 C17.1755692,17.06968 19.0385231,17.6393846 19.0577846,19.0769231 C19.0577846,19.8317538 18.74048,20.3942154 18.2116308,20.8269538 C17.6827815,21.2596923 16.9135385,21.5384615 16.0000615,21.5384615 C14.5072615,21.5384615 13.3486154,20.6153846 12.8462154,19.7692308 C12.7116,19.4447138 12.2789046,19.2956738 11.9808615,19.4807692 C11.6828185,19.6658646 11.6010523,20.1346154 11.8270154,20.4038462 C12.4688615,21.4831692 13.7332923,22.5048308 15.4039385,22.7115385 C15.4039385,22.7331754 15.3847077,22.7475938 15.3847077,22.7692308 L15.3847077,24 C15.3847077,24.3389415 15.6611508,24.6153846 16.0000923,24.6153846 C16.3390338,24.6153846 16.6154769,24.3389415 16.6154769,24 L16.6154769,22.7692308 L16.6154769,22.7307692 C17.5241538,22.6298092 18.3582462,22.3124985 19.0000923,21.7884923 C19.7861231,21.1490462 20.2693231,20.1875077 20.2693231,19.0769846 C20.2693231,17.8654154 19.6298769,16.9928615 18.8269846,16.5000615 C18.0240923,16.0072615 17.0890154,15.7644923 16.2308,15.4231385 C14.8341846,14.91112 12.9615692,14.3438154 12.9423077,12.9231385 C12.9423077,12.1683077 13.2596123,11.5865846 13.7884615,11.1539077 C14.3173108,10.7212308 15.0865538,10.4616 16.0000308,10.4616 C17.4928308,10.4616 18.6514769,11.3654769 19.1538769,12.2116308 C19.2884923,12.5361477 19.7211877,12.6851877 20.0192308,12.5000923 C20.3172738,12.3149969 20.39904,11.8462462 20.1730769,11.5770154 C19.5312308,10.4976923 18.2668,9.49289231 16.5961538,9.28852308 C16.5961538,9.26688615 16.6153846,9.25246769 16.6153846,9.23083077 L16.6153846,8.00006154 C16.6153846,7.66112 16.3389415,7.38467692 16,7.38467692 L16,7.38461538 Z" id="Fill-1"></path>
            </g>
        </g>
    </g>
</svg>
