<?xml version="1.0" encoding="UTF-8"?>
<svg width="75px" height="74px" viewBox="0 0 75 74" version="1.1" xmlns="http://www.w3.org/2000/svg" xmlns:xlink="http://www.w3.org/1999/xlink">
    <!-- Generator: Sketch 52.5 (67469) - http://www.bohemiancoding.com/sketch -->
    <title>Icons/icon-network stats</title>
    <desc>Created with Sketch.</desc>
    <g id="v2-HQ" stroke="none" stroke-width="1" fill="none" fill-rule="evenodd">
        <g id="HQ-landing-page" transform="translate(-1061.000000, -688.000000)">
            <g id="Icons/icon-network-stats" transform="translate(1055.000000, 682.000000)">
                <g id="Group-68" transform="translate(6.315789, 6.315789)">
                    <g id="Group" transform="translate(3.416739, 1.311475)">
                        <path d="M25.6775594,31.2060956 C25.8968894,31.4450608 26.195179,31.5706648 26.4964256,31.5706648 C26.6397235,31.5706648 26.785941,31.543097 26.9233845,31.4818205 C27.3532705,31.3010652 27.6340119,30.8629689 27.6340119,30.3758152 L27.6369391,1.19475126 C27.6369391,0.533006886 27.1251739,-3.55555562e-05 26.4964556,-3.55555562e-05 C18.9314131,-3.55555562e-05 11.7691408,3.04214546 6.32725127,8.56283854 C6.11084839,8.78648657 5.98509874,9.08365391 5.97925183,9.40226373 C5.97340493,9.71781481 6.09038047,10.0272484 6.30093645,10.2539238 L25.6775594,31.2060956 Z" id="Fill-1" fill="#05CDA4"></path>
                        <path d="M27.5678474,41.6173049 C27.5946028,41.2974413 27.4902529,40.977585 27.2788679,40.748316 L9.54951783,21.3866474 C9.35686707,21.1771828 9.09464969,21.0554649 8.81638321,21.0526316 C8.54078816,21.0554577 8.27321423,21.1601972 8.07523432,21.3640023 C2.86828662,26.6997475 0,33.8582533 0,41.5155291 C0,47.3664212 1.69107984,52.9764428 4.89117101,57.7380553 C5.09452117,58.0437594 5.41560577,58.2051078 5.74205377,58.2051078 C5.95076048,58.2051078 6.16213861,58.1371728 6.34408998,58.0013027 L27.1318779,42.4128369 C27.3807176,42.2288435 27.5412633,41.940125 27.5680187,41.6173991 L27.5678474,41.6173049 Z" id="Fill-2" fill="#F5CB07"></path>
                        <path d="M70.7670246,39.2020808 C70.7604972,37.8280295 70.6625532,36.3984145 70.4732008,34.9558486 C70.4046424,34.4271083 70.3197615,33.9016434 70.2283448,33.3826873 C70.0194019,32.2403322 69.7549555,31.1273882 69.4480769,30.0764415 C69.3142197,29.6129739 69.1673078,29.1494896 69.0106006,28.695873 C68.6743363,27.7069237 68.2858279,26.7179743 67.8548958,25.768212 C67.6688029,25.3504402 67.4729232,24.9391941 67.2672481,24.5344484 C66.8232445,23.6466834 66.3302647,22.7686943 65.798129,21.9103404 C65.5663361,21.5349976 65.3312754,21.1661887 65.0864194,20.8104309 C64.4791813,19.9161487 63.8229836,19.0479354 63.1308813,18.2189091 C62.8566479,17.8925291 62.5758788,17.5661408 62.2885907,17.2462529 C61.6552347,16.54453 60.9696597,15.8493077 60.2579167,15.1868052 C59.9445024,14.8963202 59.6245607,14.6091021 59.3013762,14.33171 C58.5668083,13.6985267 57.7995784,13.0914292 57.0193021,12.530111 C56.6634473,12.2722707 56.3075926,12.0209475 55.9451686,11.7859593 C55.0963591,11.2213157 54.2311684,10.7023429 53.3888779,10.2487263 C52.9938421,10.0333148 52.5922874,9.83095451 52.1874564,9.6318612 C51.1525205,9.12596466 50.0784705,8.67232302 48.9945585,8.28062021 C48.547287,8.1174302 48.0935132,7.96076579 47.6364298,7.81715257 C46.5786774,7.48423861 45.4849868,7.2002875 44.3815177,6.97835042 C43.8722152,6.87390748 43.3596199,6.78578271 42.8405222,6.70092491 C41.6358411,6.51814976 40.3756649,6.39738865 39.1056265,6.3484258 C38.6648907,6.33210764 38.2241383,6.31578947 37.783436,6.31578947 C36.7387216,6.31578947 35.8931716,7.16110886 35.8931716,8.20553827 L35.8931716,38.3143493 L11.3290113,55.720392 C10.9209208,56.0076101 10.6368922,56.4547596 10.5520029,56.9541556 C10.4703815,57.4502596 10.5846481,57.9431049 10.8752125,58.3608767 L10.9992744,58.5240667 C11.5346863,59.2649598 12.1256436,60.0090782 12.811227,60.8055183 C13.0919961,61.1318983 13.3760247,61.4517611 13.663296,61.7617978 C14.2999199,62.4439439 14.9953487,63.1228147 15.7299082,63.7854007 C16.0498499,64.0693518 16.3730595,64.3500443 16.7028298,64.6242029 C17.6103941,65.3814142 18.4560277,66.0211481 19.2885397,66.5858084 C19.5921588,66.7881687 19.9055731,66.983995 20.2157446,67.1733041 L20.3985696,67.2875396 C21.2538982,67.8195469 22.1321269,68.3124173 23.0201341,68.7595167 C23.4249651,68.9618769 23.8330556,69.1609703 24.2443722,69.3437454 C25.1454175,69.7517246 26.1085606,70.1270675 27.18587,70.4958764 C27.6429367,70.6525408 28.1000369,70.7994126 28.5602963,70.9332333 C29.7062226,71.2661472 30.7836156,71.5305132 31.8609251,71.7263479 C32.3832823,71.8242653 32.908899,71.8960635 33.4345157,71.9678701 C34.8644371,72.1571709 36.2944422,72.2583552 37.6525709,72.2616138 C37.6754209,72.2616138 37.7537744,72.2648783 37.7766328,72.2648783 C38.3740757,72.2648783 38.9650163,72.2485584 39.5493877,72.2159204 C41.1099403,72.1343246 42.6835309,71.9384949 44.2310454,71.6284331 C45.0080538,71.4750356 45.7883384,71.2889935 46.6241099,71.0539969 C49.020434,70.388169 51.3318436,69.4579416 53.4865461,68.2830003 C55.6477677,67.1080565 57.6914797,65.6719243 59.5654466,64.020389 C60.61668,63.0966956 61.6091586,62.101229 62.5134634,61.0731763 C64.1719684,59.196462 65.6084089,57.1500488 66.7804948,54.9926754 C67.9492377,52.8450779 68.8829616,50.5375573 69.5522474,48.132111 C69.7873082,47.2867917 69.9766606,46.5067282 70.1268403,45.7396993 C70.4337273,44.1991241 70.629607,42.6292214 70.7177559,41.0593186 C70.7471332,40.4750899 70.7634642,39.8843773 70.7634642,39.2935645 L70.7670246,39.2020808 Z" id="Fill-3" fill="#40a9ff"></path>
                    </g>
                    <g id="Group" fill="#000000">
                        <path d="M29.6743257,29.1333307 C29.8875263,29.3564232 30.1774796,29.4736842 30.4703074,29.4736842 C30.6096006,29.4736842 30.7517318,29.4479476 30.8853342,29.3907412 C31.3032064,29.2219922 31.576102,28.8129955 31.576102,28.3582 L31.5789474,1.11542566 C31.5789474,0.49763624 31.0814843,5.68434189e-14 30.4703365,5.68434189e-14 C23.1167113,5.68434189e-14 16.1546003,2.84011066 10.8647931,7.99410353 C10.654438,8.20289622 10.5322026,8.48032485 10.5265191,8.77777169 C10.5208356,9.07236298 10.6345421,9.36124314 10.8392137,9.5728621 L29.6743257,29.1333307 Z M29.3616311,2.25357864 L29.3616311,25.6012227 L13.2207695,8.8376213 C17.7093553,4.81340511 23.3659341,2.5081628 29.3616311,2.25357864 Z" id="Fill-1"></path>
                        <path d="M29.469279,35.7123722 C29.4978797,35.3861182 29.3863325,35.0598715 29.1603677,34.826022 L10.2081748,15.0775311 C10.0022364,14.8638817 9.7219331,14.7397321 9.42447381,14.7368421 C9.1298702,14.7397247 8.84384095,14.8465568 8.63220581,15.0544337 C3.06612037,20.4967804 0,27.7983043 0,35.6085631 C0,41.5763488 1.80771834,47.2984516 5.22852875,52.1551953 C5.44590453,52.467007 5.78913524,52.6315789 6.13809928,52.6315789 C6.36120107,52.6315789 6.58715854,52.5622866 6.7816596,52.423702 L29.0032394,36.523798 C29.2692423,36.3361286 29.4408613,36.0416418 29.469462,35.7124683 L29.469279,35.7123722 Z M6.41881989,49.9233919 C3.67582991,45.6532861 2.22851296,40.7302435 2.22851296,35.6088957 C2.22851296,28.7893506 4.76552791,22.3912505 9.39634171,17.4687253 L26.6490392,35.4470289 L6.41881989,49.9233919 Z" id="Fill-2"></path>
                        <path d="M65.2631579,37.8158535 C65.2572269,36.5876832 65.1682314,35.3098484 64.9961792,34.0204377 C64.9338846,33.547833 64.8567588,33.0781559 64.7736943,32.6142966 C64.5838414,31.5932237 64.343556,30.5984394 64.0647153,29.6590703 C63.9430879,29.2448083 63.8095985,28.8305315 63.6672089,28.4250747 C63.3616672,27.5411207 63.0086547,26.6571667 62.6170945,25.8082393 C62.4480039,25.4348218 62.2700206,25.067237 62.083137,24.7054626 C61.6796996,23.9119504 61.2317607,23.1271761 60.7482433,22.3599524 C60.5376281,22.0244592 60.3240436,21.6948062 60.1015588,21.3768188 C59.5498007,20.5774812 58.9535563,19.8014449 58.3246875,19.0604351 C58.0755094,18.7687064 57.8203927,18.4769702 57.5593525,18.1910444 C56.9838628,17.5638225 56.3609251,16.9424109 55.7142102,16.3502453 C55.4294308,16.0906007 55.1387205,15.8338761 54.8450636,15.5859343 C54.1776092,15.0199753 53.4804769,14.4773324 52.7714902,13.9756086 C52.448148,13.7451427 52.1248057,13.5205022 51.7954945,13.3104623 C51.024236,12.8057661 50.2380932,12.3418919 49.4727582,11.9364352 C49.1138147,11.7438936 48.7489478,11.5630176 48.381104,11.3850618 C47.4407246,10.9328755 46.4648048,10.5273964 45.4799239,10.1772801 C45.0735172,10.0314157 44.6612022,9.89138417 44.24588,9.76301816 C43.2847687,9.46544919 42.2910027,9.21164476 41.2883516,9.01327043 C40.8255813,8.91991605 40.359819,8.84114736 39.8881485,8.76529879 C38.7935326,8.60192862 37.6484918,8.49398854 36.4944899,8.45022401 C36.0940218,8.43563832 35.6935385,8.42105263 35.2931008,8.42105263 C34.3438363,8.42105263 33.5755396,9.17662567 33.5755396,10.1101695 L33.5755396,37.0223711 L11.2556734,52.5804392 C10.8848679,52.8371638 10.6267894,53.23684 10.549656,53.6832159 C10.4754919,54.1266492 10.5793186,54.5671699 10.8433357,54.9405874 L10.9560627,55.0864518 C11.442557,55.7486854 11.9795217,56.4138017 12.6024671,57.1256849 C12.8575838,57.4174136 13.1156622,57.703317 13.3766872,57.9804376 C13.9551462,58.5901613 14.5870374,59.1969573 15.2544842,59.7891975 C15.5451946,60.0430019 15.8388742,60.2938937 16.1385153,60.5389452 C16.9631603,61.2157645 17.731533,61.7875788 18.4879829,62.2922899 C18.7638619,62.4731659 19.0486413,62.6482016 19.3304741,62.817412 L19.4965954,62.9195193 C20.2737772,63.3950442 21.0717669,63.8355872 21.8786417,64.2352187 C22.2464855,64.4160947 22.617291,64.5940505 22.9910278,64.7574207 C23.8097495,65.1220853 24.6848954,65.4575786 25.6637769,65.7872316 C26.079084,65.9272631 26.4944213,66.0585418 26.9126293,66.1781549 C27.9538586,66.4757239 28.932816,66.7120225 29.9116976,66.8870657 C30.3863298,66.9745873 30.8639238,67.0387628 31.3415177,67.1029458 C32.640795,67.2721488 33.9401483,67.3625905 35.1741921,67.3655032 C35.1949544,67.3655032 35.2661493,67.3684211 35.2869192,67.3684211 C35.829777,67.3684211 36.3667265,67.3538339 36.8977071,67.324661 C38.3156804,67.2517281 39.7455006,67.0766894 41.1516271,66.7995463 C41.8576445,66.6624349 42.5666387,66.4961446 43.3260503,66.2860972 C45.5034353,65.6909593 47.603664,64.8594929 49.561503,63.8092934 C51.5252654,62.7590917 53.3822546,61.4754316 55.0850073,59.9992374 C56.0401952,59.1736112 56.9419965,58.2838319 57.7636798,57.3649261 C59.2706562,55.6874598 60.5758569,53.8583114 61.6408557,51.9299832 C62.7028169,50.0103931 63.5512315,47.9478587 64.1593683,45.7977952 C64.3729528,45.0422221 64.5450051,44.3449769 64.6814638,43.6593823 C64.9603121,42.2823678 65.1382954,40.8791394 65.2183906,39.475911 C65.2450839,38.953709 65.2599228,38.4257116 65.2599228,37.8976245 L65.2631579,37.8158535 Z M62.9107286,39.3591135 C62.8395338,40.6515116 62.6734125,41.949735 62.415334,43.2158445 C62.2877757,43.8430664 62.1305547,44.4936046 61.9318015,45.1937624 C61.3711431,47.1745931 60.5880227,49.0767073 59.6090652,50.847528 C58.627146,52.6241739 57.4227951,54.3103781 56.0285914,55.8623761 C55.2691798,56.7113035 54.4355737,57.5311043 53.5545803,58.298328 C51.9823705,59.6636172 50.267771,60.8451849 48.4552833,61.8165933 C46.6487191,62.782251 44.7145737,63.5523874 42.703348,64.0979511 C42.0002999,64.2934128 41.3446847,64.4480301 40.6980457,64.5763886 C39.4046919,64.8272804 38.0846067,64.9935632 36.7763683,65.0606663 C36.2839355,65.0840049 35.7914874,65.1044264 35.2961232,65.0985914 C35.2783226,65.0985914 35.2338287,65.0956742 35.2160281,65.0956742 C34.0501794,65.0927564 32.851752,65.0110728 31.6503628,64.8535354 C31.2083625,64.798106 30.7692935,64.7339223 30.3332394,64.655161 C29.4373615,64.494711 28.5325985,64.2788234 27.5655638,63.9987602 C27.1769577,63.8879 26.7913437,63.7624541 26.4116379,63.6370113 C25.5039132,63.3336095 24.6970384,63.024375 23.9465119,62.6889041 C23.5964687,62.5342869 23.2553259,62.3679966 22.9200912,62.2046264 C22.1814419,61.8370417 21.4398461,61.4315027 20.7219743,60.9910194 L20.5528837,60.8859995 C20.2948053,60.7313822 20.0396886,60.5738448 19.7905104,60.4104746 C19.0993244,59.9466229 18.3873456,59.418603 17.6220106,58.7942489 C17.3461316,58.5666957 17.0732143,58.3333097 16.803289,58.0970111 C16.1862671,57.5514705 15.6048616,56.9913218 15.0709193,56.4253702 C14.8247028,56.1686456 14.5873867,55.9031682 14.3560016,55.6376833 C13.8873004,55.1008956 13.4690088,54.5933091 13.0893031,54.0915106 L35.403094,38.5394172 C35.7086356,38.3264497 35.8895882,37.9792909 35.8895882,37.6116987 L35.8866189,10.7084591 C36.0586712,10.7113717 36.2307235,10.7201246 36.4027834,10.7259649 C37.470668,10.7638892 38.52382,10.8630763 39.5323945,11.0147809 C39.9654945,11.0818766 40.3985794,11.1577326 40.8227867,11.2423341 C41.7453199,11.431963 42.6620056,11.6624288 43.5519601,11.9366592 C43.9346352,12.0533522 44.3113717,12.1817107 44.6851541,12.3159095 C45.5928787,12.6397297 46.49468,13.0131473 47.3608649,13.4274242 C47.6990385,13.5907943 48.037212,13.7599973 48.3694394,13.9379531 C49.0754568,14.3084505 49.7962979,14.7343781 50.5112079,15.2040626 C50.8137879,15.402437 51.1104293,15.6037389 51.4070858,15.8166989 C52.0626706,16.2805507 52.7093248,16.779444 53.323385,17.3016311 C53.5963024,17.5320969 53.8662428,17.768403 54.1272981,18.0105418 C54.7265195,18.5590026 55.2990702,19.1278818 55.8300508,19.705484 C56.0703362,19.9709615 56.3076524,20.2393516 56.5390299,20.5106469 C57.1174889,21.193299 57.6692622,21.9138753 58.1795108,22.6490598 C58.3871643,22.9466287 58.5829482,23.2529431 58.7757704,23.556315 C59.2207401,24.2623057 59.6360319,24.9887447 60.0068526,25.7180291 C60.1759432,26.0535223 60.3420644,26.3890156 60.4992854,26.7361893 C60.8611906,27.5267889 61.1875022,28.3377771 61.4692819,29.1517527 C61.5998095,29.5251702 61.7214293,29.9044131 61.8371256,30.2923939 C62.0952041,31.1588719 62.3176889,32.0777778 62.4897488,33.0171469 C62.5698439,33.4489072 62.6380695,33.877725 62.6974023,34.3124577 C62.8575926,35.5056761 62.9406494,36.6871691 62.9436187,37.8190724 L62.9436187,37.8978411 C62.9495497,38.3879516 62.9347184,38.8780621 62.9109868,39.3593973 L62.9107286,39.3591135 Z" id="Fill-3"></path>
                    </g>
                </g>
            </g>
        </g>
    </g>
</svg>
