<?xml version="1.0" encoding="UTF-8"?>
<svg width="37px" height="36px" viewBox="0 0 37 36" version="1.1" xmlns="http://www.w3.org/2000/svg" xmlns:xlink="http://www.w3.org/1999/xlink">
    <!-- Generator: Sketch 50.2 (55047) - http://www.bohemiancoding.com/sketch -->
    <title>Icons/icon-title-election</title>
    <desc>Created with Sketch.</desc>
    <defs></defs>
    <g id="v2-Election" stroke="none" stroke-width="1" fill="none" fill-rule="evenodd">
        <g id="Election-ended" transform="translate(-147.000000, -182.000000)">
            <g id="Icons/icon-title-election" transform="translate(147.000000, 182.000000)">
                <g id="Group" stroke-width="1" transform="translate(6.000000, 2.000000)">
                    <path d="M21.3789372,0 L31,8.08546069 L30.2399608,12.0405437 C29.3865552,11.6779512 28.5283267,11.3253769 27.6764875,10.9578054 L19.614004,3.88826733 C19.4159477,3.68274298 19.18085,3.44378515 18.9699204,3.2198972 L21.3789372,0 Z M19.111763,5.13137163 C21.6993508,7.40049359 24.2932866,9.65960604 26.8778651,11.9335617 C26.1726091,16.4348474 25.0454525,19.080096 23.1292781,21.1555724 C21.1648335,23.2843473 18.2874185,24.8433073 14.0877875,27.0222581 C14.0749058,27.0306122 14.0620242,27.0389663 14.0491425,27.0489929 C12.6482762,27.8861132 11.5179044,27.3881913 11.0348314,26.60789 C10.793299,26.2168946 10.7176207,25.7523762 10.8673696,25.2578037 C11.0171186,24.7632312 11.4116151,24.2068051 12.2457291,23.707185 L12.2586108,23.6938176 C14.6707192,22.1899955 15.6561568,21.9343252 16.997417,20.8331934 C17.9313279,20.0729411 18.44981,19.2675177 19.3547835,17.5180775 C19.5222452,17.190574 19.3451212,16.7277111 19.0069784,16.6090942 C17.3033825,15.9908571 16.330806,15.0802055 15.6964094,14.3500245 C15.3791988,13.9857638 15.1553792,13.6816543 14.9492725,13.4276951 C14.8462191,13.3007026 14.7560474,13.1720419 14.575704,13.0534078 C14.4855323,12.9932523 14.3631585,12.9280879 14.1892539,12.9197338 C14.0153492,12.9113797 13.8076349,12.9949249 13.6868481,13.09351 C12.0927361,14.393506 11.3037595,14.891415 9.33428586,15.5397661 C9.01063232,15.641692 8.8141961,16.0544004 8.93495404,16.3819339 L9.70785433,18.4271251 L5.35529212,18.4271251 L4.62105746,15.2991528 C4.58885122,15.0117516 4.71122916,14.4971087 5.03327095,13.908943 C5.36175563,13.3074312 5.86895135,12.6440658 6.46315709,11.997383 C7.65309376,10.7057711 9.21501188,9.51938733 10.2358586,9.08328919 L10.2487403,9.06992178 L19.111763,5.13137163 Z M14.1025448,14.3799033 C14.2587366,14.5820869 14.4793326,14.8845281 14.7723917,15.2220711 C15.4084371,15.9522521 16.3970899,16.8629037 17.9283806,17.5479991 C17.7415984,17.8972241 17.5902377,18.1812932 17.4388771,18.4302477 L11.0252474,18.4302477 L10.3296372,16.5454653 C11.8593202,15.9873709 12.8238585,15.3958687 14.1023386,14.3799461 L14.1025448,14.3799033 Z M0.000309160115,19.7118929 L16.3569403,19.7118929 C16.3166835,19.7469818 16.2844814,19.7837432 16.2410053,19.8188321 C15.062322,20.7862899 14.1058631,21.0553062 11.6308096,22.5992519 L11.617928,22.5992519 C10.5857866,23.2191572 9.94331067,24.0195331 9.68567724,24.8717104 C9.42804381,25.7272241 9.58423563,26.604468 10.007719,27.2911889 C10.8530864,28.6580005 12.794983,29.2745692 14.6562505,28.1734375 C16.6963775,27.115723 18.4466772,26.1833841 19.9618503,25.2459549 L19.9618503,34 L0,34 L0.000309160115,19.7118929 Z" id="Fill-1-Copy" fill="#9FC5F9" opacity="0.788504464"></path>
                    <polygon id="Path-3" fill="#B0CEF7" points="6 20 5 16.5 14.5 12 20.5 14.5 21.5 22.5 20 23.5 20 34 7.5 33"></polygon>
                </g>
                <path d="M24.9210769,0 C24.7351944,0.00489960636 24.5541614,0.0996141812 24.4426534,0.248220245 L21.3004183,4.32262754 C21.112922,4.56268317 21.1371659,4.94481902 21.352142,5.15873784 L21.7788418,5.58983632 L13.3751898,9.23477556 C12.0562356,9.78510336 10.4689803,11.000097 9.17439832,12.3701892 C8.52623837,13.0560505 7.96211908,13.7811253 7.55805358,14.4996785 C7.15557704,15.2165595 6.88403178,15.9351127 6.98909295,16.6683396 C6.99394256,16.691203 6.99717426,16.7124319 7.00202387,16.7336607 L7.66152166,19.5294045 L2.95632068,19.5294045 C2.63142968,19.5294045 2.33563636,19.8282471 2.33563636,20.1564873 L2.33563636,34.7457755 L0.628753222,34.7457755 C0.300630522,34.7408763 0,35.041353 0,35.3728582 C0,35.7043634 0.302260853,36.0048322 0.628753222,35.9999409 L26.5762558,35.9999409 C26.9043785,36.0048397 27.205009,35.7043634 27.205009,35.3728582 C27.205009,35.041353 26.9027482,34.7408842 26.5762558,34.7457755 L24.8564637,34.7457755 L24.8564637,25.4064238 C25.9329786,24.6797186 26.8688464,23.9187328 27.6883566,23.0548636 C29.7508492,20.8796809 30.9695836,18.0578504 31.7082393,13.7284713 L34.1521632,14.7343956 C34.4883672,14.8715678 34.9199497,14.6364118 34.9926525,14.2771268 L35.9883129,9.30143445 C36.0335732,9.07770806 35.9446705,8.83112241 35.7684872,8.68739505 L25.3219562,0.14485611 C25.2104275,0.0517719498 25.0665694,-0.000484943974 24.9210976,0.00114965166 L24.9210769,0 Z M25.0374552,1.51544992 L34.6953033,9.41752837 L33.9323581,13.2829081 C33.0756896,12.9285395 32.2141798,12.5839617 31.3590837,12.2247269 L23.2657739,5.31552943 C23.0669604,5.11466647 22.8309638,4.88112832 22.6192277,4.66231826 L25.0374552,1.51544992 Z M22.7616127,6.5304395 C25.3590938,8.74809665 27.9629473,10.9559713 30.5574078,13.1783525 C29.8494553,17.5775468 28.7179891,20.1627999 26.7944884,22.1912035 C24.8225329,24.2716967 21.9341163,25.7952987 17.7184284,27.9248299 C17.7054975,27.9329945 17.6925666,27.9411591 17.6796356,27.9509583 C16.2734132,28.7690922 15.1387195,28.2824635 14.6537995,27.5198598 C14.4113437,27.1377323 14.3353761,26.6837495 14.4856975,26.2003942 C14.636019,25.7170388 15.0320239,25.1732327 15.869327,24.6849443 L15.882258,24.67188 C18.3035889,23.2021653 19.2927942,22.9522938 20.6391826,21.8761362 C21.5766642,21.1331268 22.0971287,20.3459708 23.0055623,18.6362088 C23.1736643,18.3161332 22.9958631,17.8637683 22.6564274,17.7478416 C20.9463179,17.1436265 19.9700229,16.2536289 19.3332007,15.5400087 C19.0147773,15.1840097 18.790102,14.8867976 18.5832072,14.6385982 C18.4797598,14.514486 18.3892433,14.3887434 18.2082104,14.2728 C18.1176939,14.2140089 17.9948522,14.1503224 17.8202827,14.1421577 C17.6457132,14.1339931 17.4372046,14.2156435 17.315956,14.3119926 C15.715749,15.5825041 14.9237559,16.0691202 12.9467521,16.7027664 C12.6218611,16.8023806 12.4246739,17.2057286 12.5458935,17.5258334 L13.3217489,19.5246387 L8.95254506,19.5246387 L8.21550311,16.4676104 C8.18317373,16.1867275 8.30601957,15.683757 8.62929266,15.1089312 C8.95903328,14.521062 9.46816821,13.8727421 10.0646459,13.2407263 C11.2591321,11.9784088 12.8270221,10.8189328 13.851772,10.3927256 L13.8647029,10.3796614 L22.7616127,6.5304395 Z M17.7332421,15.5692099 C17.8900311,15.7668078 18.1114705,16.0623896 18.4056501,16.3922769 C19.0441274,17.105897 20.0365602,17.9958946 21.5737056,18.6654518 C21.3862093,19.0067562 21.2342699,19.2843824 21.0823306,19.5276905 L14.6441789,19.5276905 L13.9459091,17.6856559 C15.4814407,17.1402193 16.4496669,16.5621327 17.7330352,15.5692517 L17.7332421,15.5692099 Z M3.57708777,20.7802673 L19.9962571,20.7802673 C19.9558464,20.8145604 19.9235212,20.8504881 19.8798788,20.8847811 C18.696689,21.8302965 17.7365731,22.0932114 15.2520565,23.6021396 L15.2391256,23.6021396 C14.2030379,24.2079851 13.5581055,24.9902081 13.299487,25.8230576 C13.0408686,26.6591679 13.1976576,27.5165154 13.6227601,28.1876611 C14.4713597,29.5234728 16.4206809,30.1260575 18.2890649,29.0498999 C20.3369921,28.0161749 22.0939839,27.1049819 23.6149502,26.188814 L23.6149502,34.7443131 L3.57677742,34.7443131 L3.57708777,20.7802673 Z" id="Fill-1" fill="#455469"></path>
            </g>
        </g>
    </g>
</svg>