<?xml version="1.0" encoding="UTF-8"?>
<svg width="78px" height="74px" viewBox="0 0 78 74" version="1.1" xmlns="http://www.w3.org/2000/svg" xmlns:xlink="http://www.w3.org/1999/xlink">
    <!-- Generator: Sketch 50.2 (55047) - http://www.bohemiancoding.com/sketch -->
    <title>icon-appeals</title>
    <desc>Created with Sketch.</desc>
    <defs></defs>
    <g id="Page-1" stroke="none" stroke-width="1" fill="none" fill-rule="evenodd">
        <g id="icon-appeals">
            <g id="Group-27">
                <g id="Group-6-Copy" transform="translate(8.888889, 12.333333)" fill="#FB835A">
                    <path d="M66.5138606,41.7262937 L57.4156353,16.4444245 C58.3780629,15.9653311 58.9705536,14.8679563 58.8202113,13.7733085 L58.6728137,12.9516375 L56.8231298,13.2246417 L56.9705274,14.0463127 C57.0456689,14.5254061 56.7479882,14.9375983 56.2306538,15.0044721 C55.7133194,15.0740592 55.2682263,14.7983829 55.1960146,14.3192895 L55.048617,13.4976184 L39.435805,16.0322461 C38.9907266,14.8679837 38.2508235,13.9070836 37.2161843,13.1550271 C37.8809163,9.31690802 41.4328717,6.43968906 45.7247303,6.43968906 L46.3894623,4.99970922 C42.9126484,1.78257116 38.2508531,0 33.29444,0 C28.338027,0 23.6760836,1.78257116 20.1994178,5.00238144 L20.8641498,6.44236128 L20.9392913,6.44236128 C25.2311499,6.44236128 28.7834309,9.31958023 29.4478374,13.1576993 C27.8207074,14.2550878 26.7831087,16.0349183 26.7831087,17.9539778 L26.7831087,18.0904799 L11.1703041,20.6251075 L11.3177017,21.4467786 C11.3928433,21.925872 11.0951625,22.3380641 10.5778281,22.404938 C10.0604937,22.4745251 9.61540059,22.1988487 9.54318893,21.7197553 L9.39579131,20.8980843 L7.54610739,21.1710885 L7.69350501,21.9927595 C7.84090262,22.6779421 8.28598096,23.2935102 8.87848651,23.6361015 L0,48.5089166 L0.0751415595,48.6454187 L0,48.854187 C0,51.1827117 2.07223863,53.1713858 4.66179908,53.1713858 L15.7599026,53.1713858 C18.2742889,53.1713858 20.421698,51.2523263 20.421698,48.854187 L20.2743004,48.7176849 L20.3494419,48.5811829 L11.4709591,24.0509591 C12.3582155,23.7083678 13.0258774,22.9535706 13.2454719,22.1318995 L27.1558348,19.8702487 C27.6009132,21.1041256 28.4881991,22.1987734 29.5980095,22.9535706 L29.5980095,56.5974087 L12.9478947,56.5974087 L12.9478947,61.6666667 L53.6409409,61.6666667 L53.6409409,56.5277941 L36.9937857,56.5277941 L36.9937857,22.883956 C38.6960868,21.7865675 39.8058971,20.006737 39.8058971,17.9511891 L39.8058971,17.7450999 L53.7880278,15.483449 C54.1579646,16.0321296 54.6752842,16.4416084 55.3429461,16.6477114 L46.3172284,41.7267664 L46.39237,41.8632685 L46.2449724,41.9997706 C46.2449724,44.3282953 48.3172103,46.3169694 50.9067678,46.3169694 L62.0048713,46.3169694 C64.5192576,46.3169694 66.6666667,44.3979099 66.6666667,41.9997706 L66.5192691,41.8632685 L66.5138606,41.7262937 Z" id="Fill-1"></path>
                </g>
                <path d="M77.6901666,48.6806759 L67.063169,19.1851619 C68.187313,18.6262196 68.8793598,17.345949 68.7037555,16.0688599 L68.5315907,15.1102437 L66.3711049,15.4287486 L66.5432697,16.3873648 C66.6310373,16.9463071 66.2833373,17.427198 65.6790754,17.5052174 C65.0748134,17.5864025 64.5549314,17.26478 64.4705861,16.7058377 L64.2984213,15.7472215 L46.0621926,18.7042871 C45.5423279,17.345981 44.678099,16.2249308 43.4696097,15.3475316 C44.2460364,10.869726 48.394826,7.51297058 53.4078444,7.51297058 L54.1842711,5.83299409 C50.1232492,2.07966636 44.6781336,0 38.8888958,0 C33.099658,0 27.6543696,2.07966636 23.5935205,5.83611167 L24.3699472,7.51608816 L24.4577148,7.51608816 C29.4707332,7.51608816 33.619903,10.8728436 34.3959495,15.3506492 C32.4954134,16.6309358 31.2834672,18.7074046 31.2834672,20.9463075 L31.2834672,21.1055599 L13.0472473,24.0626255 L13.2194121,25.0212416 C13.3071796,25.580184 12.9594797,26.0610748 12.3552177,26.1390943 C11.7509558,26.2202793 11.2310738,25.8986569 11.1467284,25.3397145 L10.9745636,24.3810983 L8.81407778,24.6996032 L8.98624258,25.6582194 C9.15840737,26.4575992 9.67827211,27.1757619 10.3703362,27.5754518 L0,56.5937361 L0.0877675755,56.7529885 L0,56.9965515 C0,59.7131637 2.42043633,62.0332835 5.44511992,62.0332835 L18.4080348,62.0332835 C21.3449128,62.0332835 23.8531504,59.7943807 23.8531504,56.9965515 L23.6809856,56.8372991 L23.7687531,56.6780467 L13.3984213,28.0594523 C14.4347631,27.6597624 15.2146121,26.7791657 15.4711049,25.8205495 L31.7188224,23.1819568 C32.2386871,24.6214798 33.2750635,25.8985689 34.571355,26.7791657 L34.571355,66.0303101 L15.123526,66.0303101 L15.123526,71.9444444 L62.6542138,71.9444444 L62.6542138,65.9490931 L43.2098415,65.9490931 L43.2098415,26.6979487 C45.1981798,25.4176621 46.4944713,23.3411932 46.4944713,20.943054 L46.4944713,20.7026165 L62.8260156,18.0640239 C63.2581128,18.7041512 63.8623574,19.1818765 64.6422064,19.4223299 L54.0998998,48.6812275 L54.1876674,48.84048 L54.0155026,48.9997324 C54.0155026,51.7163445 56.4359381,54.0364643 59.4606182,54.0364643 L72.4235331,54.0364643 C75.3604111,54.0364643 77.8686487,51.7975615 77.8686487,48.9997324 L77.6964839,48.84048 L77.6901666,48.6806759 Z M18.4081644,60.0342665 L5.44524955,60.0342665 C4.06115851,60.0342665 2.85266917,59.2348868 2.420572,58.0358172 L21.5209924,58.0358172 C21.0011276,59.1536698 19.7892334,60.0342665 18.4085101,60.0342665 L18.4081644,60.0342665 Z M21.1728949,56.0373678 L2.59271951,56.0373678 L11.838732,30.1390627 L21.1728949,56.0373678 Z M26.9623055,5.75478278 C30.3312806,3.27542655 34.5679069,1.99833746 38.8890514,1.99833746 C43.2978251,1.99833746 47.4431925,3.35664353 50.8996241,5.83599976 C46.2343574,6.71347891 42.5176305,10.1513714 41.4816343,14.3885637 C40.9617696,14.2293113 40.5296379,14.1481263 40.0131953,14.0700588 L40.0131953,5.03626829 L37.8527095,5.03626829 L37.8527095,14.0700588 C37.3328448,14.1512438 36.9007131,14.2293113 36.4686159,14.3885637 C35.3444719,10.0731921 31.6311153,6.7132391 26.9624783,5.75446303 L26.9623055,5.75478278 Z M60.4939095,67.9473307 L60.4939095,69.94578 L17.2841933,69.94578 L17.2841933,67.9473307 L60.4939095,67.9473307 Z M36.7285655,65.9488773 L36.7285655,27.660194 C37.4205951,27.8194465 38.1126592,27.9786989 38.8890514,27.9786989 C39.6654435,27.9786989 40.3574904,27.8975139 41.0495372,27.660194 L41.0495372,65.9488773 L36.7285655,65.9488773 Z M38.8890514,25.9798898 C35.9521734,25.9798898 33.4439358,23.740987 33.4439358,20.9431579 C33.4439358,18.1453368 35.9520869,15.987643 38.8890514,15.987643 C41.8260158,15.987643 44.334167,18.2265458 44.334167,21.0243749 C44.334167,23.822204 41.8260158,25.9798898 38.8890514,25.9798898 Z M65.8510501,22.1422275 L75.185213,48.0437382 L56.605035,48.0437382 L65.8510501,22.1422275 Z M72.4203096,52.0406369 L59.4573948,52.0406369 C58.0733012,52.0406369 56.8648118,51.2412572 56.4327146,50.0421875 L75.5331376,50.0421875 C75.0132729,51.1600402 73.8013786,52.0406369 72.4206553,52.0406369 L72.4203096,52.0406369 Z" id="Fill-1-Copy-2" fill="#000000"></path>
            </g>
        </g>
    </g>
</svg>