<?xml version="1.0" encoding="UTF-8"?>
<svg width="75px" height="73px" viewBox="0 0 75 73" version="1.1" xmlns="http://www.w3.org/2000/svg" xmlns:xlink="http://www.w3.org/1999/xlink">
    <!-- Generator: Sketch 50.2 (55047) - http://www.bohemiancoding.com/sketch -->
    <title>icon-auction</title>
    <desc>Created with Sketch.</desc>
    <defs></defs>
    <g id="Page-1" stroke="none" stroke-width="1" fill="none" fill-rule="evenodd">
        <g id="icon-auction" transform="translate(0.333333, 0.000000)">
            <path d="M15.3165677,58.0490072 L35.6499793,37.9867077 L38.947172,41.2399379 L38.9221695,41.2646071 C38.4888347,41.692164 38.4888347,42.3855952 38.9221695,42.8158324 L43.7888479,47.6176218 C44.0055153,47.8314003 44.2888419,47.938286 44.5749774,47.938286 C44.8583111,47.938286 45.1444182,47.8314003 45.3611069,47.6176218 L58.3416656,34.8101372 C58.7750004,34.3825802 58.7750004,33.689149 58.3416656,33.2589118 L53.4749872,28.4571225 C53.0416524,28.0295655 52.3388505,28.0295655 51.9027993,28.4571225 L51.8778039,28.4817846 L40.4666597,17.2227891 L40.4916552,17.1981269 C40.9249899,16.7705699 40.9249899,16.0771387 40.4916552,15.6469015 L35.6249768,10.8451122 C35.191642,10.4175552 34.4888401,10.4175552 34.0527889,10.8451122 L21.0722302,23.6525968 C20.6389025,24.0801467 20.6389025,24.7735849 21.0722302,25.2038221 L25.9389086,30.0056115 C26.155576,30.21939 26.4389097,30.3262757 26.7250381,30.3262757 C27.0083718,30.3262757 27.2944788,30.21939 27.5111676,30.0056115 L27.5361701,29.9809423 L30.8333629,33.2341725 L10.4999513,53.2964719 L10.4749487,53.2718028 C10.0582844,52.8606919 9.31940094,52.8606919 8.90276298,53.2718028 L5.65833441,56.4729723 C5.22499964,56.9005293 5.22499964,57.5939605 5.65833441,58.0241976 L10.5250107,62.825987 C10.7444514,63.0397655 11.0277851,63.1466512 11.3111402,63.1466512 C11.5944952,63.1466512 11.8805809,63.0397655 12.0972697,62.825987 L15.3416982,59.6248175 C15.5500314,59.4192621 15.6666957,59.1424495 15.6666957,58.8491697 C15.6666957,58.5586544 15.5500314,58.2790984 15.3416982,58.073522 L15.3165677,58.0490072 Z" id="Fill-3" fill="#F5CB07"></path>
            <g id="Group-2" stroke-width="1" transform="translate(32.000000, 52.622222)" fill="#F5CB07">
                <path d="M41.0619651,19.9407168 L41.0619651,20.2572361 L0,20.2572361 L0,18.8328992 L0,9.97035839 C0,9.35829006 0.502448576,8.86254079 1.12278811,8.86254079 L4.49115243,8.86254079 L4.49115243,3.3234528 C4.49115243,1.49004126 6.00132938,0 7.85951675,0 L34.8064313,0 C36.6646187,0 38.1747957,1.49004126 38.1747957,3.3234528 L38.1747957,8.86254079 L41.54316,8.86254079 L41.5438786,8.86254079 C42.1642181,8.86254079 42.6666667,9.35829006 42.6666667,9.97035839 L42.6666667,18.8328992 C42.6666667,19.4449675 42.1642181,19.9407168 41.5438786,19.9407168 L41.0619651,19.9407168 Z" id="Combined-Shape"></path>
            </g>
            <g id="Group" stroke-width="1" fill="#000000">
                <path d="M69.8333333,56.5688889 L66.3333333,56.5688889 L66.3333333,50.8133333 C66.3333333,48.9082721 64.7641387,47.36 62.8333333,47.36 L34.8333333,47.36 C32.902528,47.36 31.3333333,48.9082721 31.3333333,50.8133333 L31.3333333,56.5688889 L27.8333333,56.5688889 C27.1887509,56.5688889 26.6666667,57.084012 26.6666667,57.72 L26.6666667,66.9288889 C26.6666667,67.5648769 27.1887509,68.08 27.8333333,68.08 L50.0003733,68.08 L50.0003733,65.7777778 L29.0003733,65.7777778 L29.0003733,58.8711111 L68.66704,58.8711111 L68.66704,65.7777778 L57.0003733,65.7777778 L57.0003733,68.08 L69.83408,68.08 C70.4786624,68.08 71.0007467,67.5648769 71.0007467,66.9288889 L71.0007467,57.72 C71.0007467,57.084012 70.4786624,56.5688889 69.83408,56.5688889 L69.8333333,56.5688889 Z M33.6662933,56.5688889 L33.6662933,50.8133333 C33.6662933,50.1773454 34.1912896,49.6622222 34.83296,49.6622222 L62.83296,49.6622222 C63.4746304,49.6622222 63.9996267,50.1773454 63.9996267,50.8133333 L63.9996267,56.5688889 L33.6662933,56.5688889 Z" id="Fill-2"></path>
                <path d="M10.4824474,49.901035 L31.832634,28.8355175 L35.2947034,32.2514259 L35.2684506,32.2773287 C34.8134468,32.7262657 34.8134468,33.454372 35.2684506,33.9061233 L40.3784879,38.9480268 C40.6059898,39.1724953 40.9034842,39.2847259 41.2039279,39.2847259 C41.5014298,39.2847259 41.8018436,39.1724953 42.0293679,38.9480268 L55.6590212,25.5001022 C56.114025,25.0511651 56.114025,24.3230588 55.6590212,23.8713076 L50.5489839,18.8294041 C50.0939802,18.380467 49.3560346,18.380467 48.8981786,18.8294041 L48.8719332,18.8552995 L36.8901732,7.03329626 L36.9164186,7.00740086 C37.3714223,6.55846384 37.3714223,5.83035752 36.9164186,5.37860626 L31.8063812,0.336702763 C31.3513775,-0.112234254 30.6134319,-0.112234254 30.1555759,0.336702763 L16.5259226,13.7846274 C16.0709263,14.233557 16.0709263,14.9616707 16.5259226,15.413422 L21.6359599,20.4553255 C21.8634618,20.679794 22.1609636,20.7920246 22.4613999,20.7920246 C22.7589018,20.7920246 23.0593156,20.679794 23.2868399,20.4553255 L23.3130927,20.4294227 L26.775162,23.8453311 L5.42497536,44.9108486 L5.39872256,44.8849459 C4.96122293,44.4532774 4.18539147,44.4532774 3.74791947,44.8849459 L0.3412528,48.2461903 C-0.113750933,48.6951273 -0.113750933,49.4232337 0.3412528,49.8749849 L5.45128789,54.9168884 C5.68170176,55.1413569 5.97920363,55.2535875 6.27672789,55.2535875 C6.57425216,55.2535875 6.87464363,55.1413569 7.10216789,54.9168884 L10.5088346,51.555644 C10.7275855,51.3398097 10.8500836,51.0491551 10.8500836,50.7412098 C10.8500836,50.4361672 10.7275855,50.1426321 10.5088346,49.9267757 L10.4824474,49.901035 Z M53.1828207,24.6856238 L41.2040474,36.5046802 L37.741978,33.0887718 L49.723738,21.2667686 L53.1828207,24.6856238 Z M19.0026607,14.599312 L30.981434,2.78025564 L34.4435034,6.19616405 L22.46473,18.0152204 L19.0026607,14.599312 Z M30.103354,13.7330871 L35.2425114,8.66245184 L47.2212847,20.484455 L36.945658,30.6230734 L24.9668847,18.804017 L30.103354,13.7330871 Z M28.426266,25.4718419 L30.1850394,27.2071649 L8.83485269,48.2726825 L7.07607936,46.5402326 L28.426266,25.4718419 Z M6.27714603,52.4737776 L2.81507595,49.0578692 L4.57093728,47.3225461 L8.00388736,50.7097228 C8.00388736,50.7097228 8.00679936,50.7097228 8.00679936,50.7126033 L8.03013269,50.7356256 L6.27714603,52.4737776 Z" id="Fill-3"></path>
            </g>
        </g>
    </g>
</svg>