<?xml version="1.0" encoding="UTF-8"?>
<svg width="42px" height="32px" viewBox="0 0 42 32" version="1.1" xmlns="http://www.w3.org/2000/svg" xmlns:xlink="http://www.w3.org/1999/xlink">
    <!-- Generator: Sketch 53.2 (72643) - https://sketchapp.com -->
    <title>Fill 1</title>
    <desc>Created with Sketch.</desc>
    <g id="v2-Content" stroke="none" stroke-width="1" fill="none" fill-rule="evenodd">
        <g id="Content-published-after-vote" transform="translate(-836.000000, -1653.000000)" fill="#5d5d5d">
            <g id="Group-32" transform="translate(698.000000, 1653.000000)">
                <path d="M179.39444,14.1263761 L179.342434,14.0778034 L162.421025,0.147604402 C162.224377,-0.0126826206 161.952974,-0.0450616603 161.723816,0.0634155832 C161.49304,0.170272217 161.346775,0.401799759 161.346775,0.65437865 L161.346775,8.4420102 C160.755199,8.4420102 160.225407,8.4420102 159.700482,8.4630574 C149.821062,8.82086817 141.417355,15.1253805 138.82331,24.1564468 C138.103343,26.504093 137.851469,28.9681246 138.083872,31.4131317 C138.113125,31.6964649 138.322774,31.9279966 138.603929,31.9862722 C138.883458,32.0445562 139.169502,31.9134152 139.309252,31.6656982 C146.430706,20.5004835 158.666609,21.2954528 161.364665,21.6307657 L161.364665,29.2045264 C161.364665,29.4603383 161.514183,29.6934864 161.748209,29.8019554 C161.980608,29.908812 162.256908,29.8699547 162.450286,29.7015729 L179.350476,15.1865451 L179.381351,15.1557825 C179.667366,14.8740658 179.673898,14.415856 179.394352,14.1260528 L179.39444,14.1263761 Z M162.6615,27.7784602 L162.6615,21.0514784 C162.659873,20.7373827 162.4356,20.4686391 162.126798,20.4087056 C161.977279,20.3828007 147.963356,17.887849 139.309188,29.3233035 C139.36607,27.6977613 139.624471,26.0868087 140.076293,24.5244745 C142.510824,16.0421774 150.412529,10.1263295 159.739445,9.78148365 C160.134364,9.78148365 160.51953,9.76043645 160.935576,9.76043645 L161.977313,9.76043645 C162.152834,9.77014768 162.325102,9.71186375 162.460009,9.59853296 C162.585147,9.47548266 162.656657,9.30710503 162.656657,9.13224495 L162.656657,2.04549609 L177.985443,14.6448055 L162.6615,27.7784602 Z" id="Fill-1"></path>
            </g>
        </g>
    </g>
</svg>
