<?xml version="1.0" encoding="UTF-8"?>
<svg width="54px" height="73px" viewBox="0 0 54 73" version="1.1" xmlns="http://www.w3.org/2000/svg" xmlns:xlink="http://www.w3.org/1999/xlink">
    <!-- Generator: Sketch 50.2 (55047) - http://www.bohemiancoding.com/sketch -->
    <title>icon-suggested</title>
    <desc>Created with Sketch.</desc>
    <defs></defs>
    <g id="Page-1" stroke="none" stroke-width="1" fill="none" fill-rule="evenodd">
        <g id="icon-suggested" transform="translate(0.000000, -1.000000)">
            <g id="Group-30">
                <circle id="Oval-4" fill="#F5CB07" cx="27.1333333" cy="46.8666667" r="27.1333333"></circle>
                <g id="Group" fill="#000000">
                    <path d="M34.2521333,64.8575467 L17.2587733,64.8575467 L17.2626312,64.8575467 C16.6536704,64.8575467 16.1641752,64.3680712 16.1641752,63.7629387 L16.1641752,53.5844853 C15.9868811,50.7362747 15.0233912,47.9959067 13.3814792,45.668064 C7.37287653,42.357304 3.1221192,36.5721813 1.76545253,29.846864 C0.404937867,23.1213493 2.07378587,16.1371307 6.32493787,10.7528907 C10.5760899,5.36865067 16.9819245,2.12725333 23.8382712,1.89213067 C30.6986632,1.65316987 37.3121912,4.4474 41.9218979,9.52725333 C46.5353539,14.607008 48.6821432,21.46 47.7879272,28.26208 C46.8937112,35.06416 43.0511379,41.1272267 37.2819005,44.8430133 C35.9599645,47.4060773 35.2931752,50.261984 35.3471459,53.1487733 L35.3471459,63.7633333 C35.3471459,64.3645883 34.8576704,64.8579413 34.2525379,64.8579413 L34.2521333,64.8575467 Z M18.35792,62.6644827 L33.15792,62.6644827 L33.15792,53.148576 C33.0923955,49.8571547 33.8670867,46.6080613 35.4126507,43.70588 C35.4897389,43.4784829 35.6439056,43.2857771 35.8481752,43.1547379 C41.1322685,39.8478259 44.6819005,34.3749832 45.5452339,28.2047645 C46.4124251,22.0342499 44.5084445,15.7984179 40.3421459,11.1620712 C36.1795965,6.5293752 30.1784925,3.9701592 23.9506525,4.17834587 C17.7223192,4.38261547 11.9024659,7.33104187 8.05249253,12.2297432 C4.2022232,17.1322925 2.71442853,23.4836632 3.98634053,29.5812632 C5.26210053,35.6824152 9.16634053,40.9081965 14.6541805,43.8573432 C14.7967835,43.9344315 14.9201168,44.0423432 15.0126168,44.1733824 C17.0128861,46.9214464 18.1730088,50.1897797 18.3580088,53.5814464 L18.35792,62.6644827 Z" id="Fill-1"></path>
                    <path d="M33.4884533,54.8566933 L17.7748,54.8566933 C17.1696971,54.8566933 16.680192,54.3672179 16.680192,53.7620853 C16.680192,53.1569528 17.1696675,52.6636293 17.7748,52.6636293 L33.4884533,52.6636293 C34.0974141,52.6636293 34.5869093,53.1569627 34.5869093,53.7620853 C34.5869093,54.367208 34.0974339,54.8566933 33.4884533,54.8566933 Z" id="Fill-2"></path>
                    <path d="M25.60696,54.8566933 C25.0018571,54.8566933 24.508504,54.3672179 24.508504,53.7620853 L24.508504,28.810272 L20.6890187,28.8950661 C19.7216216,29.0145416 18.7812,28.5096544 18.3418373,27.6386448 C17.6827736,26.1046741 19.2321461,24.3009488 20.453896,23.0753115 L20.453896,23.0791595 C21.2825381,22.127184 22.492744,21.5991595 23.753112,21.6377381 C24.843872,21.7649293 25.8343867,22.3314832 26.4933813,23.2102875 C26.6282784,23.3952875 26.7015088,23.6226845 26.7015088,23.8539296 L26.7015088,26.5711109 C29.9506021,26.5055963 31.0875381,26.4978805 31.1029301,26.4978805 L31.110636,26.4978805 L31.1144939,26.4940325 C31.7195968,26.4940325 32.2129499,26.983508 32.2129499,27.5886405 C32.2167979,28.1937435 31.7273224,28.6870965 31.1221899,28.6870965 C31.1067683,28.6870965 29.9659152,28.6948024 26.7014299,28.7603269 L26.7014299,53.7585136 C26.7052779,54.0475773 26.5896603,54.3289253 26.3815328,54.5370528 C26.1772632,54.7413224 25.8959053,54.8569499 25.6068416,54.8569499 L25.60696,54.8566933 Z M20.419264,26.69032 C20.4924944,26.7018837 20.5657248,26.7057317 20.6389552,26.7018837 C22.1112592,26.6671925 23.3947152,26.6402171 24.5124112,26.6132317 L24.5124112,24.2775944 C24.2541808,24.0270699 23.9265779,23.8690552 23.5719995,23.8266581 C22.9553328,23.8536435 22.3849408,24.1465552 22.0072448,24.6283248 C21.3443232,25.2025944 20.8046955,25.9040848 20.4193035,26.6902608 L20.419264,26.69032 Z" id="Fill-3"></path>
                    <path d="M28.3202933,69.0400267 L22.9475973,69.0400267 C22.3424944,69.0400267 21.8529893,68.5505512 21.8529893,67.9454187 L21.8529893,63.7636293 C21.8529893,63.1546685 22.3424648,62.6651733 22.9475973,62.6651733 C23.5527003,62.6651733 24.0460533,63.1546488 24.0460533,63.7636293 L24.0460533,66.8508107 L27.225784,66.8508107 L27.225784,63.7636293 C27.225784,63.1546685 27.7152595,62.6651733 28.320392,62.6651733 C28.9255245,62.6651733 29.415,63.1546488 29.415,63.7636293 L29.415,67.9454187 C29.415,68.2344824 29.3032304,68.5158304 29.0951029,68.7201099 C28.8908333,68.9243795 28.6094755,69.0400069 28.3204117,69.0400069 L28.3202933,69.0400267 Z" id="Fill-4"></path>
                </g>
            </g>
        </g>
    </g>
</svg>