<?xml version="1.0" encoding="UTF-8"?>
<svg width="42px" height="41px" viewBox="0 0 42 41" version="1.1" xmlns="http://www.w3.org/2000/svg" xmlns:xlink="http://www.w3.org/1999/xlink">
    <!-- Generator: Sketch 53 (72520) - https://sketchapp.com -->
    <title>Group 5</title>
    <desc>Created with Sketch.</desc>
    <g id="V2-KYC" stroke="none" stroke-width="1" fill="none" fill-rule="evenodd">
        <g id="KYC-step3-3" transform="translate(-728.000000, -797.000000)" stroke="#ABC1DF" stroke-width="0.95890411">
            <g id="Group-2" transform="translate(304.000000, 710.000000)">
                <g id="Group-16" transform="translate(183.000000, 63.000000)">
                    <g id="Group-5" transform="translate(242.000000, 25.000000)">
                        <g id="Group-13">
                            <g id="Group-7">
                                <path d="M26.1472603,6.03063378 C26.1472603,9.36305389 23.2720185,12.0634921 19.7260274,12.0634921 C16.1800363,12.0634921 13.3047945,9.36322073 13.3047945,6.03063378 C13.3047945,2.70038256 16.1800363,0 19.7260274,0 C23.2720185,0 26.1472603,2.70027133 26.1472603,6.03063378" id="Fill-1"></path>
                                <path d="M31.2842466,17.1428571 L8.16780822,17.1428571 C10.6613758,14.3825932 15.2988138,12.6984127 19.7285656,12.6984127 C24.1530506,12.6984127 28.7904886,14.3825932 31.2842466,17.1428571 Z" id="Fill-3"></path>
                                <path d="M34.5593306,29.1971179 C33.6462971,30.8553643 34.1228866,32.5580555 35.8611047,33.8690627 C36.2649417,34.1762218 36.6963771,34.3809983 37.137836,34.4789249 L37.140411,39.4824962 L2.46575342,39.4824962 L2.46575342,34.4789249 C3.10787552,34.3809869 3.44897078,34.178444 3.85286558,33.8690627 C5.59359438,32.5580555 6.12032714,30.8553073 5.20735794,29.1971179 C4.62292409,28.1265114 3.58452276,27.823774 2.94740921,27.6301543 C2.81195998,27.5856354 2.46581764,27.5344442 2.46581764,27.4877031 L2.46575342,17.260274 L37.140411,17.260274 L37.140411,27.4877031 C37.0501157,27.5322162 36.8770382,27.5856411 36.7415953,27.6301543 C36.1069989,27.8237968 35.1438029,28.1265057 34.5594076,29.1971179 L34.5593306,29.1971179 Z" id="Fill-4"></path>
                                <path d="M38.8957648,33.2499145 C38.4935304,33.6970471 37.6014305,34.1906915 36.5649201,33.8896224 C36.5314017,33.8829811 36.4978833,33.8719142 36.4669391,33.8608472 C36.3999022,33.8431389 36.3431757,33.8165737 36.2761388,33.7877984 C36.0776025,33.708114 35.8790662,33.5952231 35.6831041,33.4469156 C34.2830263,32.4264655 33.6306776,31.0319601 34.5073846,29.4802618 C34.713657,29.1238806 34.9689199,28.8693405 35.239668,28.6878377 C35.2860777,28.6590625 35.3247579,28.6302872 35.3711675,28.6081533 C35.4098411,28.5793781 35.4562573,28.5572441 35.4949309,28.5417459 C35.6857312,28.4399219 35.8765315,28.3646631 36.0621832,28.3093226 C36.1085928,28.2916143 36.1550025,28.2739061 36.1936827,28.2650548 C36.3251821,28.2252069 36.4437904,28.1853647 36.562392,28.1521638 C36.9517287,28.0282059 37.2301865,27.9020323 37.2224636,27.574449 L37.2224636,25.0930804 C37.2224636,25.0930804 39.3599734,26.6801953 39.7699438,29.0309476 C40.1876437,31.37949 39.4089639,32.6788524 38.895877,33.2499372 L38.8957648,33.2499145 Z" id="Fill-5"></path>
                                <path d="M4.29526038,33.4753732 C2.90078485,34.4951196 1.6065017,33.8492047 1.0877234,33.2762939 C0.574105936,32.7033944 -0.301624174,31.4071363 0.104141844,29.0580048 C0.517606371,26.7088733 2.53354425,25.1228528 2.53354425,25.1228528 L2.53354425,27.6025105 C2.53354425,28.4452962 4.48269378,27.9608544 5.35845676,29.5114771 C6.23159002,31.0621055 5.68203741,32.4556495 4.29526038,33.4753959 L4.29526038,33.4753732 Z" id="Fill-6"></path>
                            </g>
                        </g>
                    </g>
                </g>
            </g>
        </g>
    </g>
</svg>