<?xml version="1.0" encoding="UTF-8"?>
<svg width="17px" height="16px" viewBox="0 0 17 16" version="1.1" xmlns="http://www.w3.org/2000/svg" xmlns:xlink="http://www.w3.org/1999/xlink">
    <!-- Generator: Sketch 50.2 (55047) - http://www.bohemiancoding.com/sketch -->
    <title>icon-telegram</title>
    <desc>Created with Sketch.</desc>
    <defs></defs>
    <g id="footer" stroke="none" stroke-width="1" fill="none" fill-rule="evenodd">
        <g id="Group-11" transform="translate(-155.000000, -45.000000)">
            <g id="Group-10" transform="translate(0.000000, 45.000000)">
                <g id="icon-telegram" transform="translate(155.000000, 0.000000)">
                    <g transform="translate(0.500000, 0.000000)" id="Shape">
                        <path d="M11.907863,5.00965914 L6.11906136,8.20991513 C6.01954041,8.26325273 5.97807335,8.36992793 6.011247,8.46898347 L6.7659475,10.9529917 C6.79082774,11.0215686 6.8986421,11.013949 6.90693551,10.9377524 L7.07280375,9.22332953 C7.08109716,9.09379536 7.14744446,8.97188084 7.25525882,8.88806461 L11.9825037,5.10109502 C12.0322642,5.05537708 11.9659169,4.97156085 11.907863,5.00965914 Z" fill="#BAC2CF" fill-rule="nonzero"></path>
                        <path d="M13.2345679,0 L2.7654321,0 C1.24049383,0 0,1.24049383 0,2.7654321 L0,13.2345679 C0,14.7595062 1.24049383,16 2.7654321,16 L13.2345679,16 C14.7595062,16 16,14.7595062 16,13.2345679 L16,2.7654321 C16,1.24049383 14.7516049,0 13.2345679,0 Z M13.6928395,3.49234568 L11.6701235,12.6814815 C11.5990123,12.9896296 11.2355556,13.1160494 10.9906173,12.9185185 L8.62024691,11.0380247 C8.44641975,10.8958025 8.18567901,10.9195062 8.03555556,11.0933333 L6.81876543,12.4997531 C6.6054321,12.7525926 6.1945679,12.665679 6.09975309,12.3575309 L5.02518519,9.04691358 C4.97777778,8.91259259 4.86716049,8.80197531 4.73283951,8.77037037 L2.60740741,8.20938272 C2.22024691,8.10666667 2.18074074,7.56938272 2.55209877,7.41135802 L13.1160494,3.01037037 C13.4320988,2.88395062 13.7639506,3.16049383 13.6928395,3.49234568 Z" fill="#40a9ff" fill-rule="nonzero"></path>
                    </g>
                </g>
            </g>
        </g>
    </g>
</svg>
