<?xml version="1.0" encoding="UTF-8"?>
<svg width="75px" height="74px" viewBox="0 0 75 74" version="1.1" xmlns="http://www.w3.org/2000/svg" xmlns:xlink="http://www.w3.org/1999/xlink">
    <!-- Generator: Sketch 50.2 (55047) - http://www.bohemiancoding.com/sketch -->
    <title>icon-complete</title>
    <desc>Created with Sketch.</desc>
    <defs></defs>
    <g id="Page-1" stroke="none" stroke-width="1" fill="none" fill-rule="evenodd">
        <g id="icon-complete">
            <g id="Group-27">
                <g id="Group">
                    <path d="M68.977415,25.766678 C73.2999688,38.1865298 70.1220285,51.8891965 60.9235621,61.1111943 C47.6587239,74.4140416 26.1449203,74.4140416 12.8716296,61.1111943 C-0.39320988,47.7998709 -0.39320988,26.2244225 12.8716296,12.9138056 C24.51006,1.24203405 42.8104932,-0.372786862 56.2626958,9.01209875 C57.2807327,9.7184946 56.2021616,11.2637355 55.1868999,10.5600946 C42.4806332,1.70259708 25.1987299,3.23406327 14.2033963,14.257653 C1.67604288,26.8209032 1.67604288,47.2074874 14.2033963,59.7707375 C26.7392036,72.3424633 47.0668355,72.3424633 59.5941903,59.7707375 C66.8084252,52.5358312 70.324678,42.1327396 68.5447159,31.617331 C68.2475601,29.8154565 67.7908206,28.071577 67.2047785,26.388377 C66.7982681,25.214778 68.5702144,24.5939267 68.977415,25.766678 Z" id="Fill-2" stroke="#05CDA4" stroke-width="4.625" fill="#05CDA4"></path>
                    <path d="M13.2108484,36.4459935 C15.2283645,34.4209867 18.5236287,34.4209867 20.5385951,36.4459935 L32.81197,48.7649375 C43.6990537,36.2807465 54.586866,23.7848567 65.4739498,11.3006657 C67.3577176,9.14426557 70.6358626,8.92432621 72.7842131,10.806548 C74.9155901,12.6973099 75.1347159,16.0076605 73.2651242,18.1439532 L36.9549333,59.7898513 C34.974351,62.0605351 31.4771531,62.1661908 29.3627495,60.0012066 L13.2051371,43.7923776 C11.187621,41.7673708 11.187621,38.4598718 13.2051371,36.4461983 L13.2108484,36.4459935 Z" id="Fill-1" fill="#05CDA4"></path>
                    <path d="M11.7493484,29.8501691 C13.7668645,27.8251623 17.0621287,27.8251623 19.0770951,29.8501691 L31.35047,42.1691131 C42.2375537,29.6849221 53.125366,17.1890323 64.0124498,4.7048413 C65.8962176,2.54844116 69.1743626,2.3285018 71.3227131,4.21072355 C73.4540901,6.10148549 73.6732159,9.41183609 71.8036242,11.5481287 L35.4934333,53.1940269 C33.512851,55.4647106 30.0156531,55.5703664 27.9012495,53.4053821 L11.7436371,37.1965532 C9.72612097,35.1715464 9.72612097,31.8640474 11.7436371,29.8503738 L11.7493484,29.8501691 Z M13.1266063,31.2325406 C11.8716596,32.4921468 11.8716596,34.5571493 13.1266063,35.8166823 L29.2842188,52.0342854 C30.6415893,53.4081021 32.8156551,53.3110013 34.0449595,51.9114689 C46.1413145,38.0277968 58.2500536,24.1521676 70.3464087,10.2655708 C71.5643488,8.8660165 71.3366998,6.81527207 69.9594054,5.60999267 C68.670366,4.4846314 66.5845187,4.72175353 65.4804395,5.98700442 L32.1868705,44.1744146 C31.7827917,44.6771018 31.12548,44.7028101 30.7128708,44.2886617 L17.703006,31.2304933 C16.4395361,29.9623323 14.3793312,29.9623323 13.1272984,31.2304933 L13.1266063,31.2325406 Z" id="Fill-1" fill="#000000"></path>
                    <path d="M68.1852026,23.5718199 C72.6471936,36.3923121 69.3667391,50.5370002 59.8715479,60.0564818 C46.1788118,73.7884532 23.9710145,73.7884532 10.2695532,60.0564818 C-3.42318439,46.3157609 -3.42318439,24.0443303 10.2695532,10.3043386 C22.2834168,-1.74394165 41.1741866,-3.41085355 55.0603311,6.27677031 C56.1112079,7.00595312 54.9978442,8.60104052 53.9498322,7.87470152 C40.8336859,-1.26852175 22.9943018,0.312346588 11.64428,11.691536 C-1.28718154,24.6600523 -1.28718154,45.7042682 11.64428,58.6727845 C24.5844683,71.6500498 45.5678302,71.6500498 58.4992932,58.6727845 C65.9462454,51.2044942 69.5759256,40.4658189 67.7385454,29.6112036 C67.431804,27.7512041 66.9603309,25.9510705 66.3553842,24.2135737 C65.9357606,23.0021166 67.7648664,22.3612379 68.1852026,23.5718199 Z" id="Fill-2" fill="#000000"></path>
                </g>
            </g>
        </g>
    </g>
</svg>