<?xml version="1.0" encoding="UTF-8"?>
<svg width="26px" height="27px" viewBox="0 0 26 27" version="1.1" xmlns="http://www.w3.org/2000/svg" xmlns:xlink="http://www.w3.org/1999/xlink">
    <!-- Generator: Sketch 52.5 (67469) - http://www.bohemiancoding.com/sketch -->
    <title>Icons/emoticon-smile Copy</title>
    <desc>Created with Sketch.</desc>
    <g id="v2-Member-Page" stroke="none" stroke-width="1" fill="none" fill-rule="evenodd">
        <g id="Profile-Member-v2-rep-verified-high" transform="translate(-1200.000000, -651.000000)">
            <g id="Group-55" transform="translate(502.000000, 490.000000)">
                <g id="Group-38">
                    <g id="Group-20">
                        <g id="Group-32" transform="translate(202.000000, 161.000000)">
                            <g id="Icons/emoticon-smile" transform="translate(496.000000, 0.000000)">
                                <g id="Group-40">
                                    <circle id="Oval" fill="#A6E7D9" fill-rule="nonzero" cx="14" cy="15" r="12"></circle>
                                    <path d="M12.3448454,24.6896899 C5.54123711,24.6896899 5.34683409e-13,19.1484536 5.34683409e-13,12.3448454 C5.34683409e-13,5.54123711 5.54123711,1.24344979e-14 12.3448454,1.24344979e-14 C19.1484536,1.24344979e-14 24.6896907,5.54123711 24.6896907,12.3448454 C24.6896907,19.1484536 19.1484536,24.6896899 12.3448454,24.6896899 Z M12.3448454,1.0296366 C6.10798969,1.0296366 1.02989639,6.10772938 1.02989639,12.3445876 C1.02989639,18.5814433 6.10695876,23.6585036 12.3438144,23.6585036 C18.5806701,23.6585036 23.657732,18.5814407 23.657732,12.3445876 C23.6587371,6.10773196 18.581701,1.0296366 12.3445876,1.0296366 L12.3448454,1.0296366 Z" id="Fill-1" fill="#192A2E"></path>
                                    <path d="M11.9024704,15.144893 C9.68556314,15.144893 7.59860438,14.320357 6.15478995,12.8766456 C5.94840335,12.670259 5.94840335,12.3611817 6.15478995,12.1547899 C6.36117655,11.9484034 6.67025387,11.9484034 6.87664562,12.1547899 C8.11396521,13.3921095 9.94314046,14.1139652 11.9024188,14.1139652 C13.8615941,14.1139652 15.6658209,13.3921095 16.928192,12.1547899 C17.1345786,11.9484034 17.4436559,11.9484034 17.6500477,12.1547899 C17.8564343,12.3611765 17.8564343,12.6702539 17.6500477,12.8766456 C16.2063363,14.320357 14.1183466,15.144893 11.9023673,15.144893 L11.9024704,15.144893 Z" id="Fill-2" fill="#192A2E"></path>
                                    <path d="M9.74330471,8 C9.63523137,8 9.52715803,7.95693926 9.4410452,7.86997481 C8.72758825,7.15651786 8.03609181,6.83229785 7.36569128,6.87535426 C6.41499174,6.96147575 5.78764763,7.80495789 5.78764763,7.80495789 C5.65762244,7.99915271 5.37731478,8.04306506 5.18226402,7.91303122 C4.98806921,7.78300603 4.94415685,7.50269838 5.07419069,7.30764762 C5.11725143,7.26458687 5.91681689,6.1188409 7.27867063,6.01076756 C8.20827425,5.92464608 9.13787787,6.35694808 10.0455642,7.2426307 C10.2186502,7.41571663 10.2186502,7.67492405 10.0455642,7.8480143 C9.95944274,7.95693277 9.8513694,7.99999135 9.74330471,7.99999135 L9.74330471,8 Z" id="Fill-3" fill="#192A2E"></path>
                                    <path d="M18.7863454,7.97801772 C18.654904,7.97801772 18.5243191,7.91229703 18.4363944,7.80304661 C18.4142034,7.78085566 17.8030915,6.92904318 16.8411633,6.86331813 C16.1634611,6.81978839 15.4644332,7.14754404 14.7432055,7.86877166 C14.5682344,8.04374278 14.3062038,8.04374278 14.1312283,7.86877166 C13.9562572,7.69380055 13.9562572,7.43176995 14.1312283,7.25679447 C15.0487571,6.33926567 15.9884856,5.92358965 16.9282578,6.01151439 C18.304988,6.12076482 19.1355534,7.27899415 19.156748,7.32251952 C19.2881894,7.51882943 19.2438075,7.78172092 19.0474976,7.93449672 C18.9612924,7.95583551 18.8733786,7.97802646 18.7863235,7.97802646 L18.7863454,7.97801772 Z" id="Fill-4" fill="#192A2E"></path>
                                </g>
                            </g>
                        </g>
                    </g>
                </g>
            </g>
        </g>
    </g>
</svg>