<?xml version="1.0" encoding="UTF-8"?>
<svg width="16px" height="16px" viewBox="0 0 16 16" version="1.1" xmlns="http://www.w3.org/2000/svg" xmlns:xlink="http://www.w3.org/1999/xlink">
    <!-- Generator: Sketch 50.2 (55047) - http://www.bohemiancoding.com/sketch -->
    <title>icon-rss</title>
    <desc>Created with Sketch.</desc>
    <defs></defs>
    <g id="footer" stroke="none" stroke-width="1" fill="none" fill-rule="evenodd">
        <g id="Group-11" transform="translate(0.000000, -45.000000)" fill="#40a9ff">
            <g id="Group-10" transform="translate(0.000000, 45.000000)">
                <g id="icon-rss">
                    <g id="Fill-1">
                        <path d="M3.76768709,12.2440315 C3.34221098,11.8097414 2.82478877,11.5935729 2.21542044,11.5935729 C1.60605212,11.5935729 1.0886299,11.8097364 0.663153793,12.2440315 C0.221051264,12.6695076 0,13.1869299 0,13.7962982 C0,14.4056665 0.221053768,14.9279715 0.663153793,15.361285 C1.0886299,15.7877377 1.60605212,16 2.21542044,16 C2.82478877,16 3.34221098,15.7877477 3.76768709,15.361285 C4.2019772,14.9279715 4.41912226,14.4056665 4.41912226,13.7962982 C4.41912226,13.1869299 4.20197971,12.6695076 3.76768709,12.2440315 Z M4.85731858,6.49765017 C3.78922131,6.03892122 2.66243077,5.80905595 1.47694696,5.80905595 L1.47694696,8.72569067 C2.2702075,8.72569067 3.0214012,8.88023375 3.73052804,9.18932742 C4.45628131,9.48960457 5.07836985,9.89845426 5.59579206,10.4158765 C6.11321428,10.9332987 6.52206397,11.551481 6.82331768,12.2693968 C7.13143229,12.9951501 7.28597787,13.750275 7.28597787,14.5356981 L10.2036142,14.5356981 C10.2036142,13.3502143 9.97375642,12.2234238 9.51501996,11.1553265 C9.04747701,10.0696263 8.42538847,9.13942311 7.64877939,8.36288915 C6.86433285,7.57844262 5.9341297,6.95635408 4.85734362,6.49762513 L4.85731858,6.49765017 Z M9.60213339,2.49125877 C8.81768686,1.95721013 7.99605623,1.50629359 7.13629001,1.13951075 C6.26770978,0.780540327 5.3580643,0.500795796 4.40645213,0.300277159 C3.44692738,0.0997635305 2.46977463,0 1.47704712,0 L1.47704712,2.90411482 C2.53733198,2.90411482 3.5682702,3.04202897 4.56996196,3.31784727 C5.57155355,3.59270904 6.49782545,3.98100106 7.34887783,4.48179686 C8.19201763,4.98259265 8.97646416,5.59196098 9.70319398,6.30990183 C10.4289472,7.0356551 11.0383156,7.82110322 11.5303224,8.66324143 C12.0311182,9.50638123 12.4194353,10.4326531 12.6952485,11.4431589 C12.9701103,12.4359365 13.1080044,13.4668747 13.1080044,14.5360737 L16.0131208,14.5360737 C16.0131208,13.5422946 15.9123758,12.5661434 15.7128437,11.6056671 C15.5123301,10.6461424 15.2286743,9.7364969 14.8609149,8.87683084 C14.5019445,8.01706462 14.059842,7.19936524 13.5336057,6.42273112 C12.9995571,5.63828459 12.402909,4.91643753 11.7436614,4.25718994 C11.0922262,3.60575477 10.3791932,3.01792066 9.60255907,2.49168444 L9.60213339,2.49125877 Z"></path>
                    </g>
                </g>
            </g>
        </g>
    </g>
</svg>
