<?xml version="1.0" encoding="UTF-8"?>
<svg width="26px" height="24px" viewBox="0 0 26 24" version="1.1" xmlns="http://www.w3.org/2000/svg" xmlns:xlink="http://www.w3.org/1999/xlink">
    <!-- Generator: Sketch 52.6 (67491) - http://www.bohemiancoding.com/sketch -->
    <title>“</title>
    <desc>Created with Sketch.</desc>
    <g id="v2-Content" stroke="none" stroke-width="1" fill="none" fill-rule="evenodd">
        <g id="Content-creation-review" transform="translate(-300.000000, -1057.000000)" fill="#40a9ff">
            <g id="Group-13" transform="translate(298.000000, 1041.000000)">
                <path d="M11.48,18.76 C10.546662,19.9733394 9.6366711,21.6649891 8.75,23.835 C7.8633289,26.0050108 7.4433331,27.9999909 7.49,29.82 C7.9100021,29.6799993 8.3999972,29.61 8.96,29.61 C10.3133401,29.61 11.456662,29.9949961 12.39,30.765 C13.323338,31.5350038 13.79,32.6899923 13.79,34.23 C13.79,35.7233408 13.3116715,36.9716616 12.355,37.975 C11.3983286,38.9783383 10.1500077,39.48 8.61,39.48 C6.6033233,39.48 5.05167215,38.7916735 3.955,37.415 C2.85832785,36.0383264 2.31,34.2766774 2.31,32.13 C2.31,29.8433219 2.85832785,27.3700133 3.955,24.71 C5.05167215,22.0499867 6.6499895,19.4133464 8.75,16.8 L11.48,18.76 Z M25.48,18.76 C24.546662,19.9733394 23.6366711,21.6649891 22.75,23.835 C21.8633289,26.0050108 21.4433331,27.9999909 21.49,29.82 C21.9100021,29.6799993 22.3999972,29.61 22.96,29.61 C24.3133401,29.61 25.456662,29.9949961 26.39,30.765 C27.323338,31.5350038 27.79,32.6899923 27.79,34.23 C27.79,35.7233408 27.3116715,36.9716616 26.355,37.975 C25.3983285,38.9783383 24.1500077,39.48 22.61,39.48 C20.6033233,39.48 19.0516721,38.7916735 17.955,37.415 C16.8583278,36.0383264 16.31,34.2766774 16.31,32.13 C16.31,29.8433219 16.8583278,27.3700133 17.955,24.71 C19.0516721,22.0499867 20.6499895,19.4133464 22.75,16.8 L25.48,18.76 Z" id="“"></path>
            </g>
        </g>
    </g>
</svg>
