<?xml version="1.0" encoding="UTF-8"?>
<svg width="150px" height="148px" viewBox="0 0 150 148" version="1.1" xmlns="http://www.w3.org/2000/svg" xmlns:xlink="http://www.w3.org/1999/xlink">
    <!-- Generator: Sketch 53 (72520) - https://sketchapp.com -->
    <title>icon-certification-selfie</title>
    <desc>Created with Sketch.</desc>
    <g id="V2-KYC" stroke="none" stroke-width="1" fill="none" fill-rule="evenodd">
        <g id="KYC-step3-3" transform="translate(-306.000000, -769.000000)">
            <g id="Group-2" transform="translate(304.000000, 710.000000)">
                <g id="icon-certification-selfie" transform="translate(4.000000, 61.000000)">
                    <g id="Group-13">
                        <g id="Group-7" stroke="#ABC1DF" stroke-width="3.5">
                            <path d="M95.4375,22.0118133 C95.4375,34.1751467 84.9428676,44.031746 72,44.031746 C59.0571324,44.031746 48.5625,34.1757557 48.5625,22.0118133 C48.5625,9.85639633 59.0571324,0 72,0 C84.9428676,0 95.4375,9.85599036 95.4375,22.0118133" id="Fill-1"></path>
                            <path d="M114.1875,62.5714286 L29.8125,62.5714286 C38.9140218,52.4964653 55.8406705,46.3492063 72.0092643,46.3492063 C88.1586347,46.3492063 105.085283,52.4964653 114.1875,62.5714286 Z" id="Fill-3"></path>
                            <path d="M126.141557,106.56948 C122.808985,112.62208 124.548536,118.836902 130.893032,123.622079 C132.367037,124.743209 133.941776,125.490644 135.553102,125.848076 L135.5625,144.111111 L9,144.111111 L9,125.848076 C11.3437457,125.490602 12.5887434,124.751321 14.0629594,123.622079 C20.4166195,118.836902 22.339194,112.621872 19.0068565,106.56948 C16.8736729,102.661767 13.0835081,101.556775 10.7580436,100.850063 C10.2636539,100.687569 9.00023437,100.500721 9.00023437,100.330116 L9,63 L135.5625,63 L135.5625,100.330116 C135.232922,100.492589 134.601189,100.68759 134.106823,100.850063 C131.790546,101.556858 128.274881,102.661746 126.141838,106.56948 L126.141557,106.56948 Z" id="Fill-4"></path>
                            <path d="M141.969542,121.362188 C140.501386,122.994222 137.245221,124.796024 133.461958,123.697122 C133.339616,123.672881 133.217274,123.632487 133.104328,123.592092 C132.859643,123.527457 132.652591,123.430494 132.407907,123.325464 C131.683249,123.034616 130.958591,122.622564 130.24333,122.081242 C125.133046,118.356599 122.751973,113.266654 125.951954,107.602956 C126.704848,106.302164 127.636558,105.373093 128.624788,104.710608 C128.794183,104.605578 128.935366,104.500548 129.104761,104.41976 C129.24592,104.31473 129.415339,104.233941 129.556498,104.177372 C130.252919,103.805715 130.94934,103.53102 131.626969,103.329028 C131.796364,103.264392 131.965759,103.199757 132.106942,103.16745 C132.586915,103.022005 133.019835,102.876581 133.452731,102.755398 C134.87381,102.302951 135.890181,101.842418 135.861992,100.646739 L135.861992,91.5897436 C135.861992,91.5897436 143.663903,97.3827127 145.160295,105.962959 C146.6849,114.535138 143.842718,119.277811 141.969951,121.362271 L141.969542,121.362188 Z" id="Fill-5"></path>
                            <path d="M15.6777004,122.185112 C10.5878647,125.907187 5.86373121,123.549597 3.97019043,121.458473 C2.09548667,119.367389 -1.10092823,114.636048 0.380117731,106.061718 C1.88926326,97.4873876 9.24743652,91.6984127 9.24743652,91.6984127 L9.24743652,100.749163 C9.24743652,103.825331 16.3618323,102.057119 19.5583672,107.716891 C22.7453036,113.376685 20.7394365,118.46312 15.6777004,122.185195 L15.6777004,122.185112 Z" id="Fill-6"></path>
                        </g>
                        <g id="Group-11" transform="translate(17.000000, 72.000000)" fill="#88A0C2" fill-rule="nonzero">
                            <path d="M26.075,44.025 C26.075,44.1150004 26.0375004,44.1999996 25.9625,44.28 C25.8874996,44.3600004 25.8200003,44.4374996 25.76,44.5125 C25.6999997,44.5875004 25.67,44.7399988 25.67,44.97 C25.68,45.2900016 25.68,45.455 25.67,45.465 C25.4199987,47.6050107 25.295,49.6049907 25.295,51.465 L25.295,52.89 C25.3350002,53.6000035 25.4849987,53.9999995 25.745,54.09 L25.745,54.24 C25.6949997,54.3500006 25.6100006,54.405 25.49,54.405 C24.8599968,54.405 24.4850006,53.7900061 24.365,52.56 C24.3149997,52.0899977 24.3099998,51.6150024 24.35,51.135 L24.74,46.29 L23.63,50.34 C22.9499966,52.4600106 22.2850032,53.52 21.635,53.52 C21.3449985,53.52 21.0450015,53.3350018 20.735,52.965 C20.4849987,52.6849986 20.2950006,52.3750017 20.165,52.035 C19.8549984,51.244996 19.5350016,50.150007 19.205,48.75 C18.9549987,47.6299944 18.7000013,46.5150055 18.44,45.405 L18.35,45.63 C18.1699991,47.4800093 18.0949998,48.804996 18.125,49.605 L18.275,53.04 C18.2950001,53.4000018 18.4149989,53.5949999 18.635,53.625 C18.645,53.8950014 18.4050024,54.03 17.915,54.03 C17.4649977,54.03 17.24,53.2050082 17.24,51.555 C17.24,50.8049963 17.2799996,49.6875074 17.36,48.2025 C17.4400004,46.7174926 17.48,45.6000037 17.48,44.85 C17.48,44.6899992 17.4650001,44.5650004 17.435,44.475 C17.4049998,44.3849996 17.39,44.3300001 17.39,44.31 C17.39,43.9199981 17.789996,43.725 18.59,43.725 C18.7400007,43.725 18.9199989,43.829999 19.13,44.04 C19.1600001,44.3500016 19.2049997,44.8099969 19.265,45.42 C19.3750005,46.3000044 19.6699976,47.5799916 20.15,49.26 C20.7300029,51.3200103 21.2049981,52.35 21.575,52.35 C22.0450023,52.35 22.5599972,51.4100094 23.12,49.53 C23.4700017,48.3199939 23.7499989,47.1200059 23.96,45.93 C24.0900006,45.5499981 24.254999,45.0100035 24.455,44.31 C24.5750006,43.8599977 24.9199971,43.635 25.49,43.635 C25.6200006,43.635 25.7499993,43.6699997 25.88,43.74 C26.0100006,43.8100004 26.075,43.9049994 26.075,44.025 Z M35.81,44.025 C35.81,44.1150004 35.7725004,44.1999996 35.6975,44.28 C35.6224996,44.3600004 35.5550003,44.4374996 35.495,44.5125 C35.4349997,44.5875004 35.405,44.7399988 35.405,44.97 C35.415,45.2900016 35.415,45.455 35.405,45.465 C35.1549987,47.6050107 35.03,49.6049907 35.03,51.465 L35.03,52.89 C35.0700002,53.6000035 35.2199987,53.9999995 35.48,54.09 L35.48,54.24 C35.4299997,54.3500006 35.3450006,54.405 35.225,54.405 C34.5949968,54.405 34.2200006,53.7900061 34.1,52.56 C34.0499997,52.0899977 34.0449998,51.6150024 34.085,51.135 L34.475,46.29 L33.365,50.34 C32.6849966,52.4600106 32.0200032,53.52 31.37,53.52 C31.0799985,53.52 30.7800015,53.3350018 30.47,52.965 C30.2199987,52.6849986 30.0300006,52.3750017 29.9,52.035 C29.5899984,51.244996 29.2700016,50.150007 28.94,48.75 C28.6899987,47.6299944 28.4350013,46.5150055 28.175,45.405 L28.085,45.63 C27.9049991,47.4800093 27.8299998,48.804996 27.86,49.605 L28.01,53.04 C28.0300001,53.4000018 28.1499989,53.5949999 28.37,53.625 C28.38,53.8950014 28.1400024,54.03 27.65,54.03 C27.1999977,54.03 26.975,53.2050082 26.975,51.555 C26.975,50.8049963 27.0149996,49.6875074 27.095,48.2025 C27.1750004,46.7174926 27.215,45.6000037 27.215,44.85 C27.215,44.6899992 27.2000001,44.5650004 27.17,44.475 C27.1399998,44.3849996 27.125,44.3300001 27.125,44.31 C27.125,43.9199981 27.524996,43.725 28.325,43.725 C28.4750007,43.725 28.6549989,43.829999 28.865,44.04 C28.8950001,44.3500016 28.9399997,44.8099969 29,45.42 C29.1100005,46.3000044 29.4049976,47.5799916 29.885,49.26 C30.4650029,51.3200103 30.9399981,52.35 31.31,52.35 C31.7800023,52.35 32.2949972,51.4100094 32.855,49.53 C33.2050017,48.3199939 33.4849989,47.1200059 33.695,45.93 C33.8250006,45.5499981 33.989999,45.0100035 34.19,44.31 C34.3100006,43.8599977 34.6549971,43.635 35.225,43.635 C35.3550006,43.635 35.4849993,43.6699997 35.615,43.74 C35.7450006,43.8100004 35.81,43.9049994 35.81,44.025 Z M41.87,43.86 C41.7499994,44.060001 41.585001,44.3699979 41.375,44.79 L38.57,51.525 C37.8099962,53.335009 37.2100022,54.24 36.77,54.24 C36.579999,54.24 36.485,54.1600008 36.485,54 C36.485,53.9099996 36.5274996,53.8100005 36.6125,53.7 C36.6975004,53.5899995 36.7749996,53.4900004 36.845,53.4 C37.4050028,52.4999955 37.984997,51.3300072 38.585,49.89 C39.0750024,48.6699939 39.5599976,47.4500061 40.04,46.23 C40.2600011,45.6799972 40.4099996,45.2450016 40.49,44.925 C40.5,44.7449991 40.5499995,44.4900016 40.64,44.16 C40.7000003,44.0199993 40.8149991,43.9000005 40.985,43.8 C41.1550008,43.6999995 41.3199992,43.65 41.48,43.65 C41.6100006,43.65 41.7399993,43.7199993 41.87,43.86 Z M49.205,47.715 C49.205,49.2350076 48.8700033,50.6599934 48.2,51.99 C47.3699958,53.6100081 46.2700068,54.42 44.9,54.42 C44.3999975,54.42 43.9300022,54.2450018 43.49,53.895 C43.3199991,54.1150011 43.2100002,54.225 43.16,54.225 C43.0499994,54.225 42.9400005,54.1900003 42.83,54.12 C42.6899993,53.729998 42.62,52.9800056 42.62,51.87 C42.62,51.0299958 42.6349998,49.7825083 42.665,48.1275 C42.6950001,46.4724917 42.71,45.2200043 42.71,44.37 C42.71,44.3499999 42.705,44.3125003 42.695,44.2575 C42.6849999,44.2024997 42.68,44.1600002 42.68,44.13 C42.68,43.9099989 42.7999988,43.8 43.04,43.8 C43.1600006,43.8 43.2899993,43.8474995 43.43,43.9425 C43.5700007,44.0375005 43.64,44.1399995 43.64,44.25 C43.64,44.3700006 43.6075003,44.5174991 43.5425,44.6925 C43.4774997,44.8675009 43.445,45.0099995 43.445,45.12 L43.445,45.705 C43.5650006,45.6349996 43.7399988,45.3900021 43.97,44.97 C44.2000011,44.5499979 44.4349988,44.240001 44.675,44.04 C45.0450018,43.7199984 45.5199971,43.56 46.1,43.56 C47.1800054,43.56 47.9899973,44.0049956 48.53,44.895 C48.9800022,45.6250036 49.205,46.5649942 49.205,47.715 Z M48.32,47.64 C48.32,46.7299955 48.1900013,45.975003 47.93,45.375 C47.5799982,44.5349958 47.0100039,44.115 46.22,44.115 C45.6599972,44.115 45.1050027,44.4599965 44.555,45.15 C44.1049977,45.7200029 43.7900009,46.3249968 43.61,46.965 C43.4499992,47.5450029 43.37,48.1649967 43.37,48.825 L43.37,51.93 C43.37,52.4000024 43.4949987,52.8049983 43.745,53.145 C44.0250014,53.5250019 44.3949977,53.715 44.855,53.715 C45.655004,53.715 46.3699968,53.2950042 47,52.455 C47.5300026,51.7649965 47.889999,50.9750045 48.08,50.085 C48.2400008,49.2949961 48.32,48.4800042 48.32,47.64 Z M56.69,47.715 C56.69,49.2350076 56.3550033,50.6599934 55.685,51.99 C54.8549958,53.6100081 53.7550068,54.42 52.385,54.42 C51.8849975,54.42 51.4150022,54.2450018 50.975,53.895 C50.8049991,54.1150011 50.6950002,54.225 50.645,54.225 C50.5349994,54.225 50.4250005,54.1900003 50.315,54.12 C50.1749993,53.729998 50.105,52.9800056 50.105,51.87 C50.105,51.0299958 50.1199998,49.7825083 50.15,48.1275 C50.1800001,46.4724917 50.195,45.2200043 50.195,44.37 C50.195,44.3499999 50.19,44.3125003 50.18,44.2575 C50.1699999,44.2024997 50.165,44.1600002 50.165,44.13 C50.165,43.9099989 50.2849988,43.8 50.525,43.8 C50.6450006,43.8 50.7749993,43.8474995 50.915,43.9425 C51.0550007,44.0375005 51.125,44.1399995 51.125,44.25 C51.125,44.3700006 51.0925003,44.5174991 51.0275,44.6925 C50.9624997,44.8675009 50.93,45.0099995 50.93,45.12 L50.93,45.705 C51.0500006,45.6349996 51.2249988,45.3900021 51.455,44.97 C51.6850011,44.5499979 51.9199988,44.240001 52.16,44.04 C52.5300018,43.7199984 53.0049971,43.56 53.585,43.56 C54.6650054,43.56 55.4749973,44.0049956 56.015,44.895 C56.4650022,45.6250036 56.69,46.5649942 56.69,47.715 Z M55.805,47.64 C55.805,46.7299955 55.6750013,45.975003 55.415,45.375 C55.0649982,44.5349958 54.4950039,44.115 53.705,44.115 C53.1449972,44.115 52.5900028,44.4599965 52.04,45.15 C51.5899978,45.7200029 51.2750009,46.3249968 51.095,46.965 C50.9349992,47.5450029 50.855,48.1649967 50.855,48.825 L50.855,51.93 C50.855,52.4000024 50.9799988,52.8049983 51.23,53.145 C51.5100014,53.5250019 51.8799977,53.715 52.34,53.715 C53.140004,53.715 53.8549968,53.2950042 54.485,52.455 C55.0150026,51.7649965 55.3749991,50.9750045 55.565,50.085 C55.7250008,49.2949961 55.805,48.4800042 55.805,47.64 Z M62.825,43.86 C62.7049994,44.060001 62.540001,44.3699979 62.33,44.79 L59.525,51.525 C58.7649962,53.335009 58.1650022,54.24 57.725,54.24 C57.534999,54.24 57.44,54.1600008 57.44,54 C57.44,53.9099996 57.4824996,53.8100005 57.5675,53.7 C57.6525004,53.5899995 57.7299996,53.4900004 57.8,53.4 C58.3600028,52.4999955 58.939997,51.3300072 59.54,49.89 C60.0300024,48.6699939 60.5149976,47.4500061 60.995,46.23 C61.2150011,45.6799972 61.3649996,45.2450016 61.445,44.925 C61.455,44.7449991 61.5049995,44.4900016 61.595,44.16 C61.6550003,44.0199993 61.7699991,43.9000005 61.94,43.8 C62.1100008,43.6999995 62.2749992,43.65 62.435,43.65 C62.5650006,43.65 62.6949993,43.7199993 62.825,43.86 Z M70.115,44.385 C70.0149995,44.5650009 69.8300014,44.8124984 69.56,45.1275 C69.2899987,45.4425016 69.1100005,45.694999 69.02,45.885 C68.2899963,47.3150071 67.6550027,48.7199931 67.115,50.1 C66.3249961,52.1200101 65.9699996,53.5549958 66.05,54.405 C65.8699991,54.5350007 65.7000008,54.6 65.54,54.6 C65.2199984,54.6 64.9650009,54.3200028 64.775,53.76 C64.8350003,53.7099998 64.9324993,53.6175007 65.0675,53.4825 C65.2025007,53.3474993 65.4149986,52.8700041 65.705,52.05 C65.8850009,51.4999972 66.0699991,50.9500027 66.26,50.4 C65.6199968,49.8999975 65.0650023,49.1150054 64.595,48.045 C63.8149961,46.2549911 63.425,45.0400032 63.425,44.4 C63.425,43.989998 63.5849984,43.785 63.905,43.785 C64.115001,43.785 64.2849993,43.8949989 64.415,44.115 C64.5150005,44.315001 64.565,44.5249989 64.565,44.745 C64.565,44.8150003 64.5425002,44.9049994 64.4975,45.015 C64.4524998,45.1250006 64.43,45.2099997 64.43,45.27 C64.43,45.7300023 64.6799975,46.5149945 65.18,47.625 C65.7300028,48.825006 66.1899982,49.42 66.56,49.41 C66.7300009,49.2299991 67.2049961,48.2300091 67.985,46.41 C68.6750034,44.7799919 69.1899983,43.965 69.53,43.965 C69.8900018,43.965 70.0849999,44.1049986 70.115,44.385 Z M77.405,44.385 C77.3049995,44.5650009 77.1200013,44.8124984 76.85,45.1275 C76.5799986,45.4425016 76.4000004,45.694999 76.31,45.885 C75.5799963,47.3150071 74.9450027,48.7199931 74.405,50.1 C73.6149961,52.1200101 73.2599996,53.5549958 73.34,54.405 C73.1599991,54.5350007 72.9900008,54.6 72.83,54.6 C72.5099984,54.6 72.2550009,54.3200028 72.065,53.76 C72.1250003,53.7099998 72.2224993,53.6175007 72.3575,53.4825 C72.4925007,53.3474993 72.7049985,52.8700041 72.995,52.05 C73.1750009,51.4999972 73.359999,50.9500027 73.55,50.4 C72.9099968,49.8999975 72.3550023,49.1150054 71.885,48.045 C71.1049961,46.2549911 70.715,45.0400032 70.715,44.4 C70.715,43.989998 70.8749984,43.785 71.195,43.785 C71.405001,43.785 71.5749993,43.8949989 71.705,44.115 C71.8050005,44.315001 71.855,44.5249989 71.855,44.745 C71.855,44.8150003 71.8325002,44.9049994 71.7875,45.015 C71.7424998,45.1250006 71.72,45.2099997 71.72,45.27 C71.72,45.7300023 71.9699975,46.5149945 72.47,47.625 C73.0200027,48.825006 73.4799982,49.42 73.85,49.41 C74.0200009,49.2299991 74.4949961,48.2300091 75.275,46.41 C75.9650034,44.7799919 76.4799983,43.965 76.82,43.965 C77.1800018,43.965 77.3749998,44.1049986 77.405,44.385 Z M84.695,44.385 C84.5949995,44.5650009 84.4100013,44.8124984 84.14,45.1275 C83.8699986,45.4425016 83.6900004,45.694999 83.6,45.885 C82.8699963,47.3150071 82.2350027,48.7199931 81.695,50.1 C80.904996,52.1200101 80.5499996,53.5549958 80.63,54.405 C80.4499991,54.5350007 80.2800008,54.6 80.12,54.6 C79.7999984,54.6 79.5450009,54.3200028 79.355,53.76 C79.4150003,53.7099998 79.5124993,53.6175007 79.6475,53.4825 C79.7825007,53.3474993 79.9949985,52.8700041 80.285,52.05 C80.4650009,51.4999972 80.649999,50.9500027 80.84,50.4 C80.1999968,49.8999975 79.6450023,49.1150054 79.175,48.045 C78.3949961,46.2549911 78.005,45.0400032 78.005,44.4 C78.005,43.989998 78.1649984,43.785 78.485,43.785 C78.695001,43.785 78.8649993,43.8949989 78.995,44.115 C79.0950005,44.315001 79.145,44.5249989 79.145,44.745 C79.145,44.8150003 79.1225002,44.9049994 79.0775,45.015 C79.0324998,45.1250006 79.01,45.2099997 79.01,45.27 C79.01,45.7300023 79.2599975,46.5149945 79.76,47.625 C80.3100027,48.825006 80.7699981,49.42 81.14,49.41 C81.3100008,49.2299991 81.7849961,48.2300091 82.565,46.41 C83.2550035,44.7799919 83.7699983,43.965 84.11,43.965 C84.4700018,43.965 84.6649998,44.1049986 84.695,44.385 Z M91.985,44.385 C91.8849995,44.5650009 91.7000013,44.8124984 91.43,45.1275 C91.1599986,45.4425016 90.9800004,45.694999 90.89,45.885 C90.1599963,47.3150071 89.5250027,48.7199931 88.985,50.1 C88.194996,52.1200101 87.8399996,53.5549958 87.92,54.405 C87.7399991,54.5350007 87.5700008,54.6 87.41,54.6 C87.0899984,54.6 86.8350009,54.3200028 86.645,53.76 C86.7050003,53.7099998 86.8024993,53.6175007 86.9375,53.4825 C87.0725007,53.3474993 87.2849985,52.8700041 87.575,52.05 C87.7550009,51.4999972 87.939999,50.9500027 88.13,50.4 C87.4899968,49.8999975 86.9350023,49.1150054 86.465,48.045 C85.6849961,46.2549911 85.295,45.0400032 85.295,44.4 C85.295,43.989998 85.4549984,43.785 85.775,43.785 C85.985001,43.785 86.1549993,43.8949989 86.285,44.115 C86.3850005,44.315001 86.435,44.5249989 86.435,44.745 C86.435,44.8150003 86.4125002,44.9049994 86.3675,45.015 C86.3224998,45.1250006 86.3,45.2099997 86.3,45.27 C86.3,45.7300023 86.5499975,46.5149945 87.05,47.625 C87.6000027,48.825006 88.0599981,49.42 88.43,49.41 C88.6000008,49.2299991 89.0749961,48.2300091 89.855,46.41 C90.5450034,44.7799919 91.0599983,43.965 91.4,43.965 C91.7600018,43.965 91.9549998,44.1049986 91.985,44.385 Z" id="MM/DD/YYYY"></path>
                            <path d="M35.60875,3.5375 C35.60875,3.66583397 35.5562505,3.82916567 35.45125,4.0275 C35.322916,4.28416795 35.2470835,4.44166638 35.22375,4.5 C34.885415,5.56167198 34.71625,6.43082995 34.71625,7.1075 L34.66375,12.13 C34.6520833,12.6433359 34.5354178,13.1683306 34.31375,13.705 C34.0220819,14.38167 33.6604188,14.72 33.22875,14.72 C32.5870801,14.72 31.9512531,14.1833387 31.32125,13.11 C30.8662477,12.3166627 30.405419,11.220007 29.93875,9.82 C29.6704153,8.90999545 29.3962514,8.00000455 29.11625,7.09 C28.8712488,9.07334325 28.74875,10.4033299 28.74875,11.08 C28.74875,12.5733408 28.8391658,13.4308322 29.02,13.6525 C29.2008342,13.8741678 29.29125,14.0374995 29.29125,14.1425 C29.29125,14.3641678 29.1745845,14.5595825 28.94125,14.72875 C28.7079155,14.8979175 28.4745845,14.9825 28.24125,14.9825 C27.9145817,14.9825 27.6462511,14.6383368 27.43625,13.95 C27.2729159,13.4133306 27.19125,12.9233356 27.19125,12.48 C27.19125,12.2816657 27.1970833,11.9870853 27.20875,11.59625 C27.2204167,11.2054147 27.22625,10.9108343 27.22625,10.7125 C27.22625,10.2341643 27.2845827,9.52250472 27.40125,8.5775 C27.5179172,7.63249528 27.57625,6.92083572 27.57625,6.4425 L27.57625,4.3075 C27.57625,4.28416655 27.5675001,4.2491669 27.55,4.2025 C27.5324999,4.1558331 27.52375,4.12083345 27.52375,4.0975 C27.52375,3.8641655 27.6812484,3.67166742 27.99625,3.52 C28.252918,3.39166602 28.509582,3.3275 28.76625,3.3275 C29.361253,3.3275 29.7870821,3.51999808 30.04375,3.905 C30.1137503,4.03333397 30.1779164,4.30166463 30.23625,4.71 C30.2712502,4.9900014 30.3062498,5.27583187 30.34125,5.5675 C30.4812507,6.39583747 30.848747,7.72582417 31.44375,9.5575 C32.1554202,11.7158441 32.6862483,12.795 33.03625,12.795 C33.164584,12.795 33.22875,12.6316683 33.22875,12.305 C33.22875,12.2116662 33.2141668,12.0600011 33.185,11.85 C33.1558332,11.6399989 33.14125,11.4766672 33.14125,11.36 L33.31625,6.6175 C33.3512502,5.90582978 33.473749,5.20583677 33.68375,4.5175 C33.9870849,3.54916182 34.3954141,3.065 34.90875,3.065 C35.0720842,3.065 35.2995819,3.16999895 35.59125,3.38 C35.6029167,3.43833362 35.60875,3.4908331 35.60875,3.5375 Z M43.18625,12.025 C43.18625,13.5300075 43.1395838,14.5916636 43.04625,15.21 C42.9879164,15.5716685 42.7429188,15.7525 42.31125,15.7525 C41.6579134,15.7525 41.3662497,15.4258366 41.43625,14.7725 C40.8529137,15.0525014 40.2462532,15.1925 39.61625,15.1925 C39.0095803,15.1925 38.4320861,15.0408348 37.88375,14.7375 C37.2304134,14.3758315 36.90375,13.9150028 36.90375,13.355 C36.90375,12.8066639 37.2770796,12.2933357 38.02375,11.815 C38.70042,11.3833312 39.336247,11.1675 39.93125,11.1675 L41.41875,11.1675 L41.41875,10.7475 C41.4304167,9.52249388 41.0687537,8.91 40.33375,8.91 C39.4120787,8.91 38.95125,9.34166235 38.95125,10.205 C38.95125,10.4966681 38.7879183,10.6425 38.46125,10.6425 C38.2629157,10.6425 38.0558344,10.5520842 37.84,10.37125 C37.6241656,10.1904158 37.51625,10.0008343 37.51625,9.8025 C37.51625,9.1491634 37.749581,8.6125021 38.21625,8.1925 C38.682919,7.7724979 39.2429134,7.5625 39.89625,7.5625 C42.0895943,7.5625 43.18625,9.04998512 43.18625,12.025 Z M41.41875,12.655 C41.41875,12.4216655 41.2437518,12.305 40.89375,12.305 C39.4354094,12.305 38.70625,12.6491632 38.70625,13.3375 C38.70625,13.7108352 39.0270801,13.8975 39.66875,13.8975 C40.0654187,13.8975 40.4387483,13.7866678 40.78875,13.565 C41.2087521,13.3199988 41.41875,13.0166685 41.41875,12.655 Z M49.15375,8.98 C49.15375,9.06166707 49.1420835,9.18999912 49.11875,9.365 C48.8737488,9.71500175 48.6170847,9.89 48.34875,9.89 C48.1270822,9.89 47.9287509,9.76166795 47.75375,9.505 C47.7304166,8.97999737 47.5437517,8.7175 47.19375,8.7175 C46.9837489,8.7175 46.7270848,9.27166113 46.42375,10.38 C46.2837493,10.8700024 46.21375,11.5524956 46.21375,12.4275 C46.21375,13.2558375 46.2545829,13.7574991 46.33625,13.9325 C46.4295838,14.1541678 46.47625,14.3058329 46.47625,14.3875 C46.47625,14.5858343 46.3858342,14.7462494 46.205,14.86875 C46.0241658,14.9912506 45.8229178,15.0525 45.60125,15.0525 C44.9712468,15.0525 44.65625,14.7608362 44.65625,14.1775 C44.65625,14.1191664 44.6708332,14.0375005 44.7,13.9325 C44.7291668,13.8274995 44.74375,13.7516669 44.74375,13.705 C44.74375,13.109997 44.7145836,12.2262559 44.65625,11.05375 C44.5979164,9.88124414 44.56875,9.00333625 44.56875,8.42 C44.56875,7.89499737 44.8837469,7.6325 45.51375,7.6325 C45.8870852,7.6325 46.1437493,7.74333222 46.28375,7.965 C46.6104183,7.60333152 46.9779146,7.4225 47.38625,7.4225 C47.6662514,7.4225 47.9345821,7.49833257 48.19125,7.65 C48.3662509,7.7433338 48.5704155,7.94458179 48.80375,8.25375 C49.0370845,8.56291821 49.15375,8.80499913 49.15375,8.98 Z M54.75375,8.98 C54.75375,9.06166707 54.7420835,9.18999912 54.71875,9.365 C54.4737488,9.71500175 54.2170847,9.89 53.94875,9.89 C53.7270822,9.89 53.5287509,9.76166795 53.35375,9.505 C53.3304166,8.97999737 53.1437518,8.7175 52.79375,8.7175 C52.583749,8.7175 52.3270849,9.27166113 52.02375,10.38 C51.8837493,10.8700024 51.81375,11.5524956 51.81375,12.4275 C51.81375,13.2558375 51.8545829,13.7574991 51.93625,13.9325 C52.0295838,14.1541678 52.07625,14.3058329 52.07625,14.3875 C52.07625,14.5858343 51.9858342,14.7462494 51.805,14.86875 C51.6241658,14.9912506 51.4229178,15.0525 51.20125,15.0525 C50.5712469,15.0525 50.25625,14.7608362 50.25625,14.1775 C50.25625,14.1191664 50.2708332,14.0375005 50.3,13.9325 C50.3291668,13.8274995 50.34375,13.7516669 50.34375,13.705 C50.34375,13.109997 50.3145836,12.2262559 50.25625,11.05375 C50.1979164,9.88124414 50.16875,9.00333625 50.16875,8.42 C50.16875,7.89499737 50.4837469,7.6325 51.11375,7.6325 C51.4870852,7.6325 51.7437493,7.74333222 51.88375,7.965 C52.2104183,7.60333152 52.5779146,7.4225 52.98625,7.4225 C53.2662514,7.4225 53.534582,7.49833257 53.79125,7.65 C53.9662509,7.7433338 54.1704155,7.94458179 54.40375,8.25375 C54.6370845,8.56291821 54.75375,8.80499913 54.75375,8.98 Z M61.19375,12.025 C61.19375,13.5300075 61.1470838,14.5916636 61.05375,15.21 C60.9954164,15.5716685 60.7504188,15.7525 60.31875,15.7525 C59.6654134,15.7525 59.3737497,15.4258366 59.44375,14.7725 C58.8604137,15.0525014 58.2537531,15.1925 57.62375,15.1925 C57.0170803,15.1925 56.4395861,15.0408348 55.89125,14.7375 C55.2379134,14.3758315 54.91125,13.9150028 54.91125,13.355 C54.91125,12.8066639 55.2845796,12.2933357 56.03125,11.815 C56.70792,11.3833312 57.343747,11.1675 57.93875,11.1675 L59.42625,11.1675 L59.42625,10.7475 C59.4379167,9.52249388 59.0762537,8.91 58.34125,8.91 C57.4195787,8.91 56.95875,9.34166235 56.95875,10.205 C56.95875,10.4966681 56.7954183,10.6425 56.46875,10.6425 C56.2704157,10.6425 56.0633344,10.5520842 55.8475,10.37125 C55.6316656,10.1904158 55.52375,10.0008343 55.52375,9.8025 C55.52375,9.1491634 55.757081,8.6125021 56.22375,8.1925 C56.690419,7.7724979 57.2504134,7.5625 57.90375,7.5625 C60.0970943,7.5625 61.19375,9.04998512 61.19375,12.025 Z M59.42625,12.655 C59.42625,12.4216655 59.2512518,12.305 58.90125,12.305 C57.4429094,12.305 56.71375,12.6491632 56.71375,13.3375 C56.71375,13.7108352 57.0345801,13.8975 57.67625,13.8975 C58.0729187,13.8975 58.4462483,13.7866678 58.79625,13.565 C59.2162521,13.3199988 59.42625,13.0166685 59.42625,12.655 Z M66.12875,8.735 C66.12875,9.05000157 65.6445882,9.27166602 64.67625,9.4 C64.6529166,9.65666795 64.64125,10.2399955 64.64125,11.15 L64.64125,12.305 C64.64125,12.5383345 64.6791663,12.8824977 64.755,13.3375 C64.8308337,13.7925023 64.86875,14.1308322 64.86875,14.3525 C64.86875,14.5391676 64.7754176,14.7054159 64.58875,14.85125 C64.4020824,14.9970841 64.2154176,15.07 64.02875,15.07 C63.7370819,15.07 63.4920843,14.8191692 63.29375,14.3175 C63.1420826,13.9324981 63.06625,13.5591685 63.06625,13.1975 L63.06625,9.4875 C62.5295807,9.40583292 62.2204171,9.35333345 62.13875,9.33 C61.8354152,9.2366662 61.68375,9.10250087 61.68375,8.9275 C61.68375,8.8808331 61.6954166,8.82833362 61.71875,8.77 C62.0220848,8.33833118 62.3604148,8.1225 62.73375,8.1225 L62.83875,8.1225 C62.8854169,8.13416673 62.9204165,8.14 62.94375,8.14 C63.1887512,8.14 63.3054167,7.85416952 63.29375,7.2825 L63.29375,6.005 C63.2237497,5.87666602 63.18875,5.7658338 63.18875,5.6725 C63.18875,5.52083258 63.2791658,5.38375061 63.46,5.26125 C63.6408342,5.13874939 63.8129159,5.0775 63.97625,5.0775 C64.2212512,5.0775 64.4545822,5.19124886 64.67625,5.41875 C64.8979178,5.64625114 65.00875,5.88833205 65.00875,6.145 C65.00875,6.4250014 64.9650004,6.70208196 64.8775,6.97625 C64.7899996,7.25041804 64.7520833,7.53333187 64.76375,7.825 L64.76375,7.895 C65.6737545,7.9883338 66.12875,8.268331 66.12875,8.735 Z M69.08625,5.8125 C69.08625,6.06916795 68.9987509,6.27916585 68.82375,6.4425 C68.6487491,6.60583415 68.432918,6.6875 68.17625,6.6875 C67.8729152,6.6875 67.5900013,6.58250105 67.3275,6.3725 C67.0649987,6.16249895 66.93375,5.90583485 66.93375,5.6025 C66.93375,5.34583205 67.0241658,5.13583415 67.205,4.9725 C67.3858342,4.80916585 67.6104153,4.7275 67.87875,4.7275 C68.1937516,4.7275 68.4737488,4.82958231 68.71875,5.03375 C68.9637512,5.23791769 69.08625,5.49749843 69.08625,5.8125 Z M68.92875,8.2625 C68.92875,8.47250105 68.8820838,8.76999808 68.78875,9.155 C68.6954162,9.54000192 68.64875,9.83749895 68.64875,10.0475 L68.64875,13.6525 C68.64875,13.8741678 68.712916,14.2241643 68.84125,14.7025 C68.6662491,14.9708347 68.4737511,15.105 68.26375,15.105 C67.5287463,15.105 67.1262504,14.7375037 67.05625,14.0025 C66.9395827,12.6374932 66.88125,11.6108368 66.88125,10.9225 C66.88125,9.76749423 66.9279162,8.79917057 67.02125,8.0175 C67.0095833,7.95916638 67.00375,7.90083363 67.00375,7.8425 C67.00375,7.63249895 67.1670817,7.5275 67.49375,7.5275 C67.7854181,7.5275 68.0770819,7.58583275 68.36875,7.7025 C68.7420852,7.83083397 68.92875,8.01749877 68.92875,8.2625 Z M75.45625,8.2975 C75.45625,9.1375042 75.1879194,10.4208247 74.65125,12.1475 C74.0212469,14.1308432 73.408753,15.1225 72.81375,15.1225 C71.9620791,15.1225 71.2037533,14.2883417 70.53875,12.62 C70.1304146,11.5816615 69.797918,10.3683403 69.54125,8.98 C69.4829164,8.64166497 69.45375,8.3791676 69.45375,8.1925 C69.45375,8.0058324 69.5383325,7.83958406 69.7075,7.69375 C69.8766675,7.54791594 70.0545824,7.475 70.24125,7.475 C70.4629178,7.475 70.807081,7.64416498 71.27375,7.9825 C71.1920829,8.25083467 71.15125,8.4783324 71.15125,8.665 C71.15125,9.29500315 71.3058318,10.1174949 71.615,11.1325 C71.9241682,12.1475051 72.2595815,12.9116641 72.62125,13.425 L72.62125,13.4775 C73.0412521,13.4775 73.3679155,12.6841746 73.60125,11.0975 C73.7645842,10.0124946 73.84625,9.02083783 73.84625,8.1225 C73.84625,7.94749913 73.9366658,7.79583398 74.1175,7.6675 C74.2983342,7.53916603 74.4762491,7.475 74.65125,7.475 C75.1879194,7.475 75.45625,7.74916393 75.45625,8.2975 Z M81.68625,13.46 C81.68625,14.0433363 81.2895873,14.4983317 80.49625,14.825 C79.8779136,15.0816679 79.2304201,15.21 78.55375,15.21 C76.7570744,15.21 75.85875,14.1891769 75.85875,12.1475 C75.85875,11.3074958 76.0629146,10.3741718 76.47125,9.3475 C76.9729192,8.0874937 77.5795798,7.4575 78.29125,7.4575 C78.9329199,7.4575 79.624163,7.74333048 80.365,8.315 C81.105837,8.88666952 81.47625,9.48166357 81.47625,10.1 C81.47625,10.8700038 81.1320868,11.4824977 80.44375,11.9375 C79.8370803,12.3458354 79.1137542,12.55 78.27375,12.55 C78.1104159,12.55 77.8479185,12.4508343 77.48625,12.2525 C77.5329169,13.3608389 77.8595803,13.915 78.46625,13.915 C78.9795859,13.915 79.4841642,13.7691681 79.98,13.4775 C80.4758358,13.1858319 80.7937493,13.04 80.93375,13.04 C81.4354192,13.04 81.68625,13.1799986 81.68625,13.46 Z M79.77875,10.1525 C79.77875,9.86083188 79.6941675,9.58375131 79.525,9.32125 C79.3558325,9.05874869 79.1312514,8.9275 78.85125,8.9275 C78.4662481,8.9275 78.168751,9.09666497 77.95875,9.435 C77.7837491,9.72666812 77.69625,10.0708313 77.69625,10.4675 C77.69625,10.6891678 77.7720826,10.8699993 77.92375,11.01 C78.0754174,11.1500007 78.2679155,11.22 78.50125,11.22 C79.3529209,11.22 79.77875,10.8641702 79.77875,10.1525 Z M26.99875,28.13 C26.99875,28.3516678 26.9404172,28.6199984 26.82375,28.935 C26.5320819,29.7050039 25.983754,30.3116644 25.17875,30.755 C24.4437463,31.1516687 23.6387544,31.35 22.76375,31.35 C21.3287428,31.35 20.2262538,30.8075054 19.45625,29.7225 C18.7912467,28.7774953 18.45875,27.5583408 18.45875,26.065 C18.45875,24.8283271 18.6512481,23.6675054 19.03625,22.5825 C19.4679188,21.3458271 20.1037458,20.3775035 20.94375,19.6775 C21.6087533,19.1291639 22.2854132,18.855 22.97375,18.855 C23.9654216,18.855 24.7179141,19.2866624 25.23125,20.15 C25.6512521,20.8500035 25.86125,21.730828 25.86125,22.7925 C25.86125,23.2708357 25.7387512,23.871663 25.49375,24.595 C25.2020819,25.4816711 24.8754185,25.925 24.51375,25.925 C24.1054146,25.925 23.796251,25.6683359 23.58625,25.155 C23.7029172,25.0733329 23.8662489,24.9391676 24.07625,24.7525 C24.3095845,24.4958321 24.42625,23.9941704 24.42625,23.2475 C24.42625,22.524163 24.3504174,21.9116692 24.19875,21.41 C23.9654155,20.6516629 23.5804193,20.2725 23.04375,20.2725 C22.6704148,20.2725 22.2620855,20.5116643 21.81875,20.99 C21.480415,21.3516685 21.1945845,21.7541644 20.96125,22.1975 C20.3895805,23.3175056 20.10375,24.7116583 20.10375,26.38 C20.10375,28.8066788 21.0137409,30.02 22.83375,30.02 C23.6154206,30.02 24.2337477,29.7983356 24.68875,29.355 C24.8754176,29.1566657 25.1495815,28.7425032 25.51125,28.1125 C25.7562512,27.6574977 26.0187486,27.43 26.29875,27.43 C26.4854176,27.43 26.6487493,27.5029159 26.78875,27.64875 C26.9287507,27.7945841 26.99875,27.9549991 26.99875,28.13 Z M33.94625,29.46 C33.94625,30.0433363 33.5495873,30.4983317 32.75625,30.825 C32.1379136,31.081668 31.49042,31.21 30.81375,31.21 C29.0170743,31.21 28.11875,30.1891769 28.11875,28.1475 C28.11875,27.3074958 28.3229146,26.3741718 28.73125,25.3475 C29.2329192,24.0874937 29.8395798,23.4575 30.55125,23.4575 C31.1929199,23.4575 31.884163,23.7433305 32.625,24.315 C33.365837,24.8866695 33.73625,25.4816636 33.73625,26.1 C33.73625,26.8700039 33.3920868,27.4824977 32.70375,27.9375 C32.0970803,28.3458354 31.3737542,28.55 30.53375,28.55 C30.3704159,28.55 30.1079185,28.4508343 29.74625,28.2525 C29.7929169,29.3608389 30.1195803,29.915 30.72625,29.915 C31.2395859,29.915 31.7441642,29.7691681 32.24,29.4775 C32.7358358,29.1858319 33.0537493,29.04 33.19375,29.04 C33.6954192,29.04 33.94625,29.1799986 33.94625,29.46 Z M32.03875,26.1525 C32.03875,25.8608319 31.9541675,25.5837513 31.785,25.32125 C31.6158325,25.0587487 31.3912514,24.9275 31.11125,24.9275 C30.7262481,24.9275 30.428751,25.096665 30.21875,25.435 C30.0437491,25.7266681 29.95625,26.0708313 29.95625,26.4675 C29.95625,26.6891678 30.0320826,26.8699993 30.18375,27.01 C30.3354174,27.1500007 30.5279155,27.22 30.76125,27.22 C31.6129209,27.22 32.03875,26.8641702 32.03875,26.1525 Z M39.44125,24.98 C39.44125,25.0616671 39.4295834,25.1899991 39.40625,25.365 C39.1612488,25.7150017 38.9045847,25.89 38.63625,25.89 C38.4145822,25.89 38.2162509,25.7616679 38.04125,25.505 C38.0179165,24.9799974 37.8312517,24.7175 37.48125,24.7175 C37.2712489,24.7175 37.0145848,25.2716611 36.71125,26.38 C36.5712493,26.8700025 36.50125,27.5524956 36.50125,28.4275 C36.50125,29.2558375 36.5420829,29.7574991 36.62375,29.9325 C36.7170838,30.1541678 36.76375,30.3058329 36.76375,30.3875 C36.76375,30.5858343 36.6733342,30.7462494 36.4925,30.86875 C36.3116658,30.9912506 36.1104178,31.0525 35.88875,31.0525 C35.2587468,31.0525 34.94375,30.7608363 34.94375,30.1775 C34.94375,30.1191664 34.9583332,30.0375005 34.9875,29.9325 C35.0166668,29.8274995 35.03125,29.7516669 35.03125,29.705 C35.03125,29.109997 35.0020836,28.2262559 34.94375,27.05375 C34.8854164,25.8812441 34.85625,25.0033362 34.85625,24.42 C34.85625,23.8949974 35.1712468,23.6325 35.80125,23.6325 C36.1745852,23.6325 36.4312493,23.7433322 36.57125,23.965 C36.8979183,23.6033315 37.2654146,23.4225 37.67375,23.4225 C37.9537514,23.4225 38.222082,23.4983326 38.47875,23.65 C38.6537509,23.7433338 38.8579155,23.9445818 39.09125,24.25375 C39.3245845,24.5629182 39.44125,24.8049991 39.44125,24.98 Z M44.13125,24.735 C44.13125,25.0500016 43.6470882,25.271666 42.67875,25.4 C42.6554165,25.6566679 42.64375,26.2399954 42.64375,27.15 L42.64375,28.305 C42.64375,28.5383345 42.6816663,28.8824977 42.7575,29.3375 C42.8333337,29.7925023 42.87125,30.1308322 42.87125,30.3525 C42.87125,30.5391676 42.7779176,30.7054159 42.59125,30.85125 C42.4045824,30.9970841 42.2179176,31.07 42.03125,31.07 C41.7395819,31.07 41.4945843,30.8191692 41.29625,30.3175 C41.1445826,29.9324981 41.06875,29.5591685 41.06875,29.1975 L41.06875,25.4875 C40.5320807,25.4058329 40.2229171,25.3533335 40.14125,25.33 C39.8379152,25.2366662 39.68625,25.1025009 39.68625,24.9275 C39.68625,24.8808331 39.6979166,24.8283336 39.72125,24.77 C40.0245848,24.3383312 40.3629148,24.1225 40.73625,24.1225 L40.84125,24.1225 C40.8879169,24.1341667 40.9229165,24.14 40.94625,24.14 C41.1912512,24.14 41.3079167,23.8541695 41.29625,23.2825 L41.29625,22.005 C41.2262496,21.876666 41.19125,21.7658338 41.19125,21.6725 C41.19125,21.5208326 41.2816658,21.3837506 41.4625,21.26125 C41.6433342,21.1387494 41.8154159,21.0775 41.97875,21.0775 C42.2237512,21.0775 42.4570822,21.1912489 42.67875,21.41875 C42.9004178,21.6462511 43.01125,21.888332 43.01125,22.145 C43.01125,22.4250014 42.9675004,22.702082 42.88,22.97625 C42.7924996,23.250418 42.7545833,23.5333319 42.76625,23.825 L42.76625,23.895 C43.6762545,23.9883338 44.13125,24.268331 44.13125,24.735 Z M47.08875,21.8125 C47.08875,22.069168 47.0012509,22.2791658 46.82625,22.4425 C46.6512491,22.6058341 46.4354179,22.6875 46.17875,22.6875 C45.8754151,22.6875 45.5925013,22.582501 45.33,22.3725 C45.0674987,22.1624989 44.93625,21.9058348 44.93625,21.6025 C44.93625,21.345832 45.0266658,21.1358342 45.2075,20.9725 C45.3883342,20.8091658 45.6129153,20.7275 45.88125,20.7275 C46.1962516,20.7275 46.4762488,20.8295823 46.72125,21.03375 C46.9662512,21.2379177 47.08875,21.4974984 47.08875,21.8125 Z M46.93125,24.2625 C46.93125,24.472501 46.8845838,24.7699981 46.79125,25.155 C46.6979162,25.5400019 46.65125,25.837499 46.65125,26.0475 L46.65125,29.6525 C46.65125,29.8741678 46.715416,30.2241643 46.84375,30.7025 C46.6687491,30.9708347 46.476251,31.105 46.26625,31.105 C45.5312463,31.105 45.1287503,30.7375037 45.05875,30.0025 C44.9420827,28.6374932 44.88375,27.6108368 44.88375,26.9225 C44.88375,25.7674942 44.9304162,24.7991706 45.02375,24.0175 C45.0120833,23.9591664 45.00625,23.9008336 45.00625,23.8425 C45.00625,23.6324989 45.1695817,23.5275 45.49625,23.5275 C45.7879181,23.5275 46.0795819,23.5858328 46.37125,23.7025 C46.7445852,23.830834 46.93125,24.0174988 46.93125,24.2625 Z M52.93375,20.535 C52.93375,20.7333343 52.837501,20.896666 52.645,21.025 C52.452499,21.153334 52.2570843,21.2175 52.05875,21.2175 C51.9070826,21.2175 51.7437509,21.1475007 51.56875,21.0075 C51.5570833,20.7741655 51.5104171,20.625417 51.42875,20.56125 C51.3470829,20.497083 51.177918,20.465 50.92125,20.465 C50.4195808,20.465 50.0579178,21.0949937 49.83625,22.355 C49.7195828,23.078337 49.6554167,23.9124953 49.64375,24.8575 L49.85375,24.8575 C49.9587505,24.8458333 50.0345831,24.84 50.08125,24.84 C50.5712525,24.84 50.9212489,25.0324981 51.13125,25.4175 L50.97375,26.0825 C50.7520822,26.1991672 50.3670861,26.2575 49.81875,26.2575 C49.7254162,26.2575 49.6495836,26.2633333 49.59125,26.275 C49.5562498,26.6600019 49.53875,27.0799977 49.53875,27.535 L49.53875,29.1275 C49.53875,29.7458364 49.6320824,30.3816634 49.81875,31.035 C49.3637477,31.291668 49.0312511,31.42 48.82125,31.42 C48.5412486,31.42 48.3195841,31.2041688 48.15625,30.7725 C48.0162493,30.434165 47.94625,30.095835 47.94625,29.7575 C47.94625,29.547499 47.9695831,28.4275101 48.01625,26.3975 C47.6312481,26.4325002 47.4504165,26.45 47.47375,26.45 C47.2754157,26.45 47.1004174,26.385834 46.94875,26.2575 C46.7970826,26.129166 46.72125,25.960001 46.72125,25.75 C46.72125,25.3883315 46.8729151,25.1550005 47.17625,25.05 C47.3395842,25.0033331 47.6429144,24.98 48.08625,24.98 C48.1212502,24.8633327 48.13875,24.507503 48.13875,23.9125 C48.13875,22.7108273 48.3312481,21.6666711 48.71625,20.78 C49.2412526,19.6133275 50.0287448,19.03 51.07875,19.03 C51.6037526,19.03 52.035415,19.1466655 52.37375,19.38 C52.7470852,19.6600014 52.93375,20.0449975 52.93375,20.535 Z M54.42125,21.8125 C54.42125,22.069168 54.3337509,22.2791658 54.15875,22.4425 C53.9837491,22.6058341 53.7679179,22.6875 53.51125,22.6875 C53.2079151,22.6875 52.9250013,22.582501 52.6625,22.3725 C52.3999987,22.1624989 52.26875,21.9058348 52.26875,21.6025 C52.26875,21.345832 52.3591658,21.1358342 52.54,20.9725 C52.7208342,20.8091658 52.9454153,20.7275 53.21375,20.7275 C53.5287516,20.7275 53.8087488,20.8295823 54.05375,21.03375 C54.2987512,21.2379177 54.42125,21.4974984 54.42125,21.8125 Z M54.26375,24.2625 C54.26375,24.472501 54.2170838,24.7699981 54.12375,25.155 C54.0304162,25.5400019 53.98375,25.837499 53.98375,26.0475 L53.98375,29.6525 C53.98375,29.8741678 54.047916,30.2241643 54.17625,30.7025 C54.0012491,30.9708347 53.8087511,31.105 53.59875,31.105 C52.8637463,31.105 52.4612504,30.7375037 52.39125,30.0025 C52.2745828,28.6374932 52.21625,27.6108368 52.21625,26.9225 C52.21625,25.7674942 52.2629162,24.7991706 52.35625,24.0175 C52.3445833,23.9591664 52.33875,23.9008336 52.33875,23.8425 C52.33875,23.6324989 52.5020817,23.5275 52.82875,23.5275 C53.1204181,23.5275 53.4120819,23.5858328 53.70375,23.7025 C54.0770852,23.830834 54.26375,24.0174988 54.26375,24.2625 Z M61.26375,29.0225 C61.26375,29.3841685 60.9895861,29.8099975 60.44125,30.3 C59.9512475,30.7550023 59.5108353,31.0408327 59.12,31.1575 C58.7291647,31.2741673 58.3587518,31.3325 58.00875,31.3325 C57.0870787,31.3325 56.3666693,31.0408363 55.8475,30.4575 C55.3283307,29.8741638 55.06875,29.1216713 55.06875,28.2 C55.06875,27.3016622 55.3079143,26.2983389 55.78625,25.19 C56.3579195,23.8599933 57.0229129,23.195 57.78125,23.195 C58.2012521,23.195 58.708747,23.3583317 59.30375,23.685 C59.9337532,24.0466685 60.3012495,24.4083315 60.40625,24.77 C60.4995838,25.0850016 60.54625,25.4408313 60.54625,25.8375 C60.54625,26.1991685 60.4704174,26.6074977 60.31875,27.0625 C60.1320824,27.6458362 59.8987514,27.9375 59.61875,27.9375 C59.4204157,27.9375 59.2337509,27.8791673 59.05875,27.7625 C58.848749,27.634166 58.74375,27.4766676 58.74375,27.29 C58.74375,27.2783333 58.7962495,27.1441679 58.90125,26.8875 C58.9595836,26.7708328 58.98875,26.4500026 58.98875,25.925 C58.98875,25.4933312 58.9712502,25.213334 58.93625,25.085 C58.8662497,24.7233315 58.702918,24.5425 58.44625,24.5425 C57.8745805,24.5425 57.4312516,25.0383284 57.11625,26.03 C56.8829155,26.7650037 56.76625,27.5058296 56.76625,28.2525 C56.76625,29.5008396 57.1629127,30.125 57.95625,30.125 C58.2712516,30.125 58.6329146,29.9616683 59.04125,29.635 C59.4145852,29.3316651 59.6770826,29.0225016 59.82875,28.7075 C60.0154176,28.3341648 60.2429153,28.1475 60.51125,28.1475 C60.6862509,28.1475 60.8554159,28.2495823 61.01875,28.45375 C61.1820842,28.6579177 61.26375,28.8474991 61.26375,29.0225 Z M68.40375,28.025 C68.40375,29.5300075 68.3570838,30.5916636 68.26375,31.21 C68.2054164,31.5716685 67.9604188,31.7525 67.52875,31.7525 C66.8754134,31.7525 66.5837497,31.4258366 66.65375,30.7725 C66.0704138,31.0525014 65.4637532,31.1925 64.83375,31.1925 C64.2270803,31.1925 63.6495861,31.0408348 63.10125,30.7375 C62.4479134,30.3758315 62.12125,29.9150028 62.12125,29.355 C62.12125,28.8066639 62.4945796,28.2933357 63.24125,27.815 C63.9179201,27.3833312 64.553747,27.1675 65.14875,27.1675 L66.63625,27.1675 L66.63625,26.7475 C66.6479167,25.5224939 66.2862537,24.91 65.55125,24.91 C64.6295787,24.91 64.16875,25.3416624 64.16875,26.205 C64.16875,26.4966681 64.0054183,26.6425 63.67875,26.6425 C63.4804157,26.6425 63.2733344,26.5520842 63.0575,26.37125 C62.8416656,26.1904158 62.73375,26.0008343 62.73375,25.8025 C62.73375,25.1491634 62.967081,24.6125021 63.43375,24.1925 C63.900419,23.7724979 64.4604134,23.5625 65.11375,23.5625 C67.3070943,23.5625 68.40375,25.0499851 68.40375,28.025 Z M66.63625,28.655 C66.63625,28.4216655 66.4612518,28.305 66.11125,28.305 C64.6529094,28.305 63.92375,28.6491632 63.92375,29.3375 C63.92375,29.7108352 64.2445801,29.8975 64.88625,29.8975 C65.2829186,29.8975 65.6562483,29.7866678 66.00625,29.565 C66.4262521,29.3199988 66.63625,29.0166685 66.63625,28.655 Z M73.33875,24.735 C73.33875,25.0500016 72.8545882,25.271666 71.88625,25.4 C71.8629166,25.6566679 71.85125,26.2399954 71.85125,27.15 L71.85125,28.305 C71.85125,28.5383345 71.8891663,28.8824977 71.965,29.3375 C72.0408337,29.7925023 72.07875,30.1308322 72.07875,30.3525 C72.07875,30.5391676 71.9854176,30.7054159 71.79875,30.85125 C71.6120824,30.9970841 71.4254176,31.07 71.23875,31.07 C70.9470819,31.07 70.7020843,30.8191692 70.50375,30.3175 C70.3520826,29.9324981 70.27625,29.5591685 70.27625,29.1975 L70.27625,25.4875 C69.7395807,25.4058329 69.4304171,25.3533335 69.34875,25.33 C69.0454152,25.2366662 68.89375,25.1025009 68.89375,24.9275 C68.89375,24.8808331 68.9054166,24.8283336 68.92875,24.77 C69.2320849,24.3383312 69.5704148,24.1225 69.94375,24.1225 L70.04875,24.1225 C70.0954169,24.1341667 70.1304166,24.14 70.15375,24.14 C70.3987512,24.14 70.5154167,23.8541695 70.50375,23.2825 L70.50375,22.005 C70.4337497,21.876666 70.39875,21.7658338 70.39875,21.6725 C70.39875,21.5208326 70.4891658,21.3837506 70.67,21.26125 C70.8508342,21.1387494 71.0229159,21.0775 71.18625,21.0775 C71.4312512,21.0775 71.6645822,21.1912489 71.88625,21.41875 C72.1079178,21.6462511 72.21875,21.888332 72.21875,22.145 C72.21875,22.4250014 72.1750004,22.702082 72.0875,22.97625 C71.9999996,23.250418 71.9620833,23.5333319 71.97375,23.825 L71.97375,23.895 C72.8837546,23.9883338 73.33875,24.268331 73.33875,24.735 Z M76.29625,21.8125 C76.29625,22.069168 76.2087509,22.2791658 76.03375,22.4425 C75.8587491,22.6058341 75.642918,22.6875 75.38625,22.6875 C75.0829152,22.6875 74.8000013,22.582501 74.5375,22.3725 C74.2749987,22.1624989 74.14375,21.9058348 74.14375,21.6025 C74.14375,21.345832 74.2341658,21.1358342 74.415,20.9725 C74.5958342,20.8091658 74.8204153,20.7275 75.08875,20.7275 C75.4037516,20.7275 75.6837488,20.8295823 75.92875,21.03375 C76.1737512,21.2379177 76.29625,21.4974984 76.29625,21.8125 Z M76.13875,24.2625 C76.13875,24.472501 76.0920838,24.7699981 75.99875,25.155 C75.9054162,25.5400019 75.85875,25.837499 75.85875,26.0475 L75.85875,29.6525 C75.85875,29.8741678 75.922916,30.2241643 76.05125,30.7025 C75.8762491,30.9708347 75.6837511,31.105 75.47375,31.105 C74.7387463,31.105 74.3362504,30.7375037 74.26625,30.0025 C74.1495828,28.6374932 74.09125,27.6108368 74.09125,26.9225 C74.09125,25.7674942 74.1379162,24.7991706 74.23125,24.0175 C74.2195833,23.9591664 74.21375,23.9008336 74.21375,23.8425 C74.21375,23.6324989 74.3770817,23.5275 74.70375,23.5275 C74.9954181,23.5275 75.2870819,23.5858328 75.57875,23.7025 C75.9520852,23.830834 76.13875,24.0174988 76.13875,24.2625 Z M82.85875,27.5525 C82.85875,28.6025053 82.5962526,29.5008296 82.07125,30.2475 C81.4645803,31.0991709 80.6595884,31.525 79.65625,31.525 C78.6295782,31.525 77.8537526,31.1750035 77.32875,30.475 C76.8504143,29.8566636 76.61125,29.016672 76.61125,27.955 C76.61125,26.9049948 76.8737474,25.913338 77.39875,24.98 C78.0054197,23.8716611 78.7929118,23.3175 79.76125,23.3175 C80.0645849,23.3175 80.4437477,23.4516653 80.89875,23.72 C82.2054232,24.5016706 82.85875,25.7791578 82.85875,27.5525 Z M81.31875,27.5175 C81.31875,25.7324911 80.8870877,24.84 80.02375,24.84 C79.4054136,24.84 78.9387516,25.2191629 78.62375,25.9775 C78.3904155,26.5491695 78.27375,27.196663 78.27375,27.92 C78.27375,29.4716744 78.7345787,30.2475 79.65625,30.2475 C80.251253,30.2475 80.6945819,29.9266699 80.98625,29.285 C81.2079178,28.7949975 81.31875,28.2058368 81.31875,27.5175 Z M90.20875,30.8775 C90.0337491,31.1458347 89.817918,31.28 89.56125,31.28 C89.3629157,31.28 89.0362523,31.1633345 88.58125,30.93 L88.58125,30.72 C88.58125,30.463332 88.5899999,30.0841692 88.6075,29.5825 C88.6250001,29.0808308 88.63375,28.7133345 88.63375,28.48 C88.63375,25.9833208 88.2604204,24.735 87.51375,24.735 C87.303749,24.735 87.0645847,24.8983317 86.79625,25.225 C85.9679125,26.2283384 85.55375,27.4358263 85.55375,28.8475 C85.55375,29.0458343 85.5916663,29.3404147 85.6675,29.73125 C85.7433337,30.1220853 85.78125,30.4166657 85.78125,30.615 C85.78125,30.7783341 85.7054174,30.9124995 85.55375,31.0175 C85.4020826,31.1225005 85.2387509,31.175 85.06375,31.175 C84.3637465,31.175 84.01375,30.7316711 84.01375,29.845 L84.01375,26.1875 C84.01375,26.0941662 84.0254166,25.9570842 84.04875,25.77625 C84.0720835,25.5954158 84.08375,25.4583338 84.08375,25.365 C84.08375,25.2249993 84.0633335,25.0208347 84.0225,24.7525 C83.9816665,24.4841653 83.96125,24.285834 83.96125,24.1575 C83.96125,23.9708324 84.0691656,23.7929175 84.285,23.62375 C84.5008344,23.4545825 84.6962491,23.37 84.87125,23.37 C85.127918,23.37 85.3904153,23.5158319 85.65875,23.8075 L85.60625,24.5075 C86.0379188,23.8191632 86.5687469,23.475 87.19875,23.475 C87.6070854,23.475 88.0387477,23.6149986 88.49375,23.895 C88.9487523,24.1750014 89.281249,24.4899982 89.49125,24.84 C89.9695857,25.7266711 90.20875,26.8933261 90.20875,28.34 L90.20875,30.8775 Z" id="NarrativeCertification"></path>
                        </g>
                    </g>
                </g>
            </g>
        </g>
    </g>
</svg>