<?xml version="1.0" encoding="UTF-8"?>
<svg width="500px" height="331px" viewBox="0 0 500 331" version="1.1" xmlns="http://www.w3.org/2000/svg" xmlns:xlink="http://www.w3.org/1999/xlink">
    <!-- Generator: Sketch 50.2 (55047) - http://www.bohemiancoding.com/sketch -->
    <title>frame-video</title>
    <desc>Created with Sketch.</desc>
    <defs>
        <polygon id="path-1" points="0 0.3814 22.5499 0.3814 22.5499 22.9314 0 22.9314"></polygon>
        <polygon id="path-3" points="0 0.4498 22.5499 0.4498 22.5499 22.9998 0 22.9998"></polygon>
    </defs>
    <g id="v2-landing-page" stroke="none" stroke-width="1" fill="none" fill-rule="evenodd">
        <g id="frame-video" transform="translate(0.000000, -1.000000)">
            <path d="M488.725,1.0004 C494.942,1.0004 500,6.0584 500,12.2744 C500,18.4924 494.942,23.5504 488.725,23.5504 C488.145,23.5504 487.676,23.0804 487.676,22.5004 C487.676,21.9214 488.145,21.4514 488.725,21.4514 C493.785,21.4514 497.901,17.3354 497.901,12.2744 C497.901,7.2154 493.785,3.0994 488.725,3.0994 C483.665,3.0994 479.549,7.2154 479.549,12.2744 C479.549,12.8544 479.079,13.3244 478.499,13.3244 C477.919,13.3244 477.45,12.8544 477.45,12.2744 C477.45,6.0584 482.508,1.0004 488.725,1.0004" id="Fill-1" fill="#231F20"></path>
            <path d="M491.9024,12.2758 C491.9024,14.0298 490.4804,15.4528 488.7254,15.4528 C486.9704,15.4528 485.5484,14.0298 485.5484,12.2758 C485.5484,10.5208 486.9704,9.0978 488.7254,9.0978 C490.4804,9.0978 491.9024,10.5208 491.9024,12.2758" id="Fill-3" fill="#40a9ff"></path>
            <g id="Group-7" transform="translate(0.000000, 0.619000)">
                <mask id="mask-2" fill="white">
                    <use xlink:href="#path-1"></use>
                </mask>
                <g id="Clip-6"></g>
                <path d="M11.2749,0.3814 C17.4919,0.3814 22.5499,5.4394 22.5499,11.6554 C22.5499,12.2354 22.0809,12.7054 21.5009,12.7054 C20.9209,12.7054 20.4509,12.2354 20.4509,11.6554 C20.4509,6.5964 16.3349,2.4804 11.2749,2.4804 C6.2149,2.4804 2.0989,6.5964 2.0989,11.6554 C2.0989,16.7164 6.2149,20.8324 11.2749,20.8324 C11.8549,20.8324 12.3239,21.3024 12.3239,21.8814 C12.3239,22.4614 11.8549,22.9314 11.2749,22.9314 C5.0579,22.9314 -0.0001,17.8734 -0.0001,11.6554 C-0.0001,5.4394 5.0579,0.3814 11.2749,0.3814" id="Fill-5" fill="#231F20" mask="url(#mask-2)"></path>
            </g>
            <path d="M8.0981,12.2758 C8.0981,14.0298 9.5201,15.4528 11.2751,15.4528 C13.0301,15.4528 14.4521,14.0298 14.4521,12.2758 C14.4521,10.5208 13.0301,9.0978 11.2751,9.0978 C9.5201,9.0978 8.0981,10.5208 8.0981,12.2758" id="Fill-8" fill="#40a9ff"></path>
            <path d="M21.5016,11.226 C22.0816,11.226 22.5506,11.696 22.5506,12.275 L22.5506,320.344 C22.5506,320.924 22.0816,321.393 21.5016,321.393 C20.9216,321.393 20.4526,320.924 20.4526,320.344 L20.4526,12.275 C20.4526,11.696 20.9216,11.226 21.5016,11.226" id="Fill-10" fill="#231F20"></path>
            <g id="Group-14" transform="translate(0.000000, 308.619000)">
                <mask id="mask-4" fill="white">
                    <use xlink:href="#path-3"></use>
                </mask>
                <g id="Clip-13"></g>
                <path d="M11.2749,0.4498 C11.8549,0.4498 12.3239,0.9198 12.3239,1.4998 C12.3239,2.0798 11.8549,2.5488 11.2749,2.5488 C6.2149,2.5488 2.0989,6.6648 2.0989,11.7248 C2.0989,16.7848 6.2149,20.9008 11.2749,20.9008 C16.3349,20.9008 20.4509,16.7848 20.4509,11.7248 C20.4509,11.1448 20.9209,10.6758 21.5009,10.6758 C22.0809,10.6758 22.5499,11.1448 22.5499,11.7248 C22.5499,17.9418 17.4919,22.9998 11.2749,22.9998 C5.0579,22.9998 -0.0001,17.9418 -0.0001,11.7248 C-0.0001,5.5088 5.0579,0.4498 11.2749,0.4498" id="Fill-12" fill="#231F20" mask="url(#mask-4)"></path>
            </g>
            <path d="M11.2749,28.9692 C11.8549,28.9692 12.3239,29.4382 12.3239,30.0182 L12.3239,302.6012 C12.3239,303.1812 11.8549,303.6512 11.2749,303.6512 C10.6949,303.6512 10.2259,303.1812 10.2259,302.6012 L10.2259,30.0182 C10.2259,29.4382 10.6949,28.9692 11.2749,28.9692" id="Fill-15" fill="#231F20"></path>
            <path d="M8.0981,320.3432 C8.0981,318.5892 9.5201,317.1662 11.2751,317.1662 C13.0301,317.1662 14.4521,318.5892 14.4521,320.3432 C14.4521,322.0982 13.0301,323.5212 11.2751,323.5212 C9.5201,323.5212 8.0981,322.0982 8.0981,320.3432" id="Fill-17" fill="#40a9ff"></path>
            <path d="M478.4983,11.226 C479.0783,11.226 479.5473,11.696 479.5473,12.275 L479.5473,320.343 C479.5473,320.923 479.0783,321.392 478.4983,321.392 C477.9183,321.392 477.4493,320.923 477.4493,320.343 L477.4493,12.275 C477.4493,11.696 477.9183,11.226 478.4983,11.226" id="Fill-19" fill="#231F20"></path>
            <path d="M488.725,309.0678 C494.942,309.0678 500,314.1268 500,320.3428 C500,326.5598 494.942,331.6178 488.725,331.6178 C482.508,331.6178 477.45,326.5598 477.45,320.3428 C477.45,319.7628 477.919,319.2938 478.499,319.2938 C479.079,319.2938 479.549,319.7628 479.549,320.3428 C479.549,325.4028 483.665,329.5188 488.725,329.5188 C493.785,329.5188 497.901,325.4028 497.901,320.3428 C497.901,315.2828 493.785,311.1668 488.725,311.1668 C488.145,311.1668 487.676,310.6978 487.676,310.1178 C487.676,309.5378 488.145,309.0678 488.725,309.0678" id="Fill-21" fill="#231F20"></path>
            <path d="M488.725,28.9692 C489.305,28.9692 489.774,29.4382 489.774,30.0182 L489.774,302.6012 C489.774,303.1812 489.305,303.6512 488.725,303.6512 C488.145,303.6512 487.676,303.1812 487.676,302.6012 L487.676,30.0182 C487.676,29.4382 488.145,28.9692 488.725,28.9692" id="Fill-23" fill="#231F20"></path>
            <path d="M488.9081,309.0678 C490.1651,309.0678 489.7741,309.4638 489.7741,310.0468 C489.7741,310.6318 489.8141,311.1518 488.5561,311.1518 L11.2751,311.1678 C10.0181,311.1678 11.2751,310.6318 11.2751,310.0478 C11.2751,309.4638 9.6191,309.0768 10.8761,309.0768 L488.9081,309.0678 Z" id="Fill-25" fill="#231F20"></path>
            <path d="M152.4411,319.2924 L447.0861,319.2924 C448.3131,319.2924 449.3071,319.7614 449.3071,320.3414 C449.3071,320.9214 448.3131,321.3914 447.0861,321.3914 L64.1921,321.3924 C62.9641,321.3924 61.9711,320.9224 61.9711,320.3424 C61.9711,319.7624 62.9641,319.2934 64.1921,319.2934 L152.4411,319.2924 Z" id="Fill-27" fill="#231F20"></path>
            <path d="M491.9025,320.3432 C491.9025,318.5892 490.4805,317.1662 488.7255,317.1662 C486.9705,317.1662 485.5485,318.5892 485.5485,320.3432 C485.5485,322.0982 486.9705,323.5212 488.7255,323.5212 C490.4805,323.5212 491.9025,322.0982 491.9025,320.3432" id="Fill-29" fill="#40a9ff"></path>
            <path d="M13.5498,23.601 C12.2928,23.601 11.2748,23.131 11.2748,22.551 C11.2748,21.971 12.2928,21.502 13.5498,21.502 L488.6028,21.501 C489.8598,21.501 490.8768,21.97 490.8768,22.55 C490.8768,23.13 489.8598,23.6 488.6028,23.6 L13.5498,23.601 Z" id="Fill-31" fill="#231F20"></path>
            <path d="M350.6087,13.3754 L55.9637,13.3754 C54.7367,13.3754 53.7427,12.9054 53.7427,12.3254 C53.7427,11.7454 54.7367,11.2764 55.9637,11.2764 L438.8577,11.2754 C440.0857,11.2754 441.0787,11.7444 441.0787,12.3244 C441.0787,12.9044 440.0857,13.3744 438.8577,13.3744 L350.6087,13.3754 Z" id="Fill-33" fill="#231F20"></path>
        </g>
    </g>
</svg>
