<?xml version="1.0" encoding="UTF-8"?>
<svg width="572px" height="260px" viewBox="0 0 572 260" version="1.1" xmlns="http://www.w3.org/2000/svg" xmlns:xlink="http://www.w3.org/1999/xlink">
    <!-- Generator: Sketch 50.2 (55047) - http://www.bohemiancoding.com/sketch -->
    <title>graphic-almost-there</title>
    <desc>Created with Sketch.</desc>
    <defs>
        <rect id="path-1" x="0" y="0" width="572" height="260"></rect>
    </defs>
    <g id="graphic-almost-there" stroke="none" stroke-width="1" fill="none" fill-rule="evenodd">
        <g id="Group-22">
            <mask id="mask-2" fill="white">
                <use xlink:href="#path-1"></use>
            </mask>
            <g id="Mask"></g>
            <g mask="url(#mask-2)">
                <g transform="translate(51.000000, 2.000000)">
                    <path d="M317.317378,239.161786 C326.88649,273.229953 304.033965,307.039829 266.274386,314.677723 C228.514807,322.315617 190.147401,300.889286 180.577851,266.82112 C171.008739,232.752517 193.861702,198.942641 231.620844,191.304747 C269.380423,183.667289 307.747828,205.093183 317.317378,239.161786" id="Fill-1" fill="#06E2F9"></path>
                    <path d="M282.639042,181.856943 C301.186057,215.295963 285.586344,256.504204 247.796592,273.898236 C210.007278,291.292268 164.337647,278.284811 145.791068,244.845791 C127.244053,211.406771 142.843766,170.198094 180.63308,152.804498 C218.422395,135.410466 264.092464,148.417487 282.639042,181.856943" id="Fill-3" fill="#06E2F9"></path>
                    <path d="M232.109947,260.434669 C230.202072,307.662998 186.668579,346.305786 134.875642,346.746451 C83.0822684,347.187115 42.6430055,309.258116 44.5508809,262.030224 C46.4587564,214.801895 89.9922495,176.158671 141.785186,175.718443 C193.57856,175.277778 234.017823,213.20634 232.109947,260.434669" id="Fill-5" fill="#06E2F9"></path>
                    <path d="M487.072857,238.244244 C483.235242,273.279255 448.872932,299.80595 410.322304,297.493552 C371.771676,295.181154 343.631935,264.904884 347.469112,229.869873 C351.306727,194.834862 385.669038,168.308167 424.219666,170.620565 C462.770294,172.933399 490.910472,203.209233 487.072857,238.244244" id="Fill-7" fill="#F2794F"></path>
                    <path d="M389.578761,257.04609 C388.156272,292.260857 355.69659,321.074645 317.077308,321.40318 C278.458901,321.732151 248.305461,293.451088 249.728387,258.236321 C251.150876,223.021117 283.610558,194.20733 322.229403,193.878795 C360.848247,193.55026 391.001687,221.831323 389.578761,257.04609" id="Fill-9" fill="#06E2F9"></path>
                    <path d="M393.944354,200.729121 C397.702384,244.943043 361.615858,284.097176 313.34263,288.181831 C265.069402,292.266922 222.889744,259.735409 219.131278,215.521487 C215.373249,171.307129 251.459774,132.153432 299.733002,128.068341 C348.00623,123.983686 390.185888,156.515199 393.944354,200.729121" id="Fill-11" fill="#06E2F9"></path>
                    <path d="M244.938977,133.004613 C253.300308,162.773028 233.331678,192.315875 200.338071,198.989979 C167.344026,205.663647 133.819117,186.94195 125.457349,157.173098 C117.096018,127.404683 137.064648,97.8618353 170.058256,91.1881675 C203.0523,84.5140634 236.577209,103.236197 244.938977,133.004613" id="Fill-13" fill="#F2794F"></path>
                    <path d="M185.966517,140.465412 C214.759563,157.491642 221.255872,195.432421 200.476515,225.208253 C179.696722,254.984085 139.510647,265.319196 110.718039,248.292529 C81.924993,231.265863 75.4286838,193.325084 96.2080403,163.549252 C116.987397,133.773856 157.173472,123.438746 185.966517,140.465412" id="Fill-15" fill="#06E2F9"></path>
                    <path d="M228.660335,222.095111 C226.337476,279.583506 173.346815,326.621607 110.301656,327.157386 C47.2564958,327.6936 -1.96826452,281.524611 0.354157302,224.036216 C2.67701641,166.547821 55.6681143,119.50972 118.712837,118.973505 C181.757997,118.437727 230.983194,164.606716 228.660335,222.095111" id="Fill-17" fill="#F2794F"></path>
                    <path d="M359.408223,185.512451 C358.165021,216.282615 329.802265,241.45983 296.057401,241.747352 C262.312975,242.034002 235.965229,217.322758 237.20843,186.552158 C238.451632,155.781558 266.814826,130.604343 300.559253,130.317257 C334.304116,130.030171 360.651425,154.741852 359.408223,185.512451" id="Fill-19" fill="#06E2F9"></path>
                    <path d="M447.359313,183.297523 C450.643325,221.931149 419.110687,256.143731 376.930155,259.713114 C334.749622,263.28206 297.893474,234.856581 294.6099,196.222955 C291.325888,157.588893 322.857651,123.376747 365.038183,119.807365 C407.219153,116.237982 444.075301,144.663898 447.359313,183.297523" id="Fill-21" fill="#F2794F"></path>
                    <path d="M168.315849,129.015901 C167.522613,128.153769 167.420726,126.891985 167.917919,125.831772 C168.383191,124.838314 168.64425,123.73098 168.64425,122.561692 C168.64425,120.400691 167.757436,118.449551 166.32795,117.043787 C165.487051,116.21656 165.257913,114.908528 165.773035,113.848315 C166.219941,112.928591 166.414533,111.864452 166.266293,110.744466 C165.944888,108.312958 163.94081,106.354837 161.498572,106.07953 C158.203628,105.708238 155.411999,108.2702 155.411999,111.482688 C155.411999,112.317333 155.600906,113.107475 155.937616,113.813411 C156.45886,114.90591 156.203923,116.237502 155.348593,117.094398 C153.948843,118.496235 153.083455,120.426433 153.083455,122.561692 C153.083455,123.731417 153.344515,124.83875 153.809786,125.832208 C154.307854,126.894603 154.202031,128.156387 153.407046,129.0207 C151.564764,131.024633 150.521839,133.768969 150.792081,136.760252 C151.238549,141.705293 155.376579,145.657749 160.346763,145.904259 C166.167467,146.193527 170.977604,141.57004 170.977604,135.826131 C170.977604,133.198287 169.967038,130.809536 168.315849,129.015901" id="Fill-23" fill="#FFFFFF"></path>
                    <path d="M160.863634,114.854863 L160.863634,155.697483" id="Fill-25" fill="#FFFFFF"></path>
                    <path d="M160.864071,156.862495 C160.218638,156.862495 159.696083,156.340678 159.696083,155.69757 L159.696083,114.85495 C159.696083,114.211405 160.218638,113.690025 160.864071,113.690025 C161.509067,113.690025 162.031623,114.211405 162.031623,114.85495 L162.031623,155.69757 C162.031623,156.340678 161.509067,156.862495 160.864071,156.862495" id="Fill-27" fill="#231F20"></path>
                    <path d="M160.863634,137.860605 L163.714296,134.799077" id="Fill-29" fill="#FFFFFF"></path>
                    <path d="M160.864071,139.026097 C160.579399,139.026097 160.294289,138.92313 160.069087,138.715014 C159.596382,138.276967 159.569707,137.539618 160.007867,137.067976 L162.858529,134.006012 C163.297564,133.535242 164.036576,133.507755 164.508844,133.94493 C164.981549,134.383413 165.008661,135.120326 164.570064,135.591968 L161.719839,138.653932 C161.489389,138.900878 161.177168,139.026097 160.864071,139.026097" id="Fill-31" fill="#231F20"></path>
                    <path d="M160.645429,133.82691 L157.794766,130.765382" id="Fill-33" fill="#FFFFFF"></path>
                    <path d="M160.645429,134.992053 C160.332333,134.992053 160.019674,134.866835 159.789662,134.619888 L156.938999,131.55836 C156.500839,131.086718 156.527514,130.349369 157.000219,129.911322 C157.472924,129.473712 158.211062,129.500762 158.650971,129.972404 L161.501196,133.033932 C161.939793,133.505574 161.912681,134.242923 161.439976,134.68097 C161.215211,134.889086 160.929664,134.992053 160.645429,134.992053" id="Fill-35" fill="#231F20"></path>
                    <path d="M406.693493,184.550799 C406.236092,184.054288 406.177496,183.326974 406.463918,182.716151 C406.732411,182.143724 406.882837,181.505851 406.882837,180.831765 C406.882837,179.586561 406.371651,178.461775 405.547805,177.652 C405.062856,177.175559 404.931233,176.42163 405.227712,175.810808 C405.485273,175.280701 405.597656,174.667698 405.512385,174.021971 C405.326976,172.621007 404.172106,171.492732 402.764922,171.333918 C400.86623,171.12013 399.257457,172.596574 399.257457,174.447802 C399.257457,174.928606 399.366341,175.383668 399.560496,175.790738 C399.860911,176.419884 399.713983,177.187339 399.220725,177.681232 C398.414371,178.488826 397.915866,179.601395 397.915866,180.831765 C397.915866,181.505851 398.066292,182.143724 398.334348,182.716151 C398.621207,183.328282 398.559987,184.055597 398.102587,184.553853 C397.040859,185.708307 396.439591,187.2899 396.595265,189.013291 C396.852826,191.863212 399.236905,194.140706 402.101123,194.282941 C405.455538,194.449172 408.227052,191.785115 408.227052,188.475331 C408.227052,186.960929 407.645025,185.584398 406.693493,184.550799" id="Fill-37" fill="#FFFFFF"></path>
                    <path d="M402.39922,176.390827 L402.39922,199.925803" id="Fill-39" fill="#FFFFFF"></path>
                    <path d="M402.39922,200.597052 C402.027528,200.597052 401.726676,200.296877 401.726676,199.925584 L401.726676,176.391045 C401.726676,176.019752 402.027528,175.719577 402.39922,175.719577 C402.77135,175.719577 403.072202,176.019752 403.072202,176.391045 L403.072202,199.925584 C403.072202,200.296877 402.77135,200.597052 402.39922,200.597052" id="Fill-41" fill="#231F20"></path>
                    <path d="M402.39922,189.647543 L404.041664,187.883576" id="Fill-43" fill="#FFFFFF"></path>
                    <path d="M402.39922,190.319011 C402.235238,190.319011 402.070819,190.259674 401.941383,190.139691 C401.668954,189.887072 401.653649,189.462114 401.905963,189.190735 L403.547969,187.426768 C403.802031,187.155388 404.227947,187.139245 404.499501,187.391427 C404.77193,187.644046 404.787235,188.069004 404.534484,188.340383 L402.892478,190.10435 C402.759543,190.246585 402.579382,190.319011 402.39922,190.319011" id="Fill-45" fill="#231F20"></path>
                    <path d="M402.273239,187.323277 L400.630795,185.558874" id="Fill-47" fill="#FFFFFF"></path>
                    <path d="M402.273239,187.994571 C402.093077,187.994571 401.912916,187.922581 401.779981,187.77991 L400.1371,186.015943 C399.884787,185.744564 399.900092,185.319606 400.17252,185.066988 C400.444074,184.815242 400.869553,184.829203 401.123616,185.102328 L402.766496,186.866295 C403.01881,187.137675 403.003505,187.562632 402.731076,187.815251 C402.60164,187.935234 402.437658,187.994571 402.273239,187.994571" id="Fill-49" fill="#231F20"></path>
                    <path d="M119.530779,209.238047 C113.307773,229.390814 122.282177,250.038346 139.576808,255.355116 C156.871439,260.67145 175.935763,248.644363 182.159643,228.491596 C188.383086,208.338394 179.408245,187.691298 162.114051,182.374964 C144.819421,177.058194 125.754222,189.085281 119.530779,209.238047" id="Fill-65" fill="#231F20"></path>
                    <path d="M149.61762,228.329859 C148.48374,249.387515 162.213621,267.243591 180.283996,268.212616 C198.35437,269.181642 213.922599,252.896688 215.056479,231.839032 C216.19036,210.781377 202.460916,192.925738 184.390541,191.956276 C166.319729,190.98725 150.751501,207.272204 149.61762,228.329859" id="Fill-67" fill="#231F20"></path>
                    <path d="M63.3353423,187.195266 C48.8310287,202.533882 47.7439376,225.013008 60.9062229,237.403535 C74.0689454,249.794497 96.4973045,247.404438 111.001181,232.065822 C125.505057,216.727206 126.592585,194.24808 113.429863,181.857117 C100.26714,169.466591 77.8392186,171.856214 63.3353423,187.195266" id="Fill-69" fill="#231F20"></path>
                    <path d="M84.7725944,218.471976 C83.6387138,239.529632 97.3685953,257.385707 115.43897,258.354733 C133.509344,259.323758 149.077573,243.038805 150.211454,221.981149 C151.345334,200.923493 137.61589,183.067854 119.545515,182.098392 C101.474704,181.129803 85.9069123,197.41432 84.7725944,218.471976" id="Fill-71" fill="#231F20"></path>
                    <path d="M147.682283,155.063842 C119.113565,161.12407 100.134074,185.652068 105.289667,209.849349 C110.445697,234.046194 137.78477,248.749555 166.353488,242.689327 C194.922206,236.629099 213.902134,212.101101 208.746104,187.90382 C203.590074,163.706539 176.251001,149.003614 147.682283,155.063842" id="Fill-73" fill="#231F20"></path>
                    <path d="M214.928136,164.428094 C212.893885,178.072115 220.736158,190.541612 232.445345,192.2794 C244.153657,194.017189 255.29481,184.365764 257.328623,170.721743 C259.362874,157.077723 251.520601,144.608662 239.811852,142.870437 C228.10354,141.132648 216.962387,150.78451 214.928136,164.428094" id="Fill-75" fill="#231F20"></path>
                    <path d="M246.953288,187.808183 C267.8494,187.442126 284.534455,172.672883 284.220921,154.820735 C283.90695,136.968586 266.712458,122.793587 245.815909,123.159644 C224.919797,123.526137 208.234742,138.295379 208.548713,156.147528 C208.863121,173.999676 226.057176,188.174676 246.953288,187.808183" id="Fill-77" fill="#231F20"></path>
                    <path d="M275.744541,137.828187 C267.915386,149.918102 273.234086,167.229673 287.624268,176.494972 C302.01445,185.759834 320.027541,183.469688 327.856695,171.379773 C335.68585,159.289858 330.36715,141.978287 315.976968,132.713425 C301.586348,123.448562 283.573695,125.738273 275.744541,137.828187" id="Fill-79" fill="#231F20"></path>
                    <path d="M311.29959,172.984359 C303.470435,185.074274 308.789135,202.385845 323.179318,211.650707 C337.569937,220.91557 355.58259,218.625859 363.411745,206.535945 C371.240899,194.44603 365.922199,177.134459 351.532017,167.86916 C337.141835,158.604298 319.128745,160.894444 311.29959,172.984359" id="Fill-81" fill="#231F20"></path>
                    <path d="M236.269273,173.816255 C237.615237,187.544918 248.25701,197.741721 260.037911,196.592066 C271.81925,195.441976 280.278532,183.380857 278.932131,169.65263 C277.586167,155.923967 266.944394,145.727164 255.163493,146.876819 C243.382592,148.026473 234.923309,160.088028 236.269273,173.816255" id="Fill-83" fill="#231F20"></path>
                    <path d="M171.929836,173.816255 C173.2758,187.544918 183.917573,197.741721 195.698475,196.592066 C207.479813,195.441976 215.939096,183.380857 214.592695,169.65263 C213.246293,155.923967 202.60452,145.727164 190.823619,146.876819 C179.042718,148.026473 170.583435,160.088028 171.929836,173.816255" id="Fill-85" fill="#231F20"></path>
                    <path d="M193.36324,173.816255 C194.709642,187.544918 205.351415,197.741721 217.132316,196.592066 C228.913654,195.441976 237.372937,183.380857 236.026099,169.65263 C234.680135,155.923967 224.038362,145.727164 212.25746,146.876819 C200.476559,148.026473 192.017276,160.088028 193.36324,173.816255" id="Fill-87" fill="#231F20"></path>
                    <path d="M193.261178,155.483913 C193.261178,169.397132 202.857402,180.675962 214.695151,180.675962 C226.532462,180.675962 236.128248,169.397132 236.128248,155.483913 C236.128248,141.570694 226.532462,130.292301 214.695151,130.292301 C202.857402,130.292301 193.261178,141.570694 193.261178,155.483913" id="Fill-89" fill="#231F20"></path>
                    <path d="M340.922646,241.196958 C357.199277,259.120224 357.925171,284.922222 342.5441,298.827151 C327.162592,312.732516 301.499197,309.475089 285.222567,291.551823 C268.945936,273.628558 268.220043,247.826123 283.601113,233.921194 C298.982183,220.016265 324.645579,223.273256 340.922646,241.196958" id="Fill-91" fill="#231F20"></path>
                    <path d="M325.277762,189.453039 C341.554392,207.376305 342.280286,233.178303 326.899215,247.083232 C311.518145,260.988598 285.85475,257.731171 269.578119,239.807905 C253.301051,221.884639 252.575158,196.082204 267.956666,182.177275 C283.337736,168.272347 309.001131,171.529337 325.277762,189.453039" id="Fill-93" fill="#231F20"></path>
                    <path d="M318.955886,275.613642 C330.384772,296.94355 324.811572,322.149561 306.50725,331.913552 C288.203802,341.677543 264.100641,332.301424 252.671754,310.971952 C241.242868,289.642044 246.816068,264.435598 265.119953,254.671606 C283.423838,244.908051 307.526562,254.284171 318.955886,275.613642" id="Fill-95" fill="#231F20"></path>
                    <path d="M407.030858,209.735518 C418.459745,231.06499 412.886545,256.271437 394.58266,266.035428 C376.278775,275.798983 352.176051,266.4233 340.746727,245.093828 C329.31784,223.763921 334.89104,198.557474 353.195362,188.793482 C371.49881,179.029927 395.601971,188.40561 407.030858,209.735518" id="Fill-97" fill="#231F20"></path>
                    <path d="M381.532101,233.947067 C392.960987,255.276538 387.387787,280.482985 369.083902,290.246977 C350.780017,300.010532 326.676856,290.634849 315.247969,269.305377 C303.819083,247.975469 309.392283,222.769022 327.696168,213.005031 C346.000053,203.241476 370.103214,212.617159 381.532101,233.947067" id="Fill-99" fill="#231F20"></path>
                    <path d="M363.797692,207.111077 C377.369714,227.402588 374.376497,253.170991 357.112476,264.666663 C339.847581,276.162335 314.849734,269.031423 301.277712,248.740349 C287.705253,228.448403 290.698471,202.679999 307.962929,191.184327 C325.227387,179.688655 350.225671,186.819567 363.797692,207.111077" id="Fill-101" fill="#231F20"></path>
                    <path d="M460.85411,242.442555 C436.761006,245.111848 419.086374,263.960945 421.377312,284.543905 C423.667812,305.125992 445.055869,319.647851 469.148973,316.978559 C493.24164,314.309703 510.916271,295.460169 508.625771,274.877645 C506.335271,254.295122 484.947214,239.773263 460.85411,242.442555" id="Fill-105" fill="#231F20"></path>
                    <path d="M379.572844,202.340557 C356.849755,210.765539 344.290049,233.331925 351.519685,252.743852 C358.749322,272.156215 383.030459,281.062873 405.753548,272.637891 C428.476637,264.212909 441.036343,241.646087 433.806707,222.23416 C426.57707,202.822234 402.295934,193.915575 379.572844,202.340557" id="Fill-109" fill="#231F20"></path>
                    <path d="M389.17178,238.594027 C366.44869,247.019009 353.888547,269.585395 361.118621,288.997322 C368.34782,308.409685 392.628957,317.316343 415.352046,308.891361 C438.075135,300.466379 450.635279,277.899557 443.405205,258.48763 C436.175568,239.075704 411.894432,230.169045 389.17178,238.594027" id="Fill-111" fill="#231F20"></path>
                    <path d="M420.274129,230.211628 C396.634489,236.44245 381.768541,257.724801 387.06975,277.747113 C392.370958,297.768989 415.832185,308.949215 439.47095,302.71883 C463.110589,296.488008 477.976537,275.205657 472.675329,255.183344 C467.37412,235.161468 443.91333,223.981242 420.274129,230.211628" id="Fill-113" fill="#231F20"></path>
                    <path d="M172.222817,255.223135 C176.519145,280.003752 162.762152,303.067522 141.496534,306.73769 C120.230916,310.407858 99.5092814,293.294368 95.2133913,268.513751 C90.9166267,243.733135 104.67362,220.669365 125.939238,216.999197 C147.204855,213.329028 167.926927,230.442519 172.222817,255.223135" id="Fill-115" fill="#231F20"></path>
                    <path d="M134.557342,270.401017 C132.695382,295.480937 113.739067,314.523316 92.2167631,312.932997 C70.694459,311.343114 54.7562872,289.722629 56.6182477,264.64271 C58.4797709,239.562791 77.4365226,220.520412 98.9588267,222.110294 C120.481131,223.700613 136.419303,245.321098 134.557342,270.401017" id="Fill-117" fill="#231F20"></path>
                    <path d="M314.132542,270.232299 C311.279693,308.662609 277.74254,337.509119 239.225583,334.663124 C200.708626,331.817129 171.797514,298.356294 174.650363,259.925985 C177.503649,221.495676 211.040364,192.649166 249.557321,195.495161 C288.074278,198.341155 316.985391,231.80199 314.132542,270.232299" id="Fill-119" fill="#231F20"></path>
                    <path d="M212.759639,276.178827 C210.897678,301.258747 191.941364,320.301126 170.41906,318.710807 C148.896755,317.120924 132.958584,295.500439 134.820544,270.42052 C136.682067,245.340601 155.638819,226.298221 177.161123,227.888104 C198.683865,229.478423 214.621599,251.098908 212.759639,276.178827" id="Fill-121" fill="#231F20"></path>
                    <path d="M232.037795,239.274701 C232.677106,266.299216 211.238323,288.723804 184.152439,289.361677 C157.066993,289.99955 134.591407,268.60856 133.952096,241.584045 C133.312785,214.559529 154.752442,192.134941 181.837451,191.497068 C208.923335,190.859195 231.398484,212.250186 232.037795,239.274701" id="Fill-123" fill="#231F20"></path>
                    <path d="M192.64067,258.142603 L192.64067,194.04773 C192.64067,148.730838 229.801606,111.6535 275.22111,111.6535 C320.640177,111.6535 357.801113,148.730838 357.801113,194.04773 L357.801113,258.142603" id="Fill-125" fill="#FFFFFF"></path>
                    <path d="M357.801288,260.47302 C356.511734,260.47302 355.465747,259.429387 355.465747,258.142734 L355.465747,194.047861 C355.465747,149.900257 319.46799,113.983481 275.220848,113.983481 C230.973705,113.983481 194.976386,149.900257 194.976386,194.047861 L194.976386,258.142734 C194.976386,259.429387 193.930399,260.47302 192.640845,260.47302 C191.350854,260.47302 190.305305,259.429387 190.305305,258.142734 L190.305305,194.047861 C190.305305,147.330878 228.398095,109.322909 275.220848,109.322909 C322.0436,109.322909 360.136828,147.330878 360.136828,194.047861 L360.136828,258.142734 C360.136828,259.429387 359.090842,260.47302 357.801288,260.47302" id="Fill-127" fill="#231F20"></path>
                    <path d="M193.589142,258.142603 L193.589142,194.04773 C193.589142,152.346905 225.056624,117.622978 265.46965,112.346783 L286.940791,112.346783 C246.528203,117.622978 215.060721,152.346905 215.060721,194.04773 L215.060721,258.142603" id="Fill-129" fill="#06E2F9"></path>
                    <path d="M100.562658,449.550298 L100.562658,262.891788 C100.562658,217.574896 137.723593,180.497558 183.143098,180.497558 C228.562165,180.497558 265.7231,217.574896 265.7231,262.891788 L265.7231,449.550298" id="Fill-131" fill="#FFFFFF"></path>
                    <path d="M265.723275,451.880279 C264.433721,451.880279 263.387735,450.837082 263.387735,449.550429 L263.387735,262.891919 C263.387735,218.744315 227.389978,182.827539 183.142835,182.827539 C138.895693,182.827539 102.897936,218.744315 102.897936,262.891919 L102.897936,449.550429 C102.897936,450.837082 101.852824,451.880279 100.562833,451.880279 C99.2728412,451.880279 98.2272923,450.837082 98.2272923,449.550429 L98.2272923,262.891919 C98.2272923,216.174499 136.320083,178.167403 183.142835,178.167403 C229.965588,178.167403 268.058815,216.174499 268.058815,262.891919 L268.058815,449.550429 C268.058815,450.837082 267.013266,451.880279 265.723275,451.880279" id="Fill-133" fill="#231F20"></path>
                    <path d="M100.515693,449.550298 L100.515693,262.891788 C100.515693,221.190963 131.983175,186.467035 172.396201,181.190841 L193.867343,181.190841 C153.454754,186.467035 121.987272,221.190963 121.987272,262.891788 L121.987272,449.550298" id="Fill-135" fill="#06E2F9"></path>
                    <path d="M96.4191179,201.135797 C122.828959,210.927712 137.965587,235.70702 130.227825,256.481952 C122.490937,277.256885 94.809471,286.160489 68.4005045,276.368575 C41.9906634,266.577096 26.8540354,241.797789 34.5913601,221.022856 C42.3286849,200.247488 70.0097141,191.344319 96.4191179,201.135797" id="Fill-143" fill="#231F20"></path>
                    <path d="M78.3072449,239.850313 C101.030334,248.275295 113.590478,270.841682 106.360404,290.253608 C99.1307673,309.665971 74.8496307,318.57263 52.1269786,310.147648 C29.4038893,301.722666 16.8437458,279.155843 24.0738197,259.743917 C31.3034563,240.33199 55.5845929,231.425331 78.3072449,239.850313" id="Fill-145" fill="#231F20"></path>
                    <path d="M283.456809,146.182707 L256.15578,172.277463 L265.917299,182.83945 L303.78926,153.78526 L301.451533,153.78526 C299.255924,152.191451 302.793999,153.585871 301.451533,153.78526 C300.109942,153.984214 283.456809,146.182707 283.456809,146.182707" id="Fill-151" fill="#231F20"></path>
                    <polyline id="Fill-152" fill="#231F20" points="269.321914 173.077859 263.34991 224.253407 255.232584 223.442759 256.15613 172.277682"></polyline>
                    <path d="M247.281252,216.29409 L256.654898,218.902736 L263.376409,224.246121 C263.376409,224.246121 262.49353,228.387495 259.303534,231.326858 L240.610466,216.466429 C240.610466,216.466429 243.234177,213.708567 247.281252,216.29409" id="Fill-153" fill="#231F20"></path>
                    <path d="M342.08635,94.1950702 L356.83773,72.1609716 L365.101546,65.0409674 L367.974947,58.62559 L367.830206,54.6207785 C367.830206,54.6207785 366.75842,53.2983487 365.552824,54.6247053 C364.347229,55.9514981 359.073132,62.0387767 359.073132,62.0387767 C359.073132,62.0387767 357.851357,61.733802 358.596928,60.3716687 C359.342499,59.0099717 360.159348,56.7324778 358.671267,55.7324748 L354.776804,61.924902 L352.174083,68.2281499 L352.189825,68.2425478 L334.71066,87.9795189 L342.08635,94.1950702 Z" id="Fill-154" fill="#06E2F9"></path>
                    <path d="M283.408533,154.064014 L283.915783,133.491961 C284.115185,133.632014 321.394188,133.412554 321.540679,133.382013 L322.673685,152.238964 L322.572234,247.943881 L314.454909,247.132796 L301.703672,156.711927" id="Fill-155" fill="#231F20"></path>
                    <path d="M309.147753,250.670722 L314.908549,246.882752 L322.642375,246.882752 C322.642375,246.882752 324.538006,250.670722 323.879018,254.952585 L304.038512,254.952585 C304.038512,254.952585 304.367788,251.164615 309.147753,250.670722" id="Fill-156" fill="#231F20"></path>
                    <path d="M264.147518,136.026131 L272.075936,112.869429 L278.237285,78.6437575 L286.973369,89.1939642 L280.934898,116.712373 L269.551926,139.209387 C269.5786,139.228148 269.6044,139.248218 269.630637,139.266979 L268.578092,145.329388 L266.125359,152.219462 C264.455367,151.564137 264.756656,149.162297 265.187819,147.671018 C265.618545,146.17974 264.360038,146.144836 264.360038,146.144836 C264.360038,146.144836 260.538166,153.230809 259.650477,154.787096 C258.763225,156.343383 257.429068,155.282298 257.429068,155.282298 L256.415003,151.40096 L257.822624,144.512632 L264.147518,136.026131 Z" id="Fill-157" fill="#06E2F9"></path>
                    <polyline id="Fill-158" fill="#06E2F9" points="345.099945 85.0382796 320.50921 71.8501941 317.665107 84.1464793 342.086175 94.1949393"></polyline>
                    <path d="M313.84131,51.491406 C313.84131,57.0690844 307.946268,63.6170974 302.356014,63.6170974 C296.76576,63.6170974 292.23461,59.0957049 292.23461,53.5184628 L292.23461,41.3212179 L313.948882,41.3212179 L313.84131,51.491406 Z" id="Fill-159" fill="#06E2F9"></path>
                    <path d="M309.606378,68.823745 C309.606378,72.1466173 306.906579,74.8399065 303.576215,74.8399065 C300.246288,74.8399065 297.546489,72.146181 297.546489,68.823745 L297.546489,55.3590443 L309.606378,55.3590443 L309.606378,68.823745 Z" id="Fill-160" fill="#06E2F9"></path>
                    <path d="M314.810247,41.1780674 L314.810684,49.074252 C314.810684,49.074252 314.469602,57.7400725 309.624044,60.2649493 L310.502987,53.639711 C310.502987,53.639711 313.249139,54.0162392 313.249139,48.4298347 C313.249139,46.38838 312.433602,46.3347149 311.795165,46.3347149 C310.934151,46.3347149 310.287843,47.6235495 310.287843,47.6235495 L308.672949,47.6235495 L308.672949,44.5083568 L308.678196,44.4861054 L308.619163,44.5083568 C308.619163,44.5083568 308.726735,41.312012 305.415611,41.312012 L292.234523,41.312012 C292.234523,41.312012 289.722319,41.1780674 289.722319,33.4428781 L305.227578,33.4428781 C305.227578,33.4428781 314.810247,32.1536071 314.810247,41.1780674" id="Fill-161" fill="#231F20"></path>
                    <polygon id="Fill-162" fill="#06E2F9" points="329.200954 90.5269962 323.856454 87.7255042 327.024585 72.6094023 335.236802 78.2446725"></polygon>
                    <path d="M322.403792,133.144142 L322.388487,133.144142 L321.738681,118.44209 L322.060523,95.7587748 L330.485698,75.9249447 L330.443281,75.7752933 L330.431474,75.7731118 C326.468796,69.2185543 303.876892,63.7582409 303.876892,63.7582409 C303.871644,63.7172286 303.869021,63.6753437 303.863773,63.6343313 C303.860275,63.6103347 303.867272,63.5911375 303.867272,63.5693224 L303.744394,63.523947 L303.498203,63.616443 L303.446166,63.5968094 C303.44704,63.5880834 303.447478,63.578921 303.447915,63.5693224 L303.324601,63.523947 L303.288306,63.5374724 L303.252011,63.523947 L303.129134,63.5693224 C303.129134,63.578921 303.129571,63.5880834 303.130883,63.5968094 L303.078409,63.616443 L302.832217,63.523947 L302.70934,63.5693224 C302.710215,63.5911375 302.716774,63.6103347 302.713713,63.6343313 C302.707591,63.6753437 302.705405,63.7172286 302.69972,63.7582409 L283.408445,70.976413 L283.416754,71.0990138 C278.802957,72.4655101 277.111975,75.9437057 276.647578,77.1841108 L276.636209,77.1862923 L276.592918,77.3359438 C276.529511,77.5204993 276.498027,77.6339377 276.498027,77.6339377 L276.508522,77.6339377 L272.417718,91.986512 C273.001494,92.1802298 280.259554,94.4367812 284.516526,95.7587748 L284.838368,118.44209 L283.765707,133.144142 L283.749965,133.144142 L283.456984,146.182576 C290.066987,146.105787 296.677428,146.064338 303.288306,146.041214 C309.898747,146.064338 316.063594,146.105787 322.673597,146.182576 L322.403792,133.144142 Z" id="Fill-168" fill="#06E2F9"></path>
                    <path d="M296.839267,53.5016652 C296.440463,54.6722621 295.343314,55.5195596 294.037143,55.5195596 L291.851592,55.5195596 C291.851592,53.879066 293.182688,52.549219 294.824257,52.549219 L296.669163,52.549219 L297.009808,52.549219 L298.854715,52.549219 C300.496284,52.549219 301.826942,53.879066 301.826942,55.5195596 L299.641391,55.5195596 C298.33522,55.5195596 297.238071,54.6722621 296.839267,53.5016652" id="Fill-169" fill="#231F20"></path>
                    <g id="Group-4" stroke-width="1" fill="none" transform="translate(362.115661, 45.629756) rotate(-330.000000) translate(-362.115661, -45.629756) translate(336.615661, 8.629756)">
                        <path d="M2.09745326,11.0310756 L9.81444802,45.2837236 L48.881734,36.3654835 L41.1630987,2.11283551 L2.09745326,11.0310756 Z M9.02207802,47.3927222 C8.86786937,47.3811616 8.71694175,47.3316158 8.58405982,47.247388 C8.37079254,47.1119628 8.2182244,46.8956129 8.1624468,46.6462325 L0.0238390226,10.5191026 C-0.0926377265,10.0005234 0.228903722,9.48524731 0.744026246,9.3696405 L41.6732997,0.023655198 C41.9193773,-0.0324966839 42.1802196,0.0120945165 42.3918464,0.14917117 C42.6067542,0.284596297 42.7593223,0.500946195 42.8150999,0.748675086 L50.9537077,36.8774566 C51.071825,37.3943842 50.748643,37.9096603 50.2335205,38.0269186 L9.30588756,47.3712524 C9.21237806,47.3943738 9.11558752,47.3993283 9.02207802,47.3927222 Z" id="Fill-240" fill="#231F20"></path>
                        <path d="M37.1841194,73.9806525 C36.7688986,73.9494875 36.4055805,73.6575212 36.3084724,73.2392548 L28.9885325,41.626517 C28.8713331,41.1114753 29.1994914,40.5997141 29.7252144,40.4832556 C30.2509375,40.3667971 30.7716377,40.6899284 30.8905114,41.2033299 L38.208777,72.8177079 C38.329325,73.3311094 37.9978181,73.8428706 37.4737693,73.9593291 C37.3766612,73.9806525 37.2795532,73.9872135 37.1841194,73.9806525" id="Fill-280" fill="#231F20"></path>
                        <rect id="Rectangle" fill="#F5CB07" transform="translate(26.647619, 24.564697) rotate(-13.000000) translate(-26.647619, -24.564697) " x="11.0066252" y="13.871829" width="31.2819873" height="21.3857363"></rect>
                        <path d="M18.7216506,22.5272722 C18.7216506,22.9593219 18.4896772,23.191964 18.0588696,23.191964 L17.4623667,23.191964 C17.0315591,23.191964 16.7995858,22.9593219 16.7995858,22.5272722 L16.7995858,12.2245493 C16.7995858,11.7924996 17.0315591,11.5598575 17.4623667,11.5598575 L18.0588696,11.5598575 C18.4896772,11.5598575 18.7216506,11.7924996 18.7216506,12.2245493 L18.7216506,22.5272722 Z M21.5053307,11.5598575 C21.9361383,11.5598575 22.1681116,11.7924996 22.1681116,12.2245493 L22.1681116,13.221587 C22.1681116,14.0358344 21.8532907,14.8168473 21.4556221,15.4316872 C21.2236488,15.7640331 20.9916754,15.8637369 20.7431326,15.7307985 C20.5111592,15.6144775 20.5277287,15.3486008 20.726563,14.9497857 C20.9419668,14.5509706 21.1076621,14.1023036 21.1573707,13.7201058 L20.9419668,13.7201058 C20.5111592,13.7201058 20.2791859,13.4874637 20.2791859,13.055414 L20.2791859,12.2245493 C20.2791859,11.7924996 20.5111592,11.5598575 20.9419668,11.5598575 L21.5053307,11.5598575 Z M30.0054966,16.0797617 L28.4479614,20.9486292 C28.3319747,21.330827 28.1000013,21.4969999 27.7354718,21.4969999 C27.3709423,21.4969999 27.1223994,21.330827 27.0064127,20.9486292 L25.4488775,16.0797617 L25.4488775,22.5272722 C25.4488775,22.9593219 25.2169041,23.191964 24.7860965,23.191964 L24.3221498,23.191964 C23.8913422,23.191964 23.6593688,22.9593219 23.6593688,22.5272722 L23.6593688,12.2245493 C23.6593688,11.7924996 23.8913422,11.5598575 24.3221498,11.5598575 L24.9186527,11.5598575 C25.2997517,11.5598575 25.5482946,11.7260304 25.6642813,12.1082282 L27.7189023,18.3230966 L29.7900928,12.1082282 C29.9060795,11.7426477 30.1546224,11.5598575 30.5357214,11.5598575 L31.1985024,11.5598575 C31.62931,11.5598575 31.8612834,11.7924996 31.8612834,12.2245493 L31.8612834,22.5272722 C31.8612834,22.9593219 31.62931,23.191964 31.1985024,23.191964 L30.6682776,23.191964 C30.23747,23.191964 30.0054966,22.9593219 30.0054966,22.5272722 L30.0054966,16.0797617 Z M26.4679032,29.7391783 C26.8987108,29.7391783 27.1306842,29.9718205 27.1306842,30.4038701 L27.1306842,30.5700431 C27.1306842,31.0020927 26.8987108,31.2347349 26.4679032,31.2347349 L25.1589108,31.2347349 L24.6618251,33.4282178 L25.8051222,33.4282178 C26.2359299,33.4282178 26.4679032,33.66086 26.4679032,34.0929096 L26.4679032,34.2590826 C26.4679032,34.6911323 26.2359299,34.9237744 25.8051222,34.9237744 L24.313865,34.9237744 L23.7173622,37.5659243 C23.6345145,37.9481221 23.3859717,38.1475296 22.9883031,38.1475296 L22.6900517,38.1475296 C22.226105,38.1475296 22.0107012,37.8650356 22.1101183,37.4163687 L22.6734821,34.9237744 L20.8342649,34.9237744 L20.2377621,37.5659243 C20.1549144,37.9481221 19.9063716,38.1475296 19.508703,38.1475296 L19.2104516,38.1475296 C18.7465049,38.1475296 18.5311011,37.8650356 18.6305182,37.4163687 L19.193882,34.9237744 L18.2162801,34.9237744 C17.7854725,34.9237744 17.5534991,34.6911323 17.5534991,34.2590826 L17.5534991,34.0929096 C17.5534991,33.66086 17.7854725,33.4282178 18.2162801,33.4282178 L19.5252725,33.4282178 L20.0223582,31.2347349 L18.8790611,31.2347349 C18.4482534,31.2347349 18.2162801,31.0020927 18.2162801,30.5700431 L18.2162801,30.4038701 C18.2162801,29.9718205 18.4482534,29.7391783 18.8790611,29.7391783 L20.3703183,29.7391783 L20.9668211,27.0970284 C21.0496688,26.7148306 21.2982116,26.5154231 21.6958802,26.5154231 L21.9941316,26.5154231 C22.4580783,26.5154231 22.6734821,26.7979171 22.574065,27.2465841 L22.0107012,29.7391783 L23.8499184,29.7391783 L24.4464212,27.0970284 C24.5292689,26.7148306 24.7778117,26.5154231 25.1754803,26.5154231 L25.4737317,26.5154231 C25.9376784,26.5154231 26.1530822,26.7979171 26.0536651,27.2465841 L25.4903013,29.7391783 L26.4679032,29.7391783 Z M23.0048726,33.4282178 L23.5019583,31.2347349 L21.6793107,31.2347349 L21.1822249,33.4282178 L23.0048726,33.4282178 Z M30.1463376,37.4828378 C30.1463376,37.9148875 29.9143643,38.1475296 29.4835566,38.1475296 L28.9533318,38.1475296 C28.5225242,38.1475296 28.2905509,37.9148875 28.2905509,37.4828378 L28.2905509,28.0774488 C28.2905509,27.9112759 28.3402594,27.7949548 28.4562461,27.6620164 C28.6385109,27.4459916 28.8207756,27.1967322 28.9533318,26.9142382 C29.085888,26.6317441 29.2515833,26.4821885 29.5498347,26.4821885 L29.6161128,26.4821885 C29.9475033,26.4821885 30.1463376,26.681596 30.1463376,27.0139419 L30.1463376,37.4828378 Z" id="I’m-#1" fill="#272A2D" transform="translate(24.330435, 24.853694) rotate(-12.000000) translate(-24.330435, -24.853694) "></path>
                    </g>
                </g>
            </g>
        </g>
    </g>
</svg>