<?xml version="1.0" encoding="UTF-8"?>
<svg width="464px" height="649px" viewBox="0 0 464 649" version="1.1" xmlns="http://www.w3.org/2000/svg" xmlns:xlink="http://www.w3.org/1999/xlink">
    <!-- Generator: Sketch 50.2 (55047) - http://www.bohemiancoding.com/sketch -->
    <title>Fill 1</title>
    <desc>Created with Sketch.</desc>
    <defs></defs>
    <g id="v2-login-onboarding" stroke="none" stroke-width="1" fill="none" fill-rule="evenodd" opacity="0.26328125">
        <g id="onboarding-register" transform="translate(0.000000, -460.000000)" fill="#FBFDFF">
            <g id="narrative-logo-mark" transform="translate(0.000000, 440.000000)">
                <g transform="translate(-185.000000, 20.000000)" id="Fill-1">
                    <path d="M556.415385,510.031516 C556.415385,535.651687 535.585265,556.415385 510.024627,556.415385 C497.198784,556.415385 485.623856,551.218523 477.227679,542.839425 C468.855254,534.452411 463.637827,522.804 463.637827,510.031516 L463.637827,417.267737 C463.637827,307.429122 386.829237,215.104681 284.107692,191.289361 C294.126893,158.335006 316.093128,130.50231 344.876062,112.924807 C365.96349,100.005876 390.756161,92.5846154 417.247069,92.5846154 C493.996281,92.5846154 556.415385,154.994449 556.415385,231.732263 L556.415385,510.031516 Z M417.216546,0 C341.585193,0 274.225464,36.4964099 231.86257,92.7125904 L231.78741,92.7125904 C210.809688,120.743542 195.975357,153.604552 189.369135,189.353312 C81.7510088,209.30252 0,303.87039 0,417.216546 L0,509.929137 C0,524.023729 2.08471797,537.604064 5.9574673,550.369501 C23.3789055,607.396624 76.4897661,649 139.070863,649 C215.770288,649 278.141727,586.628561 278.141727,509.929137 L278.141727,417.216546 C278.141727,391.626336 257.33015,370.858273 231.78741,370.858273 C206.220935,370.858273 185.429137,391.626336 185.429137,417.216546 L185.429137,509.929137 C185.429137,535.53517 164.613603,556.28741 139.070863,556.28741 C126.254002,556.28741 114.687179,551.093416 106.296882,542.718942 C97.930319,534.336556 92.7125904,522.694573 92.7125904,509.929137 L92.7125904,417.216546 C92.7125904,356.763681 131.447995,305.21537 185.429137,286.085017 C199.915355,280.954316 215.56063,278.141727 231.78741,278.141727 C248.057704,278.141727 263.702978,280.954316 278.141727,286.085017 C332.150559,305.21537 370.858273,356.763681 370.858273,417.216546 L370.858273,509.929137 C370.858273,524.023729 372.942991,537.604064 376.81574,550.369501 C394.237179,607.396624 447.348039,649 509.929137,649 C586.628561,649 649,586.628561 649,509.929137 L649,231.783454 C649,103.97877 545.02123,0 417.216546,0 Z"></path>
                </g>
            </g>
        </g>
    </g>
</svg>