<?xml version="1.0" encoding="UTF-8"?>
<svg width="226px" height="63px" viewBox="0 0 226 63" version="1.1" xmlns="http://www.w3.org/2000/svg" xmlns:xlink="http://www.w3.org/1999/xlink">
    <!-- Generator: Sketch 50.2 (55047) - http://www.bohemiancoding.com/sketch -->
    <title>website-nav-blue</title>
    <desc>Created with Sketch.</desc>
    <defs>
        <polygon id="path-1" points="0 0.221110529 38.6735987 0.221110529 38.6735987 38.8946386 0 38.8946386"></polygon>
    </defs>
    <g id="website-nav-blue" stroke="none" stroke-width="1" fill="none" fill-rule="evenodd">
        <g id="Group-7" transform="translate(10.000000, 13.000000)">
            <g id="logo-narrative-alpha">
                <g id="Group">
                    <g id="Group-3" transform="translate(0.000000, 0.014615)">
                        <mask id="mask-2" fill="white">
                            <use xlink:href="#path-1"></use>
                        </mask>
                        <g id="Clip-2"></g>
                        <path d="M33.1488999,30.6074725 C33.1488999,32.1333237 31.9085123,33.3699398 30.3864327,33.3699398 C29.622682,33.3699398 28.9334206,33.0604322 28.4334468,32.5614013 C27.9348874,32.0618989 27.6242012,31.3681587 27.6242012,30.6074725 L27.6242012,25.0827737 C27.6242012,18.5411551 23.0504191,13.0426218 16.9335778,11.6242614 C17.5301991,9.66161079 18.8382399,8.003989 20.5522001,6.95713201 C21.8079099,6.18772394 23.2842588,5.74573861 24.8617339,5.74573861 C29.4319801,5.74573861 33.1488999,9.46265846 33.1488999,14.0329047 L33.1488999,30.6074725 Z M24.8617339,0.221039811 C20.3548979,0.221039811 16.3409639,2.39584337 13.8165794,5.74573861 L13.8121006,5.74573861 C12.5620482,7.41608958 11.6780775,9.37426139 11.2844159,11.5045128 C4.8715034,12.6932766 0,18.3285306 0,25.0827737 L0,30.6074725 C0,31.4473625 0.124227344,32.2566082 0.355002619,33.0172944 C1.39313777,36.4155134 4.55798848,38.8946386 8.28716606,38.8946386 C12.857648,38.8946386 16.5743321,35.1779544 16.5743321,30.6074725 L16.5743321,25.0827737 C16.5743321,23.5578654 15.3341802,22.3203064 13.8121006,22.3203064 C12.2886066,22.3203064 11.0496333,23.5578654 11.0496333,25.0827737 L11.0496333,30.6074725 C11.0496333,32.1333237 9.80924568,33.3699398 8.28716606,33.3699398 C7.5234154,33.3699398 6.83415401,33.0604322 6.3341802,32.5614013 C5.83562074,32.0618989 5.5246988,31.3681587 5.5246988,30.6074725 L5.5246988,25.0827737 C5.5246988,21.4804164 7.832923,18.4086773 11.0496333,17.2687087 C11.9128601,16.9629728 12.8451545,16.7953719 13.8121006,16.7953719 C14.7816396,16.7953719 15.713934,16.9629728 16.5743321,17.2687087 C19.7926925,18.4086773 22.0992666,21.4804164 22.0992666,25.0827737 L22.0992666,30.6074725 C22.0992666,31.4473625 22.223494,32.2566082 22.4542693,33.0172944 C23.4924044,36.4155134 26.6572551,38.8946386 30.3864327,38.8946386 C34.9569146,38.8946386 38.6735987,35.1779544 38.6735987,30.6074725 L38.6735987,14.0329047 C38.6735987,6.41708486 32.4775537,0.221039811 24.8617339,0.221039811 Z" id="Fill-1" fill="#2BD0F4" mask="url(#mask-2)"></path>
                    </g>
                </g>
            </g>
            <path d="M61.156,28.654 C60.532,28.654 59.986,28.368 59.648,27.874 L51.042,15.862 L51.042,27.12 C51.042,27.952 50.366,28.654 49.534,28.654 C48.676,28.654 48,27.952 48,27.12 L48,13.002 C48,11.91 48.884,11 50.002,11 C50.652,11 51.25,11.312 51.614,11.832 L59.986,23.454 L59.986,12.534 C59.986,11.702 60.662,11 61.494,11 C62.352,11 63.028,11.702 63.028,12.534 L63.028,26.782 C63.028,27.796 62.196,28.654 61.156,28.654 Z M83.7000001,26.548 C83.7520001,26.704 83.8300001,26.912 83.8300001,27.094 C83.8300001,27.952 83.1280001,28.654 82.2700001,28.654 C81.6200001,28.654 81.0480001,28.238 80.8400001,27.666 L79.9300001,25.17 L71.6100001,25.17 L70.7000001,27.666 C70.4920001,28.238 69.9200001,28.654 69.2700001,28.654 C68.4120001,28.654 67.7100001,27.952 67.7100001,27.094 C67.7100001,26.912 67.7880001,26.704 67.8400001,26.548 L73.2740001,12.716 C73.6640001,11.728 74.6260001,11 75.7700001,11 C76.9140001,11 77.8760001,11.728 78.2660001,12.716 L83.7000001,26.548 Z M72.5720001,22.492 L78.9680001,22.492 L75.7700001,13.73 L72.5720001,22.492 Z M101.616,26.314 C101.772,26.548 101.902,26.782 101.902,27.276 C101.902,27.874 101.33,28.654 100.472,28.654 C99.9780002,28.654 99.4840002,28.394 99.1980002,28.004 L95.1160002,22.024 L91.5800002,22.024 L91.5800002,27.12 C91.5800002,27.952 90.9040002,28.654 90.0720002,28.654 C89.2140002,28.654 88.5380002,27.952 88.5380002,27.12 L88.5380002,12.768 C88.5380002,11.728 89.1100002,11.156 90.1500002,11.156 L96.1560002,11.156 C99.5880002,11.156 101.824,13.392 101.824,16.59 C101.824,19.424 100.134,21.062 98.2360002,21.582 L101.616,26.314 Z M91.5800002,13.834 L91.5800002,19.346 L95.7400002,19.346 C97.4560002,19.346 98.7040002,18.254 98.7040002,16.59 C98.7040002,14.926 97.4560002,13.834 95.7400002,13.834 L91.5800002,13.834 Z M120.104,26.314 C120.26,26.548 120.39,26.782 120.39,27.276 C120.39,27.874 119.818,28.654 118.96,28.654 C118.466,28.654 117.972,28.394 117.686,28.004 L113.604,22.024 L110.068,22.024 L110.068,27.12 C110.068,27.952 109.392,28.654 108.56,28.654 C107.702,28.654 107.026,27.952 107.026,27.12 L107.026,12.768 C107.026,11.728 107.598,11.156 108.638,11.156 L114.644,11.156 C118.076,11.156 120.312,13.392 120.312,16.59 C120.312,19.424 118.622,21.062 116.724,21.582 L120.104,26.314 Z M110.068,13.834 L110.068,19.346 L114.228,19.346 C115.944,19.346 117.192,18.254 117.192,16.59 C117.192,14.926 115.944,13.834 114.228,13.834 L110.068,13.834 Z M140.334,26.548 C140.386,26.704 140.464,26.912 140.464,27.094 C140.464,27.952 139.762,28.654 138.904,28.654 C138.254,28.654 137.682,28.238 137.474,27.666 L136.564,25.17 L128.244,25.17 L127.334,27.666 C127.126,28.238 126.554,28.654 125.904,28.654 C125.046,28.654 124.344,27.952 124.344,27.094 C124.344,26.912 124.422,26.704 124.474,26.548 L129.908,12.716 C130.298,11.728 131.26,11 132.404,11 C133.548,11 134.51,11.728 134.9,12.716 L140.334,26.548 Z M129.206,22.492 L135.602,22.492 L132.404,13.73 L129.206,22.492 Z M148.63,28.654 C147.772,28.654 147.096,27.952 147.096,27.12 L147.096,13.834 L143.04,13.834 C142.312,13.834 141.688,13.236 141.688,12.508 C141.688,11.754 142.312,11.156 143.04,11.156 L154.194,11.156 C154.922,11.156 155.546,11.754 155.546,12.508 C155.546,13.236 154.922,13.834 154.194,13.834 L150.138,13.834 L150.138,27.12 C150.138,27.952 149.462,28.654 148.63,28.654 Z M161.658001,28.654 C160.800001,28.654 160.124001,27.952 160.124001,27.12 L160.124001,12.534 C160.124001,11.702 160.800001,11 161.658001,11 C162.490001,11 163.166001,11.702 163.166001,12.534 L163.166001,27.12 C163.166001,27.952 162.490001,28.654 161.658001,28.654 Z M175.908001,28.654 C174.764001,28.654 173.776001,27.926 173.386001,26.938 L168.004001,13.184 C167.926001,13.002 167.874001,12.82 167.874001,12.612 C167.874001,11.728 168.602001,11 169.486001,11 C170.162001,11 170.760001,11.416 170.994001,12.04 L175.908001,25.196 L180.822001,12.04 C181.056001,11.416 181.654001,11 182.330001,11 C183.214001,11 183.942001,11.728 183.942001,12.612 C183.942001,12.82 183.890001,13.002 183.812001,13.184 L178.430001,26.938 C178.040001,27.926 177.052001,28.654 175.908001,28.654 Z M190.288001,28.498 C189.248001,28.498 188.676001,27.926 188.676001,26.886 L188.676001,12.768 C188.676001,11.728 189.248001,11.156 190.288001,11.156 L199.362001,11.156 C200.090001,11.156 200.714001,11.754 200.714001,12.508 C200.714001,13.236 200.090001,13.834 199.362001,13.834 L191.718001,13.834 L191.718001,18.332 L199.180001,18.332 C199.908001,18.332 200.532001,18.93 200.532001,19.658 C200.532001,20.412 199.908001,21.01 199.180001,21.01 L191.718001,21.01 L191.718001,25.82 L199.362001,25.82 C200.090001,25.82 200.714001,26.418 200.714001,27.146 C200.714001,27.9 200.090001,28.498 199.362001,28.498 L190.288001,28.498 Z" id="NARRATIVE" fill="#2BD0F4"></path>
        </g>
    </g>
</svg>