<?xml version="1.0" encoding="UTF-8"?>
<svg width="32px" height="32px" viewBox="0 0 32 32" version="1.1" xmlns="http://www.w3.org/2000/svg" xmlns:xlink="http://www.w3.org/1999/xlink">
    <!-- Generator: Sketch 50.2 (55047) - http://www.bohemiancoding.com/sketch -->
    <title>Fill 1 Copy</title>
    <desc>Created with Sketch.</desc>
    <defs></defs>
    <g id="2.-Logos" stroke="none" stroke-width="1" fill="none" fill-rule="evenodd">
        <path d="M26.6817253,25.1428571 C26.6817253,26.404864 25.6827615,27.4285714 24.4582482,27.4285714 C23.8435012,27.4285714 23.2880945,27.172864 22.8859475,26.759168 C22.4843697,26.3466423 22.2347711,25.7723246 22.2347711,25.1428571 L22.2347711,20.5714286 C22.2347711,15.1588571 18.5529776,10.6092251 13.6293099,9.43528229 C14.1095809,7.81165714 15.1630466,6.44022857 16.5426697,5.573632 C17.5533023,4.93714286 18.7411016,4.57142857 20.011294,4.57142857 C23.6900991,4.57142857 26.6817253,7.64708571 26.6817253,11.4285714 L26.6817253,25.1428571 Z M20.011294,0 C16.3831485,0 13.1527387,1.79931429 11.1209431,4.57142857 L11.1173855,4.57142857 C10.1107374,5.95382857 9.39922474,7.57379657 9.0828862,9.33668571 C3.92114635,10.3203109 0,14.983168 0,20.5714286 L0,25.1428571 C0,25.8380069 0.100038682,26.5071177 0.28517428,27.1362926 C1.12091707,29.9486354 3.66813244,32 6.67043133,32 C10.3492365,32 13.3408627,28.9243429 13.3408627,25.1428571 L13.3408627,20.5714286 C13.3408627,19.309568 12.3418989,18.2857143 11.1173855,18.2857143 C9.89059539,18.2857143 8.89390844,19.309568 8.89390844,20.5714286 L8.89390844,25.1428571 C8.89390844,26.404864 7.89494464,27.4285714 6.67043133,27.4285714 C6.05568438,27.4285714 5.50027758,27.172864 5.09813062,26.759168 C4.69655286,26.3466423 4.44695422,25.7723246 4.44695422,25.1428571 L4.44695422,20.5714286 C4.44695422,17.5907109 6.30442921,15.0492891 8.89390844,14.1057463 C9.5882025,13.8531109 10.3385638,13.7142857 11.1173855,13.7142857 C11.8972034,13.7142857 12.647707,13.8531109 13.3408627,14.1057463 C15.9311957,15.0492891 17.7878169,17.5907109 17.7878169,20.5714286 L17.7878169,25.1428571 C17.7878169,25.8380069 17.8878556,26.5071177 18.0729912,27.1362926 C18.9087339,29.9486354 21.4559493,32 24.4582482,32 C28.1370533,32 31.1286795,28.9243429 31.1286795,25.1428571 L31.1286795,11.4285714 C31.1286795,5.127168 26.1414026,0 20.011294,0 Z" id="Fill-1-Copy" fill="#2BD0F4"></path>
    </g>
</svg>