<?xml version="1.0" encoding="UTF-8"?>
<svg width="183px" height="23px" viewBox="0 0 183 23" version="1.1" xmlns="http://www.w3.org/2000/svg" xmlns:xlink="http://www.w3.org/1999/xlink">
    <!-- Generator: Sketch 50.2 (55047) - http://www.bohemiancoding.com/sketch -->
    <title>Group 4</title>
    <desc>Created with Sketch.</desc>
    <defs>
        <polygon id="path-1" points="0 0.197475527 34.5101616 0.197475527 34.5101616 34.7371031 0 34.7371031"></polygon>
    </defs>
    <g id="v2-login-onboarding" stroke="none" stroke-width="1" fill="none" fill-rule="evenodd">
        <g id="onboarding-register" transform="translate(-165.000000, -44.000000)">
            <g id="Group-4" transform="translate(155.000000, 38.000000)">
                <g id="Group-5">
                    <g id="Group-7">
                        <g id="logo-narrative">
                            <g id="Group">
                                <g id="Group-3" transform="translate(0.000000, 0.013053)">
                                    <mask id="mask-2" fill="white">
                                        <use xlink:href="#path-1"></use>
                                    </mask>
                                    <g id="Clip-2"></g>
                                    <path d="M29.6842191,23.8466183 C29.6842191,24.7275484 28.9687098,25.4414924 28.0907084,25.4414924 C27.650144,25.4414924 27.2525482,25.2628023 26.9641417,24.9746933 C26.676551,24.6863122 26.4973338,24.2857904 26.4973338,23.8466183 L26.4973338,20.657006 C26.4973338,16.8802885 23.8589784,13.7057826 20.3305196,12.8869109 C20.6746766,11.7538004 21.4292112,10.7967943 22.4178976,10.1924051 C23.1422453,9.7481975 23.9938672,9.49302308 24.9038231,9.49302308 C27.5401389,9.49302308 29.6842191,11.6389379 29.6842191,14.2775094 L29.6842191,23.8466183 Z M24.9038231,6.30341087 C22.3040851,6.30341087 19.9886743,7.55900511 18.5325001,9.49302308 L18.5299165,9.49302308 C17.8088322,10.4573783 17.2989197,11.587903 17.0718387,12.8177757 C13.3725932,13.5040928 10.5624993,16.7575326 10.5624993,20.657006 L10.5624993,23.8466183 C10.5624993,24.3315177 10.634159,24.7987251 10.7672802,25.2378972 C11.3661214,27.1998143 13.1917443,28.6311046 15.3428952,28.6311046 C17.979347,28.6311046 20.1232912,26.4853259 20.1232912,23.8466183 L20.1232912,20.657006 C20.1232912,19.7766203 19.4079179,19.0621319 18.5299165,19.0621319 C17.6510993,19.0621319 16.9364059,19.7766203 16.9364059,20.657006 L16.9364059,23.8466183 C16.9364059,24.7275484 16.2208966,25.4414924 15.3428952,25.4414924 C14.9023308,25.4414924 14.504735,25.2628023 14.2163285,24.9746933 C13.9287378,24.6863122 13.7493846,24.2857904 13.7493846,23.8466183 L13.7493846,20.657006 C13.7493846,18.5772325 15.0808682,16.8038043 16.9364059,16.1456584 C17.4343525,15.9691457 17.9721402,15.8723836 18.5299165,15.8723836 C19.0891886,15.8723836 19.6269763,15.9691457 20.1232912,16.1456584 C21.9797807,16.8038043 23.3103125,18.5772325 23.3103125,20.657006 L23.3103125,23.8466183 C23.3103125,24.3315177 23.3819722,24.7987251 23.5150934,25.2378972 C24.1139346,27.1998143 25.9395574,28.6311046 28.0907084,28.6311046 C30.7271602,28.6311046 32.8711044,26.4853259 32.8711044,23.8466183 L32.8711044,14.2775094 C32.8711044,9.88061601 29.2969575,6.30341087 24.9038231,6.30341087 Z" id="Fill-1" fill="#FBFDFF" mask="url(#mask-2)"></path>
                                </g>
                            </g>
                        </g>
                        <path d="M54.0394776,27.272554 C53.4232732,27.272554 52.8840943,26.9898853 52.5503168,26.5016393 L44.0518301,14.6295534 L44.0518301,25.7564218 C44.0518301,26.5787308 43.3842753,27.272554 42.5626693,27.272554 C41.7153882,27.272554 41.0478333,26.5787308 41.0478333,25.7564218 L41.0478333,11.8028662 C41.0478333,10.7235857 41.9207897,9.82418525 43.0248227,9.82418525 C43.6667023,9.82418525 44.2572316,10.1325511 44.6166842,10.6464942 L52.8840943,22.1331228 L52.8840943,11.3403174 C52.8840943,10.5180085 53.5516491,9.82418525 54.3732551,9.82418525 C55.2205362,9.82418525 55.8880911,10.5180085 55.8880911,11.3403174 L55.8880911,25.4223588 C55.8880911,26.4245478 55.0664851,27.272554 54.0394776,27.272554 Z M76.3018393,25.1910844 C76.3531897,25.3452673 76.4302152,25.5508445 76.4302152,25.7307246 C76.4302152,26.5787308 75.7369852,27.272554 74.8897041,27.272554 C74.2478244,27.272554 73.6829703,26.8613995 73.4775688,26.2960621 L72.5789373,23.8291351 L64.3628777,23.8291351 L63.4642461,26.2960621 C63.2588446,26.8613995 62.6939905,27.272554 62.0521109,27.272554 C61.2048297,27.272554 60.5115997,26.5787308 60.5115997,25.7307246 C60.5115997,25.5508445 60.5886253,25.3452673 60.6399756,25.1910844 L66.0060896,11.5201975 C66.3912174,10.5437056 67.3411993,9.82418525 68.4709075,9.82418525 C69.6006157,9.82418525 70.5505976,10.5437056 70.9357254,11.5201975 L76.3018393,25.1910844 Z M65.3128596,21.1823281 L71.6289554,21.1823281 L68.4709075,12.5223866 L65.3128596,21.1823281 Z M93.9940178,24.95981 C94.1480689,25.1910844 94.2764449,25.4223588 94.2764449,25.9106047 C94.2764449,26.5016393 93.7115908,27.272554 92.8643096,27.272554 C92.3764811,27.272554 91.8886525,27.0155824 91.6062255,26.6301251 L87.5752212,20.7197793 L84.0833959,20.7197793 L84.0833959,25.7564218 C84.0833959,26.5787308 83.415841,27.272554 82.5942351,27.272554 C81.7469539,27.272554 81.0793991,26.5787308 81.0793991,25.7564218 L81.0793991,11.5715918 C81.0793991,10.5437056 81.6442532,9.97836818 82.6712606,9.97836818 L88.6022287,9.97836818 C91.9913533,9.97836818 94.1994193,12.1883236 94.1994193,15.3490737 C94.1994193,18.1500637 92.5305322,19.7689845 90.6562436,20.2829276 L93.9940178,24.95981 Z M84.0833959,12.6251752 L84.0833959,18.0729722 L88.1914257,18.0729722 C89.885988,18.0729722 91.1183969,16.9936917 91.1183969,15.3490737 C91.1183969,13.7044558 89.885988,12.6251752 88.1914257,12.6251752 L84.0833959,12.6251752 Z M112.25105,24.95981 C112.405102,25.1910844 112.533477,25.4223588 112.533477,25.9106047 C112.533477,26.5016393 111.968623,27.272554 111.121342,27.272554 C110.633514,27.272554 110.145685,27.0155824 109.863258,26.6301251 L105.832254,20.7197793 L102.340428,20.7197793 L102.340428,25.7564218 C102.340428,26.5787308 101.672874,27.272554 100.851268,27.272554 C100.003987,27.272554 99.3364317,26.5787308 99.3364317,25.7564218 L99.3364317,11.5715918 C99.3364317,10.5437056 99.9012858,9.97836818 100.928293,9.97836818 L106.859261,9.97836818 C110.248386,9.97836818 112.456452,12.1883236 112.456452,15.3490737 C112.456452,18.1500637 110.787565,19.7689845 108.913276,20.2829276 L112.25105,24.95981 Z M102.340428,12.6251752 L102.340428,18.0729722 L106.448458,18.0729722 C108.143021,18.0729722 109.37543,16.9936917 109.37543,15.3490737 C109.37543,13.7044558 108.143021,12.6251752 106.448458,12.6251752 L102.340428,12.6251752 Z M132.228321,25.1910844 C132.279671,25.3452673 132.356696,25.5508445 132.356696,25.7307246 C132.356696,26.5787308 131.663466,27.272554 130.816185,27.272554 C130.174306,27.272554 129.609452,26.8613995 129.40405,26.2960621 L128.505418,23.8291351 L120.289359,23.8291351 L119.390727,26.2960621 C119.185326,26.8613995 118.620472,27.272554 117.978592,27.272554 C117.131311,27.272554 116.438081,26.5787308 116.438081,25.7307246 C116.438081,25.5508445 116.515106,25.3452673 116.566457,25.1910844 L121.932571,11.5201975 C122.317699,10.5437056 123.26768,9.82418525 124.397389,9.82418525 C125.527097,9.82418525 126.477079,10.5437056 126.862207,11.5201975 L132.228321,25.1910844 Z M121.239341,21.1823281 L127.555437,21.1823281 L124.397389,12.5223866 L121.239341,21.1823281 Z M140.42068,27.272554 C139.573399,27.272554 138.905844,26.5787308 138.905844,25.7564218 L138.905844,12.6251752 L134.900515,12.6251752 C134.18161,12.6251752 133.565405,12.0341406 133.565405,11.3146203 C133.565405,10.5694028 134.18161,9.97836818 134.900515,9.97836818 L145.91517,9.97836818 C146.634075,9.97836818 147.25028,10.5694028 147.25028,11.3146203 C147.25028,12.0341406 146.634075,12.6251752 145.91517,12.6251752 L141.909841,12.6251752 L141.909841,25.7564218 C141.909841,26.5787308 141.242286,27.272554 140.42068,27.272554 Z M153.285924,27.272554 C152.438642,27.272554 151.771088,26.5787308 151.771088,25.7564218 L151.771088,11.3403174 C151.771088,10.5180085 152.438642,9.82418525 153.285924,9.82418525 C154.107529,9.82418525 154.775084,10.5180085 154.775084,11.3403174 L154.775084,25.7564218 C154.775084,26.5787308 154.107529,27.272554 153.285924,27.272554 Z M167.357901,27.272554 C166.228193,27.272554 165.252535,26.5530336 164.867408,25.5765417 L159.552644,11.9827463 C159.475619,11.8028662 159.424268,11.6229861 159.424268,11.4174089 C159.424268,10.5437056 160.143173,9.82418525 161.01613,9.82418525 C161.683685,9.82418525 162.274214,10.2353397 162.505291,10.8520715 L167.357901,23.8548323 L172.210511,10.8520715 C172.441588,10.2353397 173.032117,9.82418525 173.699672,9.82418525 C174.572628,9.82418525 175.291533,10.5437056 175.291533,11.4174089 C175.291533,11.6229861 175.240183,11.8028662 175.163157,11.9827463 L169.848394,25.5765417 C169.463266,26.5530336 168.487609,27.272554 167.357901,27.272554 Z M181.558254,27.118371 C180.531246,27.118371 179.966392,26.5530336 179.966392,25.5251474 L179.966392,11.5715918 C179.966392,10.5437056 180.531246,9.97836818 181.558254,9.97836818 L190.518894,9.97836818 C191.237799,9.97836818 191.854004,10.5694028 191.854004,11.3146203 C191.854004,12.0341406 191.237799,12.6251752 190.518894,12.6251752 L182.970389,12.6251752 L182.970389,17.0707832 L190.339168,17.0707832 C191.058073,17.0707832 191.674277,17.6618177 191.674277,18.3813381 C191.674277,19.1265556 191.058073,19.7175902 190.339168,19.7175902 L182.970389,19.7175902 L182.970389,24.471564 L190.518894,24.471564 C191.237799,24.471564 191.854004,25.0625986 191.854004,25.7821189 C191.854004,26.5273365 191.237799,27.118371 190.518894,27.118371 L181.558254,27.118371 Z" id="NARRATIVE" fill="#FBFDFF"></path>
                    </g>
                </g>
            </g>
        </g>
    </g>
</svg>
