<?xml version="1.0" encoding="UTF-8"?>
<svg width="82px" height="82px" viewBox="0 0 82 82" version="1.1" xmlns="http://www.w3.org/2000/svg" xmlns:xlink="http://www.w3.org/1999/xlink">
    <!-- Generator: Sketch 52.5 (67469) - http://www.bohemiancoding.com/sketch -->
    <title>image-placeholder</title>
    <desc>Created with Sketch.</desc>
    <defs>
        <rect id="path-1" x="0" y="0" width="82" height="82"></rect>
    </defs>
    <g id="v2-Member-Page" stroke="none" stroke-width="1" fill="none" fill-rule="evenodd">
        <g id="Profile-Member-v2-content-pending" transform="translate(-476.000000, -305.000000)">
            <g id="image-placeholder" transform="translate(476.000000, 305.000000)">
                <g id="Group-20">
                    <g id="Logos/icon-logo-mobile-+-Rectangle-Mask">
                        <g id="Group-11">
                            <mask id="mask-2" fill="white">
                                <use xlink:href="#path-1"></use>
                            </mask>
                            <use id="Mask" fill="#F9FAFB" fill-rule="nonzero" xlink:href="#path-1"></use>
                        </g>
                        <g id="Group-5" transform="translate(43.000000, 45.000000)">
                            <g id="Group-15"></g>
                        </g>
                    </g>
                    <path d="M67.0000914,67.5000305 C67.0000914,68.8809414 65.877528,70.0000914 64.5000305,70.0000914 C63.8088284,70.0000914 63.1850398,69.7199839 62.7325584,69.2683559 C62.281357,68.8163012 62.0001829,68.1884592 62.0001829,67.5000305 L62.0001829,62.5001219 C62.0001829,56.5798905 57.8608636,51.603662 52.32506,50.3200315 C52.8650084,48.5438127 54.0487986,47.0436481 55.59995,46.0962319 C56.7363801,45.3999098 58.0724909,44.9999086 59.5001219,44.9999086 C63.6362412,44.9999086 67.0000914,48.3637588 67.0000914,52.4998781 L67.0000914,67.5000305 Z M59.5001219,40 C55.4213895,40 51.7887384,41.9682193 49.5041448,44.9999086 L49.5000914,44.9999086 C48.3687813,46.5115932 47.5687789,48.2837586 47.2125111,50.2116578 C41.4087601,51.2875011 37,56.3874633 37,62.5001219 L37,67.5000305 C37,68.2601395 37.112427,68.992515 37.321281,69.6809438 C38.2608038,72.7563665 41.1250259,75 44.4999695,75 C48.6363021,75 51.999939,71.6363631 51.999939,67.5000305 L51.999939,62.5001219 C51.999939,61.1200644 50.877589,60.000061 49.5000914,60.000061 C48.1213139,60.000061 47.0000305,61.1200644 47.0000305,62.5001219 L47.0000305,67.5000305 C47.0000305,68.8809414 45.8774671,70.0000914 44.4999695,70.0000914 C43.8087674,70.0000914 43.1849788,69.7199839 42.7324975,69.2683559 C42.2812961,68.8163012 41.9999086,68.1884592 41.9999086,67.5000305 L41.9999086,62.5001219 C41.9999086,59.239952 44.0888749,56.4599968 47.0000305,55.4283137 C47.7812595,55.1516195 48.6249954,54.999939 49.5000914,54.999939 C50.3775341,54.999939 51.22127,55.1516195 51.999939,55.4283137 C54.9125879,56.4599968 57.000061,59.239952 57.000061,62.5001219 L57.000061,67.5000305 C57.000061,68.2601395 57.112488,68.992515 57.3213419,69.6809438 C58.2608648,72.7563665 61.1250869,75 64.5000305,75 C68.6363631,75 72,71.6363631 72,67.5000305 L72,52.4998781 C72,45.6074838 66.3925162,40 59.5001219,40 Z" id="Fill-1" fill="#E2E6EC"></path>
                </g>
                <g id="Group-5" transform="translate(37.000000, 40.000000)">
                    <g id="Group-15"></g>
                </g>
            </g>
        </g>
    </g>
</svg>