<?xml version="1.0" encoding="UTF-8"?>
<svg width="417px" height="223px" viewBox="0 0 417 223" version="1.1" xmlns="http://www.w3.org/2000/svg" xmlns:xlink="http://www.w3.org/1999/xlink">
    <!-- Generator: Sketch 52.6 (67491) - http://www.bohemiancoding.com/sketch -->
    <title>Graphics/Why-Guy</title>
    <desc>Created with Sketch.</desc>
    <defs>
        <polygon id="path-1" points="0.191580974 0.130629165 145.703406 0.130629165 145.703406 123.089396 0.191580974 123.089396"></polygon>
        <path d="M0.00789144917,111.584314 C0.00789144917,173.089501 49.9410361,222.949306 111.53669,222.949306 C173.132871,222.949306 223.065752,173.089501 223.065752,111.584314 C223.065752,50.0788657 173.132871,0.219060071 111.53669,0.219060071 C49.9410361,0.219060071 0.00789144917,50.0788657 0.00789144917,111.584314" id="path-3"></path>
        <path d="M0.00789144917,111.584314 C0.00789144917,173.089501 49.9410361,222.949306 111.53669,222.949306 C173.132871,222.949306 223.065752,173.089501 223.065752,111.584314 C223.065752,50.0788657 173.132871,0.219060071 111.53669,0.219060071 C49.9410361,0.219060071 0.00789144917,50.0788657 0.00789144917,111.584314" id="path-5"></path>
        <path d="M0.00789144917,111.584314 C0.00789144917,173.089501 49.9410361,222.949306 111.53669,222.949306 C173.132871,222.949306 223.065752,173.089501 223.065752,111.584314 C223.065752,50.0788657 173.132871,0.219060071 111.53669,0.219060071 C49.9410361,0.219060071 0.00789144917,50.0788657 0.00789144917,111.584314 Z" id="path-7"></path>
        <path d="M0.00789144917,111.584314 C0.00789144917,173.089501 49.9410361,222.949306 111.53669,222.949306 C173.132871,222.949306 223.065752,173.089501 223.065752,111.584314 C223.065752,50.0788657 173.132871,0.219060071 111.53669,0.219060071 C49.9410361,0.219060071 0.00789144917,50.0788657 0.00789144917,111.584314 Z" id="path-9"></path>
        <path d="M0.00789144917,111.584314 C0.00789144917,173.089501 49.9410361,222.949306 111.53669,222.949306 C173.132871,222.949306 223.065752,173.089501 223.065752,111.584314 C223.065752,50.0788657 173.132871,0.219060071 111.53669,0.219060071 C49.9410361,0.219060071 0.00789144917,50.0788657 0.00789144917,111.584314" id="path-11"></path>
        <path d="M0.00789144917,111.584314 C0.00789144917,173.089501 49.9410361,222.949306 111.53669,222.949306 C173.132871,222.949306 223.065752,173.089501 223.065752,111.584314 C223.065752,50.0788657 173.132871,0.219060071 111.53669,0.219060071 C49.9410361,0.219060071 0.00789144917,50.0788657 0.00789144917,111.584314" id="path-13"></path>
        <path d="M0.00789144917,111.584314 C0.00789144917,173.089501 49.9410361,222.949306 111.53669,222.949306 C173.132871,222.949306 223.065752,173.089501 223.065752,111.584314 C223.065752,50.0788657 173.132871,0.219060071 111.53669,0.219060071 C49.9410361,0.219060071 0.00789144917,50.0788657 0.00789144917,111.584314" id="path-15"></path>
        <path d="M0.00789144917,111.584314 C0.00789144917,173.089501 49.9410361,222.949306 111.53669,222.949306 C173.132871,222.949306 223.065752,173.089501 223.065752,111.584314 C223.065752,50.0788657 173.132871,0.219060071 111.53669,0.219060071 C49.9410361,0.219060071 0.00789144917,50.0788657 0.00789144917,111.584314 Z" id="path-17"></path>
        <path d="M0.00789144917,111.584314 C0.00789144917,173.089501 49.9410361,222.949306 111.53669,222.949306 C173.132871,222.949306 223.065752,173.089501 223.065752,111.584314 C223.065752,50.0788657 173.132871,0.219060071 111.53669,0.219060071 C49.9410361,0.219060071 0.00789144917,50.0788657 0.00789144917,111.584314 Z" id="path-19"></path>
        <path d="M0.00789144917,111.584314 C0.00789144917,173.089501 49.9410361,222.949306 111.53669,222.949306 C173.132871,222.949306 223.065752,173.089501 223.065752,111.584314 C223.065752,50.0788657 173.132871,0.219060071 111.53669,0.219060071 C49.9410361,0.219060071 0.00789144917,50.0788657 0.00789144917,111.584314" id="path-21"></path>
        <path d="M0.00789144917,111.584314 C0.00789144917,173.089501 49.9410361,222.949306 111.53669,222.949306 C173.132871,222.949306 223.065752,173.089501 223.065752,111.584314 C223.065752,50.0788657 173.132871,0.219060071 111.53669,0.219060071 C49.9410361,0.219060071 0.00789144917,50.0788657 0.00789144917,111.584314" id="path-23"></path>
        <path d="M0.00789144917,111.584314 C0.00789144917,173.089501 49.9410361,222.949306 111.53669,222.949306 C173.132871,222.949306 223.065752,173.089501 223.065752,111.584314 C223.065752,50.0788657 173.132871,0.219060071 111.53669,0.219060071 C49.9410361,0.219060071 0.00789144917,50.0788657 0.00789144917,111.584314" id="path-25"></path>
        <path d="M0.00789144917,111.584314 C0.00789144917,173.089501 49.9410361,222.949306 111.53669,222.949306 C173.132871,222.949306 223.065752,173.089501 223.065752,111.584314 C223.065752,50.0788657 173.132871,0.219060071 111.53669,0.219060071 C49.9410361,0.219060071 0.00789144917,50.0788657 0.00789144917,111.584314 Z" id="path-27"></path>
        <path d="M0.00789144917,111.584314 C0.00789144917,173.089501 49.9410361,222.949306 111.53669,222.949306 C173.132871,222.949306 223.065752,173.089501 223.065752,111.584314 C223.065752,50.0788657 173.132871,0.219060071 111.53669,0.219060071 C49.9410361,0.219060071 0.00789144917,50.0788657 0.00789144917,111.584314" id="path-29"></path>
        <path d="M0.00789144917,111.584314 C0.00789144917,173.089501 49.9410361,222.949306 111.53669,222.949306 C173.132871,222.949306 223.065752,173.089501 223.065752,111.584314 C223.065752,50.0788657 173.132871,0.219060071 111.53669,0.219060071 C49.9410361,0.219060071 0.00789144917,50.0788657 0.00789144917,111.584314" id="path-31"></path>
        <path d="M0.00789144917,111.584314 C0.00789144917,173.089501 49.9410361,222.949306 111.53669,222.949306 C173.132871,222.949306 223.065752,173.089501 223.065752,111.584314 C223.065752,50.0788657 173.132871,0.219060071 111.53669,0.219060071 C49.9410361,0.219060071 0.00789144917,50.0788657 0.00789144917,111.584314" id="path-33"></path>
        <path d="M111.53669,222.949306 C173.132871,222.949306 223.065752,173.089501 223.065752,111.584314 C223.065752,50.0788657 173.132871,0.219060071 111.53669,0.219060071 C49.9410361,0.219060071 0.00789144917,50.0788657 0.00789144917,111.584314 C0.00789144917,173.089501 49.9410361,222.949306 111.53669,222.949306 Z" id="path-35"></path>
    </defs>
    <g id="Explainer-Pages" stroke="none" stroke-width="1" fill="none" fill-rule="evenodd">
        <g id="Explainer-NRVE" transform="translate(-512.000000, -313.000000)">
            <g id="Graphics/Why-Guy" transform="translate(512.000000, 313.000000)">
                <g id="Group">
                    <g id="Group-3" transform="translate(271.140784, 82.189702)">
                        <mask id="mask-2" fill="white">
                            <use xlink:href="#path-1"></use>
                        </mask>
                        <g id="Clip-2"></g>
                        <path d="M139.88255,5.51344259 C135.533222,7.76666452 116.232931,18.3547092 116.232931,18.3547092 L108.122687,21.2046808 L108.323538,20.2905389 C108.323538,20.2905389 104.434047,19.3147548 106.808121,14.9612363 C109.182982,10.6082423 111.783309,3.32632216 107.044848,0.130629165 L94.6431485,19.9267184 L86.3566691,40.0774474 L86.4072092,40.1220396 L47.7110472,83.9893066 L9.24899313,60.5424208 L0.191580974,99.852094 L54.233599,123.089396 L101.207337,52.6498487 L101.239546,52.504268 L101.307893,52.7566079 L128.759279,31.8362685 L142.241436,18.1084024 L145.703563,7.68351303 C145.703563,7.68351303 144.231616,3.25995835 139.88255,5.51344259" id="Fill-1" fill="#40a9ff" mask="url(#mask-2)"></path>
                    </g>
                    <g id="Group-34" transform="translate(88.968070, 0.000000)">
                        <g id="Group-6">
                            <mask id="mask-4" fill="white">
                                <use xlink:href="#path-3"></use>
                            </mask>
                            <g id="Clip-5"></g>
                            <path d="M223.065963,111.584262 C223.065963,173.089448 173.132818,222.949516 111.536901,222.949516 C49.9412465,222.949516 0.00783883951,173.089448 0.00783883951,111.584262 C0.00783883951,50.0788132 49.9412465,0.219007538 111.536901,0.219007538 C173.132818,0.219007538 223.065963,50.0788132 223.065963,111.584262" id="Fill-4" fill="#FFFFFF" mask="url(#mask-4)"></path>
                        </g>
                        <g id="Group-9">
                            <mask id="mask-6" fill="white">
                                <use xlink:href="#path-5"></use>
                            </mask>
                            <g id="Clip-8"></g>
                            <path d="M111.536796,3.47698763 C51.8385087,3.47698763 3.27058481,51.9735777 3.27058481,111.584183 C3.27058481,171.194789 51.8385087,219.691379 111.536796,219.691379 C171.234819,219.691379 219.803006,171.194789 219.803006,111.584183 C219.803006,51.9735777 171.234819,3.47698763 111.536796,3.47698763 M111.536796,226.207496 C48.240271,226.207496 -3.25511756,174.787741 -3.25511756,111.584183 C-3.25511756,48.3806249 48.240271,-3.03913015 111.536796,-3.03913015 C174.83332,-3.03913015 226.328709,48.3806249 226.328709,111.584183 C226.328709,174.787741 174.83332,226.207496 111.536796,226.207496" id="Fill-7" fill="#D3E5E5" mask="url(#mask-6)"></path>
                        </g>
                        <g id="Group-12">
                            <mask id="mask-8" fill="white">
                                <use xlink:href="#path-7"></use>
                            </mask>
                            <g id="Clip-11"></g>
                            <path d="M158.725978,105.332697 C158.725978,125.370915 137.562164,148.897284 117.494208,148.897284 C97.4265163,148.897284 81.159346,132.653218 81.159346,112.615788 L81.159346,68.79353 L159.112133,68.79353 L158.725978,105.332697 Z" id="Fill-10" fill="#AFBABA" mask="url(#mask-8)"></path>
                        </g>
                        <g id="Group-15">
                            <mask id="mask-10" fill="white">
                                <use xlink:href="#path-9"></use>
                            </mask>
                            <g id="Clip-14"></g>
                            <path d="M-19.6705945,398.537247 L8.79096916,315.3417 L30.9085968,192.377031 L62.2721094,230.280727 L40.5940354,329.148525 L-0.268940588,409.973549 C-0.174506246,410.040265 -0.0805980009,410.11276 0.013047196,410.180527 L-3.76590476,431.960456 L-12.5698685,456.71582 C-18.5657916,454.361581 -17.4857152,445.731822 -15.9368868,440.374569 C-14.3893736,435.016265 -18.9080174,434.890187 -18.9080174,434.890187 C-18.9080174,434.890187 -32.628354,460.34896 -35.8151842,465.939982 C-39.0014884,471.531267 -43.7908089,467.718729 -43.7908089,467.718729 L-47.4298191,453.774794 L-42.3763981,429.025996 L-19.6705945,398.537247 Z" id="Fill-13" fill="#AFBABA" mask="url(#mask-10)"></path>
                        </g>
                        <g id="Group-18">
                            <mask id="mask-12" fill="white">
                                <use xlink:href="#path-11"></use>
                            </mask>
                            <g id="Clip-17"></g>
                            <polyline id="Fill-16" fill="#AFBABA" mask="url(#mask-12)" points="240.882356 280.151091 219.367635 184.794558 183.85401 201.961618 212.504968 290.442187"></polyline>
                        </g>
                        <g id="Group-21">
                            <mask id="mask-14" fill="white">
                                <use xlink:href="#path-13"></use>
                            </mask>
                            <g id="Clip-20"></g>
                            <path d="M162.204687,68.2792905 L162.204687,96.6486203 C162.204687,96.6486203 160.980723,127.783518 143.585865,136.854023 L146.742444,113.052122 C146.742444,113.052122 156.598601,114.403255 156.598601,94.3324671 C156.598601,86.9986827 153.672978,86.8058888 151.380512,86.8058888 C148.288905,86.8058888 145.969082,91.4371444 145.969082,91.4371444 L140.171761,91.4371444 L140.171761,80.2443305 L140.189385,80.1642186 L139.977894,80.2443305 C139.977894,80.2443305 140.365101,68.7612751 128.477948,68.7612751 L81.1592408,68.7612751 C81.1592408,68.7612751 72.1393144,68.2792905 72.1393144,40.4891303 L127.80244,40.4891303 C127.80244,40.4891303 162.204687,35.8570867 162.204687,68.2792905" id="Fill-19" fill="#192A2E" mask="url(#mask-14)"></path>
                        </g>
                        <g id="Group-24">
                            <mask id="mask-16" fill="white">
                                <use xlink:href="#path-15"></use>
                            </mask>
                            <g id="Clip-23"></g>
                            <polyline id="Fill-22" fill="#D3E5E5" mask="url(#mask-16)" points="191.94456 245.120549 194.680262 225.005109 218.783116 183.681554 238.667463 219.539376"></polyline>
                        </g>
                        <g id="Group-27">
                            <mask id="mask-18" fill="white">
                                <use xlink:href="#path-17"></use>
                            </mask>
                            <g id="Clip-26"></g>
                            <path d="M189.464093,377.67653 L189.409379,377.67653 L187.075878,324.855999 L188.231449,243.361187 L223.06983,182.501361 C216.421021,150.999788 132.620144,137.321666 132.620144,137.321666 C132.601204,137.173788 122.926814,128.093827 122.90577,127.945423 C122.894196,127.860845 122.919185,127.791503 122.919185,127.712441 L122.478579,127.549591 L121.594737,127.88107 L121.407973,127.81094 C121.412181,127.779158 121.413234,127.746062 121.414286,127.712441 L120.972365,127.549591 L120.841104,127.598709 L120.710895,127.549591 L120.268974,127.712441 C120.270026,127.746062 120.271078,127.779158 120.27555,127.81094 L120.08747,127.88107 L119.203628,127.549591 L118.763022,127.712441 C118.764863,127.791503 118.789064,127.860845 118.77749,127.945423 C118.756446,128.093827 118.748291,128.243019 118.729352,128.390897 C118.729352,128.390897 101.698289,145.487301 98.2623522,143.404129 C82.6154499,139.115385 49.4745199,154.323512 49.4745199,154.323512 L49.5042444,154.765047 C32.9398295,159.674199 26.8699899,172.170079 25.2030527,176.626927 L25.1622803,176.633756 L25.0078709,177.17195 C24.7792819,177.834909 24.6656451,178.243874 24.6656451,178.243874 L24.703261,178.243874 L10.0180632,229.807567 C12.1142952,230.503884 38.1692298,238.610683 53.4515473,243.361187 L54.6073815,324.855999 L50.7550391,377.67653 L50.7005881,377.67653 L49.6478688,424.520188 C73.3777195,424.244656 97.1088854,424.094676 120.841104,424.011937 C144.573322,424.094676 166.703313,424.244656 190.433163,424.520188 L189.464093,377.67653 Z" id="Fill-25" fill="#D3E5E5" mask="url(#mask-18)"></path>
                        </g>
                        <g id="Group-30">
                            <mask id="mask-20" fill="white">
                                <use xlink:href="#path-19"></use>
                            </mask>
                            <g id="Clip-29"></g>
                            <path d="M143.521576,156.0611 C143.521839,165.150254 133.829824,172.518447 121.875068,172.518447 C109.920311,172.518447 100.228296,165.149991 100.228296,156.0611 L100.228296,119.228276 L143.521576,119.228276 L143.521576,156.0611 Z" id="Fill-28" fill="#AFBABA" mask="url(#mask-20)"></path>
                        </g>
                        <g id="Group-33">
                            <mask id="mask-22" fill="white">
                                <use xlink:href="#path-21"></use>
                            </mask>
                            <g id="Clip-32"></g>
                            <path d="M97.6902748,109.928073 C96.2574507,114.133029 92.3196175,117.177018 87.6302554,117.177018 L79.7843136,117.177018 C79.7843136,111.283672 84.5617969,106.506376 90.4548681,106.506376 L97.0789505,106.506376 L98.301336,106.506376 L104.924629,106.506376 C110.81849,106.506376 115.595973,111.283672 115.595973,117.177018 L107.748979,117.177018 C103.060406,117.177018 99.1220467,114.133029 97.6902748,109.928073" id="Fill-31" fill="#D3E5E5" mask="url(#mask-22)"></path>
                        </g>
                    </g>
                    <g id="Group-34" transform="translate(88.968070, 0.000000)">
                        <g id="Group-6">
                            <mask id="mask-24" fill="white">
                                <use xlink:href="#path-23"></use>
                            </mask>
                            <g id="Clip-5"></g>
                        </g>
                        <g id="Group-9">
                            <mask id="mask-26" fill="white">
                                <use xlink:href="#path-25"></use>
                            </mask>
                            <g id="Clip-8"></g>
                            <path d="M111.536796,3.47698763 C51.8385087,3.47698763 3.27058481,51.9735777 3.27058481,111.584183 C3.27058481,171.194789 51.8385087,219.691379 111.536796,219.691379 C171.234819,219.691379 219.803006,171.194789 219.803006,111.584183 C219.803006,51.9735777 171.234819,3.47698763 111.536796,3.47698763 M111.536796,226.207496 C48.240271,226.207496 -3.25511756,174.787741 -3.25511756,111.584183 C-3.25511756,48.3806249 48.240271,-3.03913015 111.536796,-3.03913015 C174.83332,-3.03913015 226.328709,48.3806249 226.328709,111.584183 C226.328709,174.787741 174.83332,226.207496 111.536796,226.207496" id="Fill-7" fill="#D3E5E5" mask="url(#mask-26)"></path>
                        </g>
                        <g id="Group-12">
                            <mask id="mask-28" fill="white">
                                <use xlink:href="#path-27"></use>
                            </mask>
                            <g id="Clip-11"></g>
                            <path d="M158.725978,105.332697 C158.725978,125.370915 137.562164,148.897284 117.494208,148.897284 C97.4265163,148.897284 81.159346,132.653218 81.159346,112.615788 L81.159346,68.79353 L159.112133,68.79353 L158.725978,105.332697 Z" id="Fill-10" fill="#40a9ff" mask="url(#mask-28)"></path>
                        </g>
                        <g id="Group-18">
                            <mask id="mask-30" fill="white">
                                <use xlink:href="#path-29"></use>
                            </mask>
                            <g id="Clip-17"></g>
                            <polyline id="Fill-16" fill="#AFBABA" mask="url(#mask-30)" points="240.882356 280.151091 219.367635 184.794558 183.85401 201.961618 212.504968 290.442187"></polyline>
                        </g>
                        <g id="Group-21">
                            <mask id="mask-32" fill="white">
                                <use xlink:href="#path-31"></use>
                            </mask>
                            <g id="Clip-20"></g>
                            <path d="M162.204687,68.2792905 L162.204687,96.6486203 C162.204687,96.6486203 160.980723,127.783518 143.585865,136.854023 L146.742444,113.052122 C146.742444,113.052122 156.598601,114.403255 156.598601,94.3324671 C156.598601,86.9986827 153.672978,86.8058888 151.380512,86.8058888 C148.288905,86.8058888 145.969082,91.4371444 145.969082,91.4371444 L140.171761,91.4371444 L140.171761,80.2443305 L140.189385,80.1642186 L139.977894,80.2443305 C139.977894,80.2443305 140.365101,68.7612751 128.477948,68.7612751 L81.1592408,68.7612751 C81.1592408,68.7612751 72.1393144,68.2792905 72.1393144,40.4891303 L127.80244,40.4891303 C127.80244,40.4891303 162.204687,35.8570867 162.204687,68.2792905" id="Fill-19" fill="#192A2E" mask="url(#mask-32)"></path>
                        </g>
                        <g id="Group-24">
                            <mask id="mask-34" fill="white">
                                <use xlink:href="#path-33"></use>
                            </mask>
                            <g id="Clip-23"></g>
                            <polyline id="Fill-22" fill="#D3E5E5" mask="url(#mask-34)" points="191.94456 245.120549 194.680262 225.005109 218.783116 183.681554 238.667463 219.539376"></polyline>
                        </g>
                        <g id="Group-27">
                            <mask id="mask-36" fill="white">
                                <use xlink:href="#path-35"></use>
                            </mask>
                            <g id="Clip-26"></g>
                            <path d="M189.464093,377.67653 L189.409379,377.67653 L187.075878,324.855999 L188.231449,243.361187 L223.06983,182.501361 C216.421021,150.999788 132.620144,137.321666 132.620144,137.321666 C132.601204,137.173788 122.926814,128.093827 122.90577,127.945423 C122.894196,127.860845 122.919185,127.791503 122.919185,127.712441 L122.478579,127.549591 L121.594737,127.88107 L121.407973,127.81094 C121.412181,127.779158 121.413234,127.746062 121.414286,127.712441 L120.972365,127.549591 L120.841104,127.598709 L120.710895,127.549591 L120.268974,127.712441 C120.270026,127.746062 120.271078,127.779158 120.27555,127.81094 L120.08747,127.88107 L119.203628,127.549591 L118.763022,127.712441 C118.764863,127.791503 118.789064,127.860845 118.77749,127.945423 C118.756446,128.093827 118.748291,128.243019 118.729352,128.390897 C118.729352,128.390897 101.698289,145.487301 98.2623522,143.404129 C82.6154499,139.115385 49.4745199,154.323512 49.4745199,154.323512 L49.5042444,154.765047 C32.9398295,159.674199 26.8699899,172.170079 25.2030527,176.626927 L25.1622803,176.633756 L25.0078709,177.17195 C24.7792819,177.834909 24.6656451,178.243874 24.6656451,178.243874 L24.703261,178.243874 L10.0180632,229.807567 C12.1142952,230.503884 38.1692298,238.610683 53.4515473,243.361187 L54.6073815,324.855999 L50.7550391,377.67653 L50.7005881,377.67653 L49.6478688,424.520188 C73.3777195,424.244656 97.1088854,424.094676 120.841104,424.011937 C144.573322,424.094676 166.703313,424.244656 190.433163,424.520188 L189.464093,377.67653 Z" id="Fill-25" fill="#192A2E" mask="url(#mask-36)"></path>
                        </g>
                        <g id="Group-30" transform="translate(99.862119, 119.054201)" fill="#40a9ff">
                            <path d="M43.6594567,37.0068992 C43.6597197,46.0960535 33.9677049,53.4642467 22.0129485,53.4642467 C10.0581922,53.4642467 0.366177356,46.0957909 0.366177356,37.0068992 L0.366177356,0.174075901 L43.6594567,0.174075901 L43.6594567,37.0068992 Z" id="Fill-28"></path>
                        </g>
                        <g id="Group-33" transform="translate(79.284470, 106.363144)" fill="#192A2E">
                            <path d="M18.4058045,3.56492963 C16.9729804,7.76988487 13.0351473,10.8138743 8.34578514,10.8138743 L0.499843321,10.8138743 C0.499843321,4.92052798 5.27732665,0.14323234 11.1703978,0.14323234 L17.7944803,0.14323234 L19.0168658,0.14323234 L25.6401591,0.14323234 C31.5340194,0.14323234 36.3115027,4.92052798 36.3115027,10.8138743 L28.4645087,10.8138743 C23.7759357,10.8138743 19.8375765,7.76988487 18.4058045,3.56492963" id="Fill-31"></path>
                        </g>
                    </g>
                    <g id="Group-45" transform="translate(0.000000, 89.441734)">
                        <g id="Group-2">
                            <path d="M137.102306,60.2947631 L98.4754668,83.6764615 L59.6132541,39.931155 L59.6642737,39.8864251 L51.3420292,19.7919811 L38.8874595,0.0509292926 C34.1284348,3.23773757 36.7401653,10.4991508 39.1249374,14.8400425 C41.5094465,19.1817189 37.6027648,20.1545286 37.6027648,20.1545286 L37.7708139,20.9125824 L29.7607357,18.1173569 C29.7607357,18.1173569 10.3780191,7.55901088 6.00979404,5.31205339 C1.64209496,3.06483432 0.164104301,7.47609056 0.164104301,7.47609056 L3.64106417,17.8717349 L17.1804579,31.5616961 L44.7499805,52.424134 L91.9249702,122.667844 L146.198523,99.4951468 L137.102306,60.2947631 Z" id="Fill-35" fill="#40a9ff"></path>
                            <polygon id="Fill-37" fill="#192A2E" points="119.440028 116.728683 146.198497 102.744446 133.698693 59.6075708 100.138838 77.572506"></polygon>
                            <path d="M179.658285,76.8718424 C179.658285,89.5848087 166.001336,99.8907317 149.154872,99.8907317 C132.308146,99.8907317 118.651196,89.5848087 118.651196,76.8718424 C118.651196,64.158876 132.308146,53.8529531 149.154872,53.8529531 C166.001336,53.8529531 179.658285,64.158876 179.658285,76.8718424" id="Fill-39" fill="#192A2E"></path>
                        </g>
                        <path d="M301.561797,76.8718424 C301.561797,89.5848087 289.555359,99.8907317 274.744157,99.8907317 C259.933218,99.8907317 247.926779,89.5848087 247.926779,76.8718424 C247.926779,64.158876 259.933218,53.8529531 274.744157,53.8529531 C289.555359,53.8529531 301.561797,64.158876 301.561797,76.8718424" id="Fill-41" fill="#192A2E"></path>
                        <polygon id="Fill-43" fill="#192A2E" points="295.930942 110.973961 269.172737 96.9897238 280.709217 57.1764622 315.232396 71.8177837"></polygon>
                    </g>
                </g>
            </g>
        </g>
    </g>
</svg>
